<?xml version="1.0" standalone="no"?>
 <!DOCTYPE svg PUBLIC "-//W3C//DTD SVG 1.1//EN" 
 "http://www.w3.org/Graphics/SVG/1.1/DTD/svg11.dtd"> 
<svg xmlns="http://www.w3.org/2000/svg" version="1.1" 
    width="7.07898cm" height="5.15874cm" viewBox="0 0 27870 20310 ">
<title>SVG Picture created as PETT_BSF-B.Fab.svg date 2023/05/28 22:50:15 </title>
  <desc>Picture generated by PCBNEW </desc>
<g style="fill:#000000; fill-opacity:1;stroke:#000000; stroke-opacity:1;
stroke-linecap:round; stroke-linejoin:round; "
 transform="translate(0 0) scale(1 1)">
</g>
<g style="fill:#000000; fill-opacity:0.0; 
stroke:#000000; stroke-width:-0.000393701; stroke-opacity:1; 
stroke-linecap:round; stroke-linejoin:round;">
</g>
<g style="fill:#000084; fill-opacity:0.0; 
stroke:#000084; stroke-width:-0.000393701; stroke-opacity:1; 
stroke-linecap:round; stroke-linejoin:round;">
</g>
<g style="fill:#000084; fill-opacity:0.0; 
stroke:#000084; stroke-width:39.3701; stroke-opacity:1; 
stroke-linecap:round; stroke-linejoin:round;">
<path d="M10226 3649
L10541 3649
" />
<path d="M10541 3649
L10541 3019
" />
<path d="M10541 3019
L14596 3019
" />
<path d="M14596 3019
L14596 3649
" />
<path d="M14596 3649
L14911 3649
" />
<path d="M10226 657
L14911 657
" />
<path d="M10226 3649
L10226 657
" />
<path d="M14911 3649
L14911 657
" />
<path d="M11191 3019
L11388 2740
" />
<path d="M11388 2740
L11585 3019
" />
</g>
<g style="fill:#000084; fill-opacity:0.0; 
stroke:#000084; stroke-width:59.0551; stroke-opacity:1; 
stroke-linecap:round; stroke-linejoin:round;">
<path d="M10428 9386
L10447 9442
L10447 9536
L10428 9573
L10409 9592
L10372 9611
L10334 9611
L10297 9592
L10278 9573
L10259 9536
L10241 9461
L10222 9423
L10203 9405
L10166 9386
L10128 9386
L10091 9405
L10072 9423
L10053 9461
L10053 9555
L10072 9611
" />
<path d="M10447 9780
L10053 9780
" />
<path d="M10447 9967
L10053 9967
L10334 10098
L10053 10230
L10447 10230
" />
<path d="M10222 10473
L10203 10436
L10184 10417
L10147 10398
L10128 10398
L10091 10417
L10072 10436
L10053 10473
L10053 10548
L10072 10586
L10091 10604
L10128 10623
L10147 10623
L10184 10604
L10203 10586
L10222 10548
L10222 10473
L10241 10436
L10259 10417
L10297 10398
L10372 10398
L10409 10417
L10428 10436
L10447 10473
L10447 10548
L10428 10586
L10409 10604
L10372 10623
L10297 10623
L10259 10604
L10241 10586
L10222 10548
" />
<path d="M10053 10867
L10053 10904
L10072 10942
L10091 10961
L10128 10979
L10203 10998
L10297 10998
L10372 10979
L10409 10961
L10428 10942
L10447 10904
L10447 10867
L10428 10829
L10409 10811
L10372 10792
L10297 10773
L10203 10773
L10128 10792
L10091 10811
L10072 10829
L10053 10867
" />
<path d="M10053 11242
L10053 11279
L10072 11317
L10091 11336
L10128 11354
L10203 11373
L10297 11373
L10372 11354
L10409 11336
L10428 11317
L10447 11279
L10447 11242
L10428 11204
L10409 11186
L10372 11167
L10297 11148
L10203 11148
L10128 11167
L10091 11186
L10072 11204
L10053 11242
" />
<path d="M10447 11729
L10447 11542
L10053 11542
" />
<path d="M13526 3648
L13470 3667
L13376 3667
L13339 3648
L13320 3629
L13301 3592
L13301 3554
L13320 3517
L13339 3498
L13376 3479
L13451 3461
L13489 3442
L13507 3423
L13526 3386
L13526 3348
L13507 3311
L13489 3292
L13451 3273
L13357 3273
L13301 3292
" />
<path d="M13132 3461
L13001 3461
" />
<path d="M12945 3667
L13132 3667
L13132 3273
L12945 3273
" />
<path d="M12776 3667
L12776 3273
L12551 3667
L12551 3273
" />
<path d="M12383 3648
L12326 3667
L12233 3667
L12195 3648
L12176 3629
L12158 3592
L12158 3554
L12176 3517
L12195 3498
L12233 3479
L12308 3461
L12345 3442
L12364 3423
L12383 3386
L12383 3348
L12364 3311
L12345 3292
L12308 3273
L12214 3273
L12158 3292
" />
<path d="M11914 3273
L11839 3273
L11801 3292
L11764 3330
L11745 3405
L11745 3536
L11764 3611
L11801 3648
L11839 3667
L11914 3667
L11951 3648
L11989 3611
L12008 3536
L12008 3405
L11989 3330
L11951 3292
L11914 3273
" />
<path d="M11351 3667
L11483 3479
" />
<path d="M11576 3667
L11576 3273
L11426 3273
L11389 3292
L11370 3311
L11351 3348
L11351 3405
L11370 3442
L11389 3461
L11426 3479
L11576 3479
" />
<path d="M12700 1583
L12700 1864
L12719 1920
L12756 1958
L12813 1976
L12850 1976
" />
<path d="M12325 1583
L12513 1583
L12531 1770
L12513 1751
L12475 1733
L12381 1733
L12344 1751
L12325 1770
L12306 1808
L12306 1901
L12325 1939
L12344 1958
L12381 1976
L12475 1976
L12513 1958
L12531 1939
" />
</g>
<g style="fill:#000000; fill-opacity:0.0; 
stroke:#000000; stroke-width:59.0551; stroke-opacity:1; 
stroke-linecap:round; stroke-linejoin:round;">
</g>
<g style="fill:#C2C200; fill-opacity:0.0; 
stroke:#C2C200; stroke-width:59.0551; stroke-opacity:1; 
stroke-linecap:round; stroke-linejoin:round;">
<path d="M369 889
L369 16589
" />
<path d="M26919 89
L1119 89
" />
<path d="M27669 5089
L27669 839
" />
<path d="M27669 16589
L27669 12389
" />
<path d="M13969 17339
L26919 17339
" />
<path d="M13619 15689
L13619 16989
" />
<path d="M8419 16989
L8419 15689
" />
<path d="M1119 17339
L8069 17339
" />
<path d="M13619.3 16989.4 A350 350 0.0 0 0 13969.3 17339.4 " />
<path d="M8069.29 17339.4 A350 350 0.0 0 0 8419.29 16989.4 " />
<path d="M1119.29 89.3705 A750 750 0.0 0 0 370.953 889.26 " />
<path d="M369.292 16589.4 A750 750 0.0 0 0 1119.29 17339.4 " />
<path d="M26919.3 17339.4 A750 750 0.0 0 0 27669.3 16589.4 " />
<path d="M27669.3 839.37 A750 750 0.0 0 0 26919.3 89.3705 " />
<path d="M8419 15689
L13619 15689
" />
<path d="M25419 5089
L27669 5089
" />
<path d="M25419 12389
L25419 5089
" />
<path d="M27669 12389
L25419 12389
" />
</g> 
</svg>
