<?xml version="1.0" standalone="no"?>
 <!DOCTYPE svg PUBLIC "-//W3C//DTD SVG 1.1//EN" 
 "http://www.w3.org/Graphics/SVG/1.1/DTD/svg11.dtd"> 
<svg xmlns="http://www.w3.org/2000/svg" version="1.1" 
    width="7.07898cm" height="5.15874cm" viewBox="0 0 27870 20310 ">
<title>SVG Picture created as PETT_BSF-F.SilkS.svg date 2023/05/28 22:50:15 </title>
  <desc>Picture generated by PCBNEW </desc>
<g style="fill:#000000; fill-opacity:1;stroke:#000000; stroke-opacity:1;
stroke-linecap:round; stroke-linejoin:round; "
 transform="translate(0 0) scale(1 1)">
</g>
<g style="fill:#000000; fill-opacity:0.0; 
stroke:#000000; stroke-width:-0.000393701; stroke-opacity:1; 
stroke-linecap:round; stroke-linejoin:round;">
</g>
<g style="fill:#008484; fill-opacity:0.0; 
stroke:#008484; stroke-width:-0.000393701; stroke-opacity:1; 
stroke-linecap:round; stroke-linejoin:round;">
</g>
<g style="fill:#008484; fill-opacity:0.0; 
stroke:#008484; stroke-width:47.2441; stroke-opacity:1; 
stroke-linecap:round; stroke-linejoin:round;">
<path d="M7074 1731
L7634 1731
" />
<path d="M7074 2447
L7634 2447
" />
<path d="M18983 16097
L19555 16097
" />
<path d="M18983 15381
L19555 15381
" />
<path d="M11555 9481
L10983 9481
" />
<path d="M11555 10197
L10983 10197
" />
<path d="M15122 13631
L15695 13631
" />
<path d="M15122 14347
L15695 14347
" />
<path d="M3793 15181
L4365 15181
" />
<path d="M3793 15897
L4365 15897
" />
<path d="M6295 15181
L5722 15181
" />
<path d="M6295 15897
L5722 15897
" />
<path d="M6211 7475
L6211 6903
" />
<path d="M6927 7475
L6927 6903
" />
<path d="M8283 9847
L8855 9847
" />
<path d="M8283 9131
L8855 9131
" />
<path d="M20311 4040
L20311 3468
" />
<path d="M21027 4040
L21027 3468
" />
<path d="M23433 13447
L24005 13447
" />
<path d="M23433 12731
L24005 12731
" />
<path d="M13555 10497
L12983 10497
" />
<path d="M13555 9781
L12983 9781
" />
<path d="M4812 2437
L4812 2071
" />
<path d="M4812 1193
L4812 1559
" />
<path d="M4812 1193
L3961 1193
" />
<path d="M4812 2437
L4237 2437
" />
<path d="M3627 1363
L3627 1935
" />
<path d="M2911 1363
L2911 1935
" />
<path d="M20301 2597
L20873 2597
" />
<path d="M20301 1881
L20873 1881
" />
<path d="M4699 16192
L3100 16192
" />
<path d="M3100 16192
L3100 17086
" />
<path d="M3100 17086
L4699 17086
" />
<path d="M6973 16192
L5375 16192
" />
<path d="M6973 17086
L6973 16192
" />
<path d="M5375 17086
L6973 17086
" />
<path d="M18799 16192
L17200 16192
" />
<path d="M17200 16192
L17200 17086
" />
<path d="M17200 17086
L18799 17086
" />
<path d="M13462 5990
L12675 5990
" />
<path d="M13462 4888
L13462 5990
" />
<path d="M12675 4888
L13462 4888
" />
<path d="M12675 5990
L12675 4888
" />
<path d="M4432 6079
L7605 6079
" />
<path d="M7605 6079
L7605 4299
" />
<path d="M7605 4299
L4432 4299
" />
<path d="M18274 1881
L18834 1881
" />
<path d="M18274 2597
L18834 2597
" />
<path d="M7074 731
L7634 731
" />
<path d="M7074 1447
L7634 1447
" />
<path d="M22827 4054
L22827 3494
" />
<path d="M22111 4054
L22111 3494
" />
<path d="M14418 6450
L13119 6450
" />
<path d="M13119 6450
L13119 8576
" />
<path d="M14418 6450
L14418 8576
" />
<path d="M2118 4500
L2118 6626
" />
<path d="M819 4500
L819 6626
" />
<path d="M2118 4500
L819 4500
" />
<path d="M1444 11545
L2055 11545
" />
<path d="M1444 11545
L1444 11663
" />
<path d="M342 11663
L1444 11663
" />
<path d="M1444 14813
L2055 14813
" />
<path d="M1444 14695
L1444 14813
" />
<path d="M342 14695
L1444 14695
" />
<path d="M2724 12825
L2547 12667
" />
<path d="M2724 12510
L2724 12825
" />
<path d="M2547 12667
L2724 12510
" />
<path d="M4042 12515
L2995 12515
" />
<path d="M4042 13539
L4042 12515
" />
<path d="M2995 13539
L2995 12515
" />
<path d="M4042 13539
L2995 13539
" />
<path d="M4042 14039
L4042 14562
" />
<path d="M4042 14562
L3519 14562
" />
<path d="M25342 14662
L25342 13615
" />
<path d="M21319 14662
L25342 14662
" />
<path d="M21319 13615
L25342 13615
" />
<path d="M21319 14662
L21319 13615
" />
<path d="M20819 14662
L20295 14662
" />
<path d="M20295 14662
L20295 14139
" />
<path d="M17591 4210
L17709 4092
" />
<path d="M17709 4328
L17709 4092
" />
<path d="M17591 4210
L17709 4328
" />
<path d="M17237 4545
L17001 4545
" />
<path d="M17512 3186
L17512 4289
" />
<path d="M17001 2931
L17237 2931
" />
<path d="M16725 4289
L16725 3186
" />
<path d="M17001.2 2931 A275.591 275.591 0.0 0 0 16725.6 3206.59 " />
<path d="M17513 3206.59 A275.591 275.591 0.0 0 0 17237.4 2931 " />
<path d="M17237.4 4545.17 A275.591 275.591 0.0 0 0 17513 4269.58 " />
<path d="M16725.6 4269.58 A275.591 275.591 0.0 0 0 17001.2 4545.17 " />
<path d="M14575 3640
L14575 2538
" />
<path d="M14575 2538
L15362 2538
" />
<path d="M15362 2538
L15362 3640
" />
<path d="M15362 3640
L14575 3640
" />
<path d="M6470 8917
L6470 9283
" />
<path d="M6470 10161
L6470 9795
" />
<path d="M6470 10161
L7320 10161
" />
<path d="M6470 8917
L7044 8917
" />
<path d="M14768 6161
L14193 6161
" />
<path d="M14768 4917
L13918 4917
" />
<path d="M14768 4917
L14768 5283
" />
<path d="M14768 6161
L14768 5795
" />
<path d="M17615 14347
L17043 14347
" />
<path d="M17615 13631
L17043 13631
" />
<path d="M8027 16375
L8027 15803
" />
<path d="M7311 16375
L7311 15803
" />
<path d="M18993 14347
L19565 14347
" />
<path d="M18993 13631
L19565 13631
" />
<path d="M5361 1885
L5361 1313
" />
<path d="M6077 1885
L6077 1313
" />
<path d="M22322 2597
L22895 2597
" />
<path d="M22322 1881
L22895 1881
" />
<path d="M17611 3453
L17611 4025
" />
<path d="M18327 3453
L18327 4025
" />
<path d="M15222 4647
L15795 4647
" />
<path d="M15222 3931
L15795 3931
" />
<path d="M19227 3468
L19227 4040
" />
<path d="M18511 3468
L18511 4040
" />
<path d="M19411 4040
L19411 3468
" />
<path d="M20127 4040
L20127 3468
" />
<path d="M23677 3492
L23677 4065
" />
<path d="M22961 3492
L22961 4065
" />
<path d="M22105 13447
L21533 13447
" />
<path d="M22105 12731
L21533 12731
" />
</g>
<g style="fill:#008484; fill-opacity:0.0; 
stroke:#008484; stroke-width:59.0551; stroke-opacity:1; 
stroke-linecap:round; stroke-linejoin:round;">
<path d="M11018 15789
L8518 15789
" />
<path d="M8518 15789
L8518 18289
" />
<path d="M8518 18289
L13518 18289
" />
<path d="M13518 18289
L13518 15789
" />
<path d="M13518 15789
L11018 15789
" />
<path d="M11068 18289
L11068 20289
" />
<path d="M11068 20289
L12468 20289
" />
<path d="M12468 20289
L12468 18289
" />
<path d="M12868 14189
L12868 15789
" />
<path d="M11018 14139
L11018 15789
" />
<path d="M9168 14189
L9168 15789
" />
<path d="M27373 14939
L27373 14073
" />
<path d="M27373 14073
L26468 14073
" />
<path d="M26468 14073
L26468 15805
" />
<path d="M26468 15805
L27373 15805
" />
<path d="M27373 15805
L27373 14939
" />
<path d="M27373 15333
L27846 15293
" />
<path d="M27846 15293
L27846 14585
" />
<path d="M27846 14585
L27373 14545
" />
</g>
<g style="fill:#008484; fill-opacity:0.0; 
stroke:#008484; stroke-width:47.2441; stroke-opacity:1; 
stroke-linecap:round; stroke-linejoin:round;">
<circle cx="14819.3" cy="10089.4" r="472.441" /> 
<path d="M8669 8647
L9437 8647
" />
<path d="M8669 8647
L7901 8647
" />
<path d="M8669 6631
L9437 6631
" />
<path d="M8669 6631
L7311 6631
" />
<path d="M6469 13069
L5729 13069
" />
<path d="M6469 13069
L7209 13069
" />
<path d="M6469 15109
L5729 15109
" />
<path d="M6469 15109
L7857 15109
" />
<path d="M13419 4703
L13734 4703
" />
<path d="M13419 4703
L13104 4703
" />
<path d="M13419 3475
L13734 3475
" />
<path d="M13419 3475
L12710 3475
" />
</g>
<g style="fill:#008484; fill-opacity:0.0; 
stroke:#008484; stroke-width:59.0551; stroke-opacity:1; 
stroke-linecap:round; stroke-linejoin:round;">
<path d="M15201 5180
L15201 12280
" />
<path d="M24901 5180
L15201 5180
" />
<path d="M24901 5180
L27401 5180
" />
<path d="M15201 12280
L24901 12280
" />
<path d="M24901 12280
L27401 12280
" />
<path d="M27401 12280
L27401 5180
" />
<path d="M24901 12280
L24901 5180
" />
</g>
<g style="fill:#008484; fill-opacity:0.0; 
stroke:#008484; stroke-width:47.2441; stroke-opacity:1; 
stroke-linecap:round; stroke-linejoin:round;">
<path d="M1658 7328
L5280 7328
" />
<path d="M5280 7328
L5280 8194
" />
<path d="M5280 10950
L1658 10950
" />
<path d="M5280 10084
L5280 10950
" />
<path d="M1658 10084
L1658 10950
" />
<path d="M1658 7328
L1658 8194
" />
<path d="M1658 8194
L1500 8194
" />
<path d="M11028 8888
L10359 8888
" />
<path d="M10359 8888
L10359 6290
" />
<path d="M10359 6290
L11028 6290
" />
<path d="M12209 6290
L12879 6290
" />
<path d="M12879 6290
L12879 8888
" />
<path d="M12879 8888
L12209 8888
" />
<path d="M10600 4416
L7938 4416
" />
<path d="M7938 4416
L7938 5762
" />
<path d="M7938 5762
L10600 5762
" />
<path d="M14599 10916
L11938 10916
" />
<path d="M14599 12262
L14599 10916
" />
<path d="M11938 12262
L14599 12262
" />
<path d="M1974 15100
L1974 16757
" />
<path d="M1974 16757
L3163 16757
" />
<path d="M3163 16757
L3163 15100
" />
<path d="M18989 15247
L19549 15247
" />
<path d="M18989 14531
L19549 14531
" />
<path d="M16792 3189
L16792 528
" />
<path d="M16792 528
L15446 528
" />
<path d="M15446 528
L15446 3189
" />
<path d="M12032 2329
L15205 2329
" />
<path d="M15205 2329
L15205 549
" />
<path d="M15205 549
L12032 549
" />
<path d="M11146 2659
L11146 5320
" />
<path d="M12492 2659
L11146 2659
" />
<path d="M12492 5320
L12492 2659
" />
<path d="M11093 4050
L11093 876
" />
<path d="M8644 4050
L11093 4050
" />
<path d="M8644 876
L8644 4050
" />
<path d="M2789 5381
L3349 5381
" />
<path d="M2789 6097
L3349 6097
" />
<path d="M27006 64
L23833 64
" />
<path d="M23833 64
L23833 2513
" />
<path d="M23833 2513
L27006 2513
" />
<path d="M23795 4733
L25452 4733
" />
<path d="M23795 3544
L23795 4733
" />
<path d="M25452 3544
L23795 3544
" />
<path d="M21927 3474
L21927 4034
" />
<path d="M21211 3474
L21211 4034
" />
<path d="M23332 16192
L21734 16192
" />
<path d="M21734 16192
L21734 17086
" />
<path d="M21734 17086
L23332 17086
" />
<path d="M27537 16192
L25939 16192
" />
<path d="M27537 17086
L27537 16192
" />
<path d="M25939 17086
L27537 17086
" />
<path d="M23988 17086
L25586 17086
" />
<path d="M25586 17086
L25586 16192
" />
<path d="M25586 16192
L23988 16192
" />
<path d="M20392 12615
L20392 13139
" />
<path d="M19869 12615
L20392 12615
" />
<path d="M19369 12615
L19369 13662
" />
<path d="M19369 13662
L16345 13662
" />
<path d="M19369 12615
L16345 12615
" />
<path d="M16345 12615
L16345 13662
" />
<path d="M22383 15847
L22955 15847
" />
<path d="M22383 15131
L22955 15131
" />
<path d="M24333 15131
L24905 15131
" />
<path d="M24333 15847
L24905 15847
" />
<path d="M21399 16192
L19800 16192
" />
<path d="M19800 16192
L19800 17086
" />
<path d="M19800 17086
L21399 17086
" />
<path d="M11142 10465
L10095 10465
" />
<path d="M11142 11489
L11142 10465
" />
<path d="M10095 11489
L10095 10465
" />
<path d="M11142 11489
L10095 11489
" />
<path d="M11142 11989
L11142 12512
" />
<path d="M11142 12512
L10619 12512
" />
<path d="M16848 15757
L16848 15666
" />
<path d="M17053 17202
L14013 17202
" />
<path d="M14013 17202
L14013 15666
" />
<path d="M17053 14442
L16848 14442
" />
<path d="M17053 17202
L17053 15666
" />
<path d="M14218 15757
L14218 15666
" />
<path d="M16848 14643
L16848 14442
" />
<path d="M17053 14643
L17053 14442
" />
<path d="M14431 15757
L14218 15757
" />
<path d="M14218 14643
L14218 14442
" />
<path d="M14218 14442
L14013 14442
" />
<path d="M14013 14643
L14013 14442
" />
<path d="M16848 15757
L16635 15757
" />
<path d="M16202 15757
L14864 15757
" />
</g>
<g style="fill:#008484; fill-opacity:0.0; 
stroke:#008484; stroke-width:59.0551; stroke-opacity:1; 
stroke-linecap:round; stroke-linejoin:round;">
<path d="M7016 2929
L6997 2948
L6941 2967
L6903 2967
L6847 2948
L6809 2911
L6791 2873
L6772 2798
L6772 2742
L6791 2667
L6809 2630
L6847 2592
L6903 2573
L6941 2573
L6997 2592
L7016 2611
" />
<path d="M7391 2967
L7166 2967
" />
<path d="M7278 2967
L7278 2573
L7241 2630
L7203 2667
L7166 2686
" />
<path d="M7522 2573
L7766 2573
L7634 2723
L7691 2723
L7728 2742
L7747 2761
L7766 2798
L7766 2892
L7747 2929
L7728 2948
L7691 2967
L7578 2967
L7541 2948
L7522 2929
" />
<path d="M19447 15804
L19259 15936
" />
<path d="M19447 16029
L19053 16029
L19053 15879
L19072 15842
L19091 15823
L19128 15804
L19184 15804
L19222 15823
L19241 15842
L19259 15879
L19259 16029
" />
<path d="M19091 15655
L19072 15636
L19053 15598
L19053 15505
L19072 15467
L19091 15448
L19128 15430
L19166 15430
L19222 15448
L19447 15673
L19447 15430
" />
<path d="M11397 9904
L11209 10036
" />
<path d="M11397 10129
L11003 10129
L11003 9979
L11022 9942
L11041 9923
L11078 9904
L11134 9904
L11172 9923
L11191 9942
L11209 9979
L11209 10129
" />
<path d="M11003 9773
L11003 9530
L11153 9661
L11153 9605
L11172 9567
L11191 9548
L11228 9530
L11322 9530
L11359 9548
L11378 9567
L11397 9605
L11397 9717
L11378 9755
L11359 9773
" />
<path d="M15647 14054
L15459 14186
" />
<path d="M15647 14279
L15253 14279
L15253 14129
L15272 14092
L15291 14073
L15328 14054
L15384 14054
L15422 14073
L15441 14092
L15459 14129
L15459 14279
" />
<path d="M15384 13717
L15647 13717
" />
<path d="M15234 13811
L15516 13905
L15516 13661
" />
<path d="M6247 15654
L6059 15786
" />
<path d="M6247 15879
L5853 15879
L5853 15729
L5872 15692
L5891 15673
L5928 15654
L5984 15654
L6022 15673
L6041 15692
L6059 15729
L6059 15879
" />
<path d="M5853 15298
L5853 15486
L6041 15505
L6022 15486
L6003 15448
L6003 15355
L6022 15317
L6041 15298
L6078 15280
L6172 15280
L6209 15298
L6228 15317
L6247 15355
L6247 15448
L6228 15486
L6209 15505
" />
<path d="M4297 15604
L4109 15736
" />
<path d="M4297 15829
L3903 15829
L3903 15679
L3922 15642
L3941 15623
L3978 15604
L4034 15604
L4072 15623
L4091 15642
L4109 15679
L4109 15829
" />
<path d="M3903 15267
L3903 15342
L3922 15380
L3941 15398
L3997 15436
L4072 15455
L4222 15455
L4259 15436
L4278 15417
L4297 15380
L4297 15305
L4278 15267
L4259 15248
L4222 15230
L4128 15230
L4091 15248
L4072 15267
L4053 15305
L4053 15380
L4072 15417
L4091 15436
L4128 15455
" />
<path d="M6097 7204
L5909 7336
" />
<path d="M6097 7429
L5703 7429
L5703 7279
L5722 7242
L5741 7223
L5778 7204
L5834 7204
L5872 7223
L5891 7242
L5909 7279
L5909 7429
" />
<path d="M5703 7073
L5703 6811
L6097 6980
" />
<path d="M8216 10367
L8084 10179
" />
<path d="M7991 10367
L7991 9973
L8141 9973
L8178 9992
L8197 10011
L8216 10048
L8216 10105
L8197 10142
L8178 10161
L8141 10179
L7991 10179
" />
<path d="M8591 10367
L8366 10367
" />
<path d="M8478 10367
L8478 9973
L8441 10030
L8403 10067
L8366 10086
" />
<path d="M8947 9973
L8759 9973
L8741 10161
L8759 10142
L8797 10123
L8891 10123
L8928 10142
L8947 10161
L8966 10198
L8966 10292
L8947 10329
L8928 10348
L8891 10367
L8797 10367
L8759 10348
L8741 10329
" />
<path d="M20747 942
L20559 1073
" />
<path d="M20747 1167
L20353 1167
L20353 1017
L20372 979
L20391 961
L20428 942
L20484 942
L20522 961
L20541 979
L20559 1017
L20559 1167
" />
<path d="M20391 792
L20372 773
L20353 736
L20353 642
L20372 605
L20391 586
L20428 567
L20466 567
L20522 586
L20747 811
L20747 567
" />
<path d="M20353 323
L20353 286
L20372 248
L20391 230
L20428 211
L20503 192
L20597 192
L20672 211
L20709 230
L20728 248
L20747 286
L20747 323
L20728 361
L20709 380
L20672 398
L20597 417
L20503 417
L20428 398
L20391 380
L20372 361
L20353 323
" />
<path d="M24966 13367
L24834 13179
" />
<path d="M24741 13367
L24741 12973
L24891 12973
L24928 12992
L24947 13011
L24966 13048
L24966 13105
L24947 13142
L24928 13161
L24891 13179
L24741 13179
" />
<path d="M25116 13011
L25134 12992
L25172 12973
L25266 12973
L25303 12992
L25322 13011
L25341 13048
L25341 13086
L25322 13142
L25097 13367
L25341 13367
" />
<path d="M25491 13011
L25509 12992
L25547 12973
L25641 12973
L25678 12992
L25697 13011
L25716 13048
L25716 13086
L25697 13142
L25472 13367
L25716 13367
" />
<path d="M13447 10154
L13259 10286
" />
<path d="M13447 10379
L13053 10379
L13053 10229
L13072 10192
L13091 10173
L13128 10154
L13184 10154
L13222 10173
L13241 10192
L13259 10229
L13259 10379
" />
<path d="M13447 9780
L13447 10005
" />
<path d="M13447 9892
L13053 9892
L13109 9930
L13147 9967
L13166 10005
" />
<path d="M4475 1046
L4438 1027
L4400 990
L4344 934
L4306 915
L4269 915
" />
<path d="M4288 1009
L4250 990
L4213 952
L4194 877
L4194 746
L4213 671
L4250 634
L4288 615
L4363 615
L4400 634
L4438 671
L4456 746
L4456 877
L4438 952
L4400 990
L4363 1009
L4288 1009
" />
<path d="M4831 1009
L4606 1009
" />
<path d="M4719 1009
L4719 615
L4681 671
L4644 709
L4606 727
" />
<path d="M2647 1902
L2459 2033
" />
<path d="M2647 2127
L2253 2127
L2253 1977
L2272 1940
L2291 1921
L2328 1902
L2384 1902
L2422 1921
L2441 1940
L2459 1977
L2459 2127
" />
<path d="M2647 1527
L2647 1752
" />
<path d="M2647 1640
L2253 1640
L2309 1677
L2347 1715
L2366 1752
" />
<path d="M2253 1396
L2253 1152
L2403 1284
L2403 1227
L2422 1190
L2441 1171
L2478 1152
L2572 1152
L2609 1171
L2628 1190
L2647 1227
L2647 1340
L2628 1377
L2609 1396
" />
<path d="M20334 1700
L20203 1513
" />
<path d="M20109 1700
L20109 1307
L20259 1307
L20296 1325
L20315 1344
L20334 1382
L20334 1438
L20315 1475
L20296 1494
L20259 1513
L20109 1513
" />
<path d="M20709 1700
L20484 1700
" />
<path d="M20596 1700
L20596 1307
L20559 1363
L20521 1400
L20484 1419
" />
<path d="M21046 1438
L21046 1700
" />
<path d="M20953 1288
L20859 1569
L21103 1569
" />
<path d="M4247 16929
L3853 16929
L3853 16836
L3872 16779
L3909 16742
L3947 16723
L4022 16704
L4078 16704
L4153 16723
L4191 16742
L4228 16779
L4247 16836
L4247 16929
" />
<path d="M3891 16555
L3872 16536
L3853 16498
L3853 16405
L3872 16367
L3891 16348
L3928 16330
L3966 16330
L4022 16348
L4247 16573
L4247 16330
" />
<path d="M6197 16929
L5803 16929
L5803 16836
L5822 16779
L5859 16742
L5897 16723
L5972 16704
L6028 16704
L6103 16723
L6141 16742
L6178 16779
L6197 16836
L6197 16929
" />
<path d="M5803 16573
L5803 16330
L5953 16461
L5953 16405
L5972 16367
L5991 16348
L6028 16330
L6122 16330
L6159 16348
L6178 16367
L6197 16405
L6197 16517
L6178 16555
L6159 16573
" />
<path d="M18347 16929
L17953 16929
L17953 16836
L17972 16779
L18009 16742
L18047 16723
L18122 16704
L18178 16704
L18253 16723
L18291 16742
L18328 16779
L18347 16836
L18347 16929
" />
<path d="M18084 16367
L18347 16367
" />
<path d="M17934 16461
L18216 16555
L18216 16311
" />
<path d="M13403 5867
L13684 5867
L13741 5886
L13778 5923
L13797 5979
L13797 6017
" />
<path d="M13797 5679
L13403 5679
L13403 5529
L13422 5492
L13441 5473
L13478 5455
L13534 5455
L13572 5473
L13591 5492
L13609 5529
L13609 5679
" />
<path d="M13797 5080
L13797 5305
" />
<path d="M13797 5192
L13403 5192
L13459 5230
L13497 5267
L13516 5305
" />
<path d="M5903 5979
L5884 5998
L5828 6017
L5791 6017
L5734 5998
L5697 5961
L5678 5923
L5659 5848
L5659 5792
L5678 5717
L5697 5680
L5734 5642
L5791 5623
L5828 5623
L5884 5642
L5903 5661
" />
<path d="M6278 6017
L6053 6017
" />
<path d="M6166 6017
L6166 5623
L6128 5680
L6091 5717
L6053 5736
" />
<path d="M18488 1651
L18469 1670
L18413 1689
L18376 1689
L18319 1670
L18282 1632
L18263 1595
L18244 1520
L18244 1464
L18263 1389
L18282 1351
L18319 1314
L18376 1295
L18413 1295
L18469 1314
L18488 1332
" />
<path d="M18825 1295
L18750 1295
L18713 1314
L18694 1332
L18657 1389
L18638 1464
L18638 1614
L18657 1651
L18675 1670
L18713 1689
L18788 1689
L18825 1670
L18844 1651
L18863 1614
L18863 1520
L18844 1482
L18825 1464
L18788 1445
L18713 1445
L18675 1464
L18657 1482
L18638 1520
" />
<path d="M7066 579
L7047 598
L6991 617
L6953 617
L6897 598
L6859 561
L6841 523
L6822 448
L6822 392
L6841 317
L6859 280
L6897 242
L6953 223
L6991 223
L7047 242
L7066 261
" />
<path d="M7441 617
L7216 617
" />
<path d="M7328 617
L7328 223
L7291 280
L7253 317
L7216 336
" />
<path d="M7591 261
L7609 242
L7647 223
L7741 223
L7778 242
L7797 261
L7816 298
L7816 336
L7797 392
L7572 617
L7816 617
" />
<path d="M22659 942
L22678 961
L22697 1017
L22697 1054
L22678 1111
L22641 1148
L22603 1167
L22528 1186
L22472 1186
L22397 1167
L22359 1148
L22322 1111
L22303 1054
L22303 1017
L22322 961
L22341 942
" />
<path d="M22697 567
L22697 792
" />
<path d="M22697 679
L22303 679
L22359 717
L22397 754
L22416 792
" />
<path d="M22434 230
L22697 230
" />
<path d="M22284 323
L22566 417
L22566 173
" />
<path d="M14931 8079
L14537 8079
L14537 7986
L14556 7929
L14594 7892
L14631 7873
L14706 7854
L14762 7854
L14837 7873
L14875 7892
L14912 7929
L14931 7986
L14931 8079
" />
<path d="M14931 7480
L14931 7705
" />
<path d="M14931 7592
L14537 7592
L14594 7630
L14631 7667
L14650 7705
" />
<path d="M1128 4317
L1128 3923
L1222 3923
L1278 3942
L1316 3980
L1334 4017
L1353 4092
L1353 4148
L1334 4223
L1316 4261
L1278 4298
L1222 4317
L1128 4317
" />
<path d="M1709 3923
L1522 3923
L1503 4111
L1522 4092
L1559 4073
L1653 4073
L1691 4092
L1709 4111
L1728 4148
L1728 4242
L1709 4279
L1691 4298
L1653 4317
L1559 4317
L1522 4298
L1503 4279
" />
<path d="M838 10873
L838 11154
L819 11211
L781 11248
L725 11267
L688 11267
" />
<path d="M1231 11267
L1006 11267
" />
<path d="M1119 11267
L1119 10873
L1081 10930
L1044 10967
L1006 10986
" />
<path d="M3388 12023
L3388 12304
L3369 12361
L3331 12398
L3275 12417
L3238 12417
" />
<path d="M3538 12023
L3781 12023
L3650 12173
L3706 12173
L3744 12192
L3763 12211
L3781 12248
L3781 12342
L3763 12379
L3744 12398
L3706 12417
L3594 12417
L3556 12398
L3538 12379
" />
<path d="M25503 14270
L25784 14270
L25841 14289
L25878 14326
L25897 14383
L25897 14420
" />
<path d="M25634 13914
L25897 13914
" />
<path d="M25484 14008
L25766 14101
L25766 13858
" />
<path d="M17003 2617
L17284 2617
L17341 2636
L17378 2673
L17397 2729
L17397 2767
" />
<path d="M17397 2429
L17003 2429
L17003 2279
L17022 2242
L17041 2223
L17078 2205
L17134 2205
L17172 2223
L17191 2242
L17209 2279
L17209 2429
" />
<path d="M17003 2073
L17003 1830
L17153 1961
L17153 1905
L17172 1867
L17191 1848
L17228 1830
L17322 1830
L17359 1848
L17378 1867
L17397 1905
L17397 2017
L17378 2055
L17359 2073
" />
<path d="M14153 3417
L14434 3417
L14491 3436
L14528 3473
L14547 3529
L14547 3567
" />
<path d="M14547 3229
L14153 3229
L14153 3079
L14172 3042
L14191 3023
L14228 3005
L14284 3005
L14322 3023
L14341 3042
L14359 3079
L14359 3229
" />
<path d="M14284 2667
L14547 2667
" />
<path d="M14134 2761
L14416 2855
L14416 2611
" />
<path d="M6731 10739
L6694 10720
L6656 10682
L6600 10626
L6563 10607
L6525 10607
" />
<path d="M6544 10701
L6506 10682
L6469 10645
L6450 10570
L6450 10439
L6469 10364
L6506 10326
L6544 10308
L6619 10308
L6656 10326
L6694 10364
L6713 10439
L6713 10570
L6694 10645
L6656 10682
L6619 10701
L6544 10701
" />
<path d="M6863 10345
L6881 10326
L6919 10308
L7013 10308
L7050 10326
L7069 10345
L7088 10383
L7088 10420
L7069 10476
L6844 10701
L7088 10701
" />
<path d="M14781 6754
L14744 6736
L14706 6698
L14650 6642
L14613 6623
L14575 6623
" />
<path d="M14594 6717
L14556 6698
L14519 6661
L14500 6586
L14500 6455
L14519 6380
L14556 6342
L14594 6323
L14669 6323
L14706 6342
L14744 6380
L14763 6455
L14763 6586
L14744 6661
L14706 6698
L14669 6717
L14594 6717
" />
<path d="M14894 6323
L15138 6323
L15006 6473
L15063 6473
L15100 6492
L15119 6511
L15138 6548
L15138 6642
L15119 6679
L15100 6698
L15063 6717
L14950 6717
L14913 6698
L14894 6679
" />
<path d="M17547 14054
L17359 14186
" />
<path d="M17547 14279
L17153 14279
L17153 14129
L17172 14092
L17191 14073
L17228 14054
L17284 14054
L17322 14073
L17341 14092
L17359 14129
L17359 14279
" />
<path d="M17322 13830
L17303 13867
L17284 13886
L17247 13905
L17228 13905
L17191 13886
L17172 13867
L17153 13830
L17153 13755
L17172 13717
L17191 13698
L17228 13680
L17247 13680
L17284 13698
L17303 13717
L17322 13755
L17322 13830
L17341 13867
L17359 13886
L17397 13905
L17472 13905
L17509 13886
L17528 13867
L17547 13830
L17547 13755
L17528 13717
L17509 13698
L17472 13680
L17397 13680
L17359 13698
L17341 13717
L17322 13755
" />
<path d="M7603 16267
L7472 16079
" />
<path d="M7378 16267
L7378 15873
L7528 15873
L7566 15892
L7584 15911
L7603 15948
L7603 16005
L7584 16042
L7566 16061
L7528 16079
L7378 16079
" />
<path d="M7791 16267
L7866 16267
L7903 16248
L7922 16229
L7959 16173
L7978 16098
L7978 15948
L7959 15911
L7941 15892
L7903 15873
L7828 15873
L7791 15892
L7772 15911
L7753 15948
L7753 16042
L7772 16079
L7791 16098
L7828 16117
L7903 16117
L7941 16098
L7959 16079
L7978 16042
" />
<path d="M19497 13992
L19309 14123
" />
<path d="M19497 14217
L19103 14217
L19103 14067
L19122 14029
L19141 14011
L19178 13992
L19234 13992
L19272 14011
L19291 14029
L19309 14067
L19309 14217
" />
<path d="M19497 13617
L19497 13842
" />
<path d="M19497 13729
L19103 13729
L19159 13767
L19197 13804
L19216 13842
" />
<path d="M19103 13373
L19103 13336
L19122 13298
L19141 13280
L19178 13261
L19253 13242
L19347 13242
L19422 13261
L19459 13280
L19478 13298
L19497 13336
L19497 13373
L19478 13411
L19459 13430
L19422 13448
L19347 13467
L19253 13467
L19178 13448
L19141 13430
L19122 13411
L19103 13373
" />
<path d="M5897 3342
L5709 3473
" />
<path d="M5897 3567
L5503 3567
L5503 3417
L5522 3379
L5541 3361
L5578 3342
L5634 3342
L5672 3361
L5691 3379
L5709 3417
L5709 3567
" />
<path d="M5897 2967
L5897 3192
" />
<path d="M5897 3079
L5503 3079
L5559 3117
L5597 3154
L5616 3192
" />
<path d="M5897 2592
L5897 2817
" />
<path d="M5897 2705
L5503 2705
L5559 2742
L5597 2780
L5616 2817
" />
<path d="M22355 1700
L22224 1513
" />
<path d="M22130 1700
L22130 1307
L22280 1307
L22318 1325
L22337 1344
L22355 1382
L22355 1438
L22337 1475
L22318 1494
L22280 1513
L22130 1513
" />
<path d="M22730 1700
L22505 1700
" />
<path d="M22618 1700
L22618 1307
L22580 1363
L22543 1400
L22505 1419
" />
<path d="M22880 1344
L22899 1325
L22937 1307
L23030 1307
L23068 1325
L23087 1344
L23105 1382
L23105 1419
L23087 1475
L22862 1700
L23105 1700
" />
<path d="M18097 992
L17909 1123
" />
<path d="M18097 1217
L17703 1217
L17703 1067
L17722 1029
L17741 1011
L17778 992
L17834 992
L17872 1011
L17891 1029
L17909 1067
L17909 1217
" />
<path d="M18097 617
L18097 842
" />
<path d="M18097 729
L17703 729
L17759 767
L17797 804
L17816 842
" />
<path d="M17703 280
L17703 355
L17722 392
L17741 411
L17797 448
L17872 467
L18022 467
L18059 448
L18078 430
L18097 392
L18097 317
L18078 280
L18059 261
L18022 242
L17928 242
L17891 261
L17872 280
L17853 317
L17853 392
L17872 430
L17891 448
L17928 467
" />
<path d="M15716 3867
L15584 3679
" />
<path d="M15491 3867
L15491 3473
L15641 3473
L15678 3492
L15697 3511
L15716 3548
L15716 3605
L15697 3642
L15678 3661
L15641 3679
L15491 3679
" />
<path d="M16091 3867
L15866 3867
" />
<path d="M15978 3867
L15978 3473
L15941 3530
L15903 3567
L15866 3586
" />
<path d="M16222 3473
L16484 3473
L16316 3867
" />
<path d="M19047 942
L18859 1073
" />
<path d="M19047 1167
L18653 1167
L18653 1017
L18672 979
L18691 961
L18728 942
L18784 942
L18822 961
L18841 979
L18859 1017
L18859 1167
" />
<path d="M19047 567
L19047 792
" />
<path d="M19047 679
L18653 679
L18709 717
L18747 754
L18766 792
" />
<path d="M18822 342
L18803 380
L18784 398
L18747 417
L18728 417
L18691 398
L18672 380
L18653 342
L18653 267
L18672 230
L18691 211
L18728 192
L18747 192
L18784 211
L18803 230
L18822 267
L18822 342
L18841 380
L18859 398
L18897 417
L18972 417
L19009 398
L19028 380
L19047 342
L19047 267
L19028 230
L19009 211
L18972 192
L18897 192
L18859 211
L18841 230
L18822 267
" />
<path d="M19947 992
L19759 1123
" />
<path d="M19947 1217
L19553 1217
L19553 1067
L19572 1029
L19591 1011
L19628 992
L19684 992
L19722 1011
L19741 1029
L19759 1067
L19759 1217
" />
<path d="M19947 617
L19947 842
" />
<path d="M19947 729
L19553 729
L19609 767
L19647 804
L19666 842
" />
<path d="M19947 430
L19947 355
L19928 317
L19909 298
L19853 261
L19778 242
L19628 242
L19591 261
L19572 280
L19553 317
L19553 392
L19572 430
L19591 448
L19628 467
L19722 467
L19759 448
L19778 430
L19797 392
L19797 317
L19778 280
L19759 261
L19722 242
" />
<path d="M23447 892
L23259 1023
" />
<path d="M23447 1117
L23053 1117
L23053 967
L23072 929
L23091 911
L23128 892
L23184 892
L23222 911
L23241 929
L23259 967
L23259 1117
" />
<path d="M23091 742
L23072 723
L23053 686
L23053 592
L23072 555
L23091 536
L23128 517
L23166 517
L23222 536
L23447 761
L23447 517
" />
<path d="M23447 142
L23447 367
" />
<path d="M23447 255
L23053 255
L23109 292
L23147 330
L23166 367
" />
<path d="M20897 13442
L20709 13573
" />
<path d="M20897 13667
L20503 13667
L20503 13517
L20522 13479
L20541 13461
L20578 13442
L20634 13442
L20672 13461
L20691 13479
L20709 13517
L20709 13667
" />
<path d="M20541 13292
L20522 13273
L20503 13236
L20503 13142
L20522 13105
L20541 13086
L20578 13067
L20616 13067
L20672 13086
L20897 13311
L20897 13067
" />
<path d="M20503 12936
L20503 12692
L20653 12823
L20653 12767
L20672 12730
L20691 12711
L20728 12692
L20822 12692
L20859 12711
L20878 12730
L20897 12767
L20897 12880
L20878 12917
L20859 12936
" />
<path d="M9544 15048
L9600 15067
L9694 15067
L9731 15048
L9750 15029
L9769 14992
L9769 14954
L9750 14917
L9731 14898
L9694 14879
L9619 14861
L9581 14842
L9563 14823
L9544 14786
L9544 14748
L9563 14711
L9581 14692
L9619 14673
L9713 14673
L9769 14692
" />
<path d="M9900 14673
L9994 15067
L10069 14786
L10144 15067
L10238 14673
" />
<path d="M10594 15067
L10369 15067
" />
<path d="M10481 15067
L10481 14673
L10444 14730
L10406 14767
L10369 14786
" />
<path d="M27128 15464
L27147 15408
L27147 15314
L27128 15276
L27109 15258
L27072 15239
L27034 15239
L26997 15258
L26978 15276
L26959 15314
L26941 15389
L26922 15426
L26903 15445
L26866 15464
L26828 15464
L26791 15445
L26772 15426
L26753 15389
L26753 15295
L26772 15239
" />
<path d="M26753 15108
L27147 15014
L26866 14939
L27147 14864
L26753 14770
" />
<path d="M26791 14639
L26772 14620
L26753 14583
L26753 14489
L26772 14451
L26791 14433
L26828 14414
L26866 14414
L26922 14433
L27147 14658
L27147 14414
" />
<path d="M14322 9087
L14547 9087
" />
<path d="M14434 9480
L14434 9087
" />
<path d="M14678 9480
L14678 9087
L14828 9087
L14866 9105
L14884 9124
L14903 9162
L14903 9218
L14884 9255
L14866 9274
L14828 9293
L14678 9293
" />
<path d="M15278 9480
L15053 9480
" />
<path d="M15166 9480
L15166 9087
L15128 9143
L15091 9180
L15053 9199
" />
<path d="M8369 6085
L8369 6403
L8388 6441
L8406 6460
L8444 6478
L8519 6478
L8556 6460
L8575 6441
L8594 6403
L8594 6085
" />
<path d="M8988 6478
L8763 6478
" />
<path d="M8875 6478
L8875 6085
L8838 6141
L8800 6178
L8763 6197
" />
<path d="M5669 12523
L5669 12842
L5688 12879
L5706 12898
L5744 12917
L5819 12917
L5856 12898
L5875 12879
L5894 12842
L5894 12523
" />
<path d="M6063 12561
L6081 12542
L6119 12523
L6213 12523
L6250 12542
L6269 12561
L6288 12598
L6288 12636
L6269 12692
L6044 12917
L6288 12917
" />
<path d="M13119 2928
L13119 3247
L13138 3285
L13156 3303
L13194 3322
L13269 3322
L13306 3303
L13325 3285
L13344 3247
L13344 2928
" />
<path d="M13494 2928
L13738 2928
L13606 3078
L13663 3078
L13700 3097
L13719 3116
L13738 3153
L13738 3247
L13719 3285
L13700 3303
L13663 3322
L13550 3322
L13513 3303
L13494 3285
" />
<path d="M24203 9089
L24522 9089
L24559 9070
L24578 9051
L24597 9014
L24597 8939
L24578 8901
L24559 8883
L24522 8864
L24203 8864
" />
<path d="M24203 8714
L24203 8451
L24597 8620
" />
<path d="M3172 10461
L3228 10479
L3247 10498
L3266 10536
L3266 10592
L3247 10629
L3228 10648
L3191 10667
L3041 10667
L3041 10273
L3172 10273
L3209 10292
L3228 10311
L3247 10348
L3247 10386
L3228 10423
L3209 10442
L3172 10461
L3041 10461
" />
<path d="M3397 10273
L3659 10273
L3397 10667
L3659 10667
" />
<path d="M4016 10667
L3791 10667
" />
<path d="M3903 10667
L3903 10273
L3866 10330
L3828 10367
L3791 10386
" />
<path d="M12647 7654
L12647 7842
L12253 7842
" />
<path d="M12647 7317
L12647 7542
" />
<path d="M12647 7430
L12253 7430
L12309 7467
L12347 7505
L12366 7542
" />
<path d="M9303 5579
L9284 5598
L9228 5617
L9191 5617
L9134 5598
L9097 5561
L9078 5523
L9059 5448
L9059 5392
L9078 5317
L9097 5280
L9134 5242
L9191 5223
L9228 5223
L9284 5242
L9303 5261
" />
<path d="M9453 5261
L9472 5242
L9509 5223
L9603 5223
L9641 5242
L9659 5261
L9678 5298
L9678 5336
L9659 5392
L9434 5617
L9678 5617
" />
<path d="M13103 12129
L13084 12148
L13028 12167
L12991 12167
L12934 12148
L12897 12111
L12878 12073
L12859 11998
L12859 11942
L12878 11867
L12897 11830
L12934 11792
L12991 11773
L13028 11773
L13084 11792
L13103 11811
" />
<path d="M13234 11773
L13478 11773
L13347 11923
L13403 11923
L13441 11942
L13459 11961
L13478 11998
L13478 12092
L13459 12129
L13441 12148
L13403 12167
L13291 12167
L13253 12148
L13234 12129
" />
<path d="M1784 15854
L1803 15873
L1822 15929
L1822 15967
L1803 16023
L1765 16061
L1728 16079
L1653 16098
L1597 16098
L1522 16079
L1484 16061
L1447 16023
L1428 15967
L1428 15929
L1447 15873
L1465 15854
" />
<path d="M1559 15517
L1822 15517
" />
<path d="M1409 15611
L1690 15705
L1690 15461
" />
<path d="M19409 14954
L19428 14973
L19447 15029
L19447 15067
L19428 15123
L19391 15161
L19353 15179
L19278 15198
L19222 15198
L19147 15179
L19109 15161
L19072 15123
L19053 15067
L19053 15029
L19072 14973
L19091 14954
" />
<path d="M19053 14598
L19053 14786
L19241 14805
L19222 14786
L19203 14748
L19203 14655
L19222 14617
L19241 14598
L19278 14580
L19372 14580
L19409 14598
L19428 14617
L19447 14655
L19447 14748
L19428 14786
L19409 14805
" />
<path d="M16659 2074
L16678 2093
L16697 2149
L16697 2186
L16678 2243
L16641 2280
L16603 2299
L16528 2318
L16472 2318
L16397 2299
L16359 2280
L16322 2243
L16303 2186
L16303 2149
L16322 2093
L16341 2074
" />
<path d="M16303 1943
L16303 1680
L16697 1849
" />
<path d="M13403 2029
L13384 2048
L13328 2067
L13291 2067
L13234 2048
L13197 2011
L13178 1973
L13159 1898
L13159 1842
L13178 1767
L13197 1730
L13234 1692
L13291 1673
L13328 1673
L13384 1692
L13403 1711
" />
<path d="M13628 1842
L13591 1823
L13572 1805
L13553 1767
L13553 1748
L13572 1711
L13591 1692
L13628 1673
L13703 1673
L13741 1692
L13759 1711
L13778 1748
L13778 1767
L13759 1805
L13741 1823
L13703 1842
L13628 1842
L13591 1861
L13572 1879
L13553 1917
L13553 1992
L13572 2029
L13591 2048
L13628 2067
L13703 2067
L13741 2048
L13759 2029
L13778 1992
L13778 1917
L13759 1879
L13741 1861
L13703 1842
" />
<path d="M12459 4154
L12478 4173
L12497 4229
L12497 4267
L12478 4323
L12441 4361
L12403 4379
L12328 4398
L12272 4398
L12197 4379
L12159 4361
L12122 4323
L12103 4267
L12103 4229
L12122 4173
L12141 4154
" />
<path d="M12497 3967
L12497 3892
L12478 3855
L12459 3836
L12403 3798
L12328 3780
L12178 3780
L12141 3798
L12122 3817
L12103 3855
L12103 3930
L12122 3967
L12141 3986
L12178 4005
L12272 4005
L12309 3986
L12328 3967
L12347 3930
L12347 3855
L12328 3817
L12309 3798
L12272 3780
" />
<path d="M10859 2642
L10878 2661
L10897 2717
L10897 2754
L10878 2811
L10841 2848
L10803 2867
L10728 2886
L10672 2886
L10597 2867
L10559 2848
L10522 2811
L10503 2754
L10503 2717
L10522 2661
L10541 2642
" />
<path d="M10897 2267
L10897 2492
" />
<path d="M10897 2379
L10503 2379
L10559 2417
L10597 2454
L10616 2492
" />
<path d="M10503 2023
L10503 1986
L10522 1948
L10541 1930
L10578 1911
L10653 1892
L10747 1892
L10822 1911
L10859 1930
L10878 1948
L10897 1986
L10897 2023
L10878 2061
L10859 2080
L10822 2098
L10747 2117
L10653 2117
L10578 2098
L10541 2080
L10522 2061
L10503 2023
" />
<path d="M2816 5151
L2797 5170
L2741 5189
L2703 5189
L2647 5170
L2609 5132
L2591 5095
L2572 5020
L2572 4964
L2591 4889
L2609 4851
L2647 4814
L2703 4795
L2741 4795
L2797 4814
L2816 4832
" />
<path d="M3191 5189
L2966 5189
" />
<path d="M3078 5189
L3078 4795
L3041 4851
L3003 4889
L2966 4907
" />
<path d="M3566 5189
L3341 5189
" />
<path d="M3453 5189
L3453 4795
L3416 4851
L3378 4889
L3341 4907
" />
<path d="M25216 2329
L25197 2348
L25141 2367
L25103 2367
L25047 2348
L25009 2311
L24991 2273
L24972 2198
L24972 2142
L24991 2067
L25009 2030
L25047 1992
L25103 1973
L25141 1973
L25197 1992
L25216 2011
" />
<path d="M25591 2367
L25366 2367
" />
<path d="M25478 2367
L25478 1973
L25441 2030
L25403 2067
L25366 2086
" />
<path d="M25947 1973
L25759 1973
L25741 2161
L25759 2142
L25797 2123
L25891 2123
L25928 2142
L25947 2161
L25966 2198
L25966 2292
L25947 2329
L25928 2348
L25891 2367
L25797 2367
L25759 2348
L25741 2329
" />
<path d="M26109 4342
L26128 4361
L26147 4417
L26147 4454
L26128 4511
L26091 4548
L26053 4567
L25978 4586
L25922 4586
L25847 4567
L25809 4548
L25772 4511
L25753 4454
L25753 4417
L25772 4361
L25791 4342
" />
<path d="M26147 3967
L26147 4192
" />
<path d="M26147 4079
L25753 4079
L25809 4117
L25847 4154
L25866 4192
" />
<path d="M25753 3630
L25753 3705
L25772 3742
L25791 3761
L25847 3798
L25922 3817
L26072 3817
L26109 3798
L26128 3780
L26147 3742
L26147 3667
L26128 3630
L26109 3611
L26072 3592
L25978 3592
L25941 3611
L25922 3630
L25903 3667
L25903 3742
L25922 3780
L25941 3798
L25978 3817
" />
<path d="M21709 942
L21728 961
L21747 1017
L21747 1054
L21728 1111
L21691 1148
L21653 1167
L21578 1186
L21522 1186
L21447 1167
L21409 1148
L21372 1111
L21353 1054
L21353 1017
L21372 961
L21391 942
" />
<path d="M21747 567
L21747 792
" />
<path d="M21747 679
L21353 679
L21409 717
L21447 754
L21466 792
" />
<path d="M21353 436
L21353 173
L21747 342
" />
<path d="M22880 16929
L22487 16929
L22487 16836
L22505 16779
L22543 16742
L22580 16723
L22655 16704
L22711 16704
L22786 16723
L22824 16742
L22861 16779
L22880 16836
L22880 16929
" />
<path d="M22487 16367
L22487 16442
L22505 16480
L22524 16498
L22580 16536
L22655 16555
L22805 16555
L22843 16536
L22861 16517
L22880 16480
L22880 16405
L22861 16367
L22843 16348
L22805 16330
L22711 16330
L22674 16348
L22655 16367
L22637 16405
L22637 16480
L22655 16517
L22674 16536
L22711 16555
" />
<path d="M26747 16979
L26353 16979
L26353 16886
L26372 16829
L26409 16792
L26447 16773
L26522 16754
L26578 16754
L26653 16773
L26691 16792
L26728 16829
L26747 16886
L26747 16979
" />
<path d="M26353 16623
L26353 16361
L26747 16530
" />
<path d="M24847 16929
L24453 16929
L24453 16836
L24472 16779
L24509 16742
L24547 16723
L24622 16704
L24678 16704
L24753 16723
L24791 16742
L24828 16779
L24847 16836
L24847 16929
" />
<path d="M24622 16480
L24603 16517
L24584 16536
L24547 16555
L24528 16555
L24491 16536
L24472 16517
L24453 16480
L24453 16405
L24472 16367
L24491 16348
L24528 16330
L24547 16330
L24584 16348
L24603 16367
L24622 16405
L24622 16480
L24641 16517
L24659 16536
L24697 16555
L24772 16555
L24809 16536
L24828 16517
L24847 16480
L24847 16405
L24828 16367
L24809 16348
L24772 16330
L24697 16330
L24659 16348
L24641 16367
L24622 16405
" />
<path d="M15888 12723
L15888 13004
L15869 13061
L15831 13098
L15775 13117
L15738 13117
" />
<path d="M16244 12723
L16169 12723
L16131 12742
L16113 12761
L16075 12817
L16056 12892
L16056 13042
L16075 13079
L16094 13098
L16131 13117
L16206 13117
L16244 13098
L16263 13079
L16281 13042
L16281 12948
L16263 12911
L16244 12892
L16206 12873
L16131 12873
L16094 12892
L16075 12911
L16056 12948
" />
<path d="M20916 15667
L20784 15479
" />
<path d="M20691 15667
L20691 15273
L20841 15273
L20878 15292
L20897 15311
L20916 15348
L20916 15405
L20897 15442
L20878 15461
L20841 15479
L20691 15479
" />
<path d="M21066 15311
L21084 15292
L21122 15273
L21216 15273
L21253 15292
L21272 15311
L21291 15348
L21291 15386
L21272 15442
L21047 15667
L21291 15667
" />
<path d="M21478 15667
L21553 15667
L21591 15648
L21609 15629
L21647 15573
L21666 15498
L21666 15348
L21647 15311
L21628 15292
L21591 15273
L21516 15273
L21478 15292
L21459 15311
L21441 15348
L21441 15442
L21459 15479
L21478 15498
L21516 15517
L21591 15517
L21628 15498
L21647 15479
L21666 15442
" />
<path d="M25997 15442
L25809 15573
" />
<path d="M25997 15667
L25603 15667
L25603 15517
L25622 15479
L25641 15461
L25678 15442
L25734 15442
L25772 15461
L25791 15479
L25809 15517
L25809 15667
" />
<path d="M25603 15311
L25603 15067
L25753 15198
L25753 15142
L25772 15105
L25791 15086
L25828 15067
L25922 15067
L25959 15086
L25978 15105
L25997 15142
L25997 15254
L25978 15292
L25959 15311
" />
<path d="M25603 14823
L25603 14786
L25622 14748
L25641 14730
L25678 14711
L25753 14692
L25847 14692
L25922 14711
L25959 14730
L25978 14748
L25997 14786
L25997 14823
L25978 14861
L25959 14880
L25922 14898
L25847 14917
L25753 14917
L25678 14898
L25641 14880
L25622 14861
L25603 14823
" />
<path d="M20947 16929
L20553 16929
L20553 16836
L20572 16779
L20609 16742
L20647 16723
L20722 16704
L20778 16704
L20853 16723
L20891 16742
L20928 16779
L20947 16836
L20947 16929
" />
<path d="M20947 16517
L20947 16442
L20928 16405
L20909 16386
L20853 16348
L20778 16330
L20628 16330
L20591 16348
L20572 16367
L20553 16405
L20553 16480
L20572 16517
L20591 16536
L20628 16555
L20722 16555
L20759 16536
L20778 16517
L20797 16480
L20797 16405
L20778 16367
L20759 16348
L20722 16330
" />
<path d="M10488 12691
L10488 12972
L10469 13028
L10431 13066
L10375 13084
L10338 13084
" />
<path d="M10656 12728
L10675 12709
L10713 12691
L10806 12691
L10844 12709
L10863 12728
L10881 12766
L10881 12803
L10863 12859
L10638 13084
L10881 13084
" />
<path d="M15008 15637
L15064 15656
L15158 15656
L15196 15637
L15214 15618
L15233 15581
L15233 15543
L15214 15506
L15196 15487
L15158 15468
L15083 15449
L15046 15431
L15027 15412
L15008 15374
L15008 15337
L15027 15299
L15046 15281
L15083 15262
L15177 15262
L15233 15281
" />
<path d="M15364 15262
L15458 15656
L15533 15374
L15608 15656
L15702 15262
" />
<path d="M15814 15262
L16058 15262
L15927 15412
L15983 15412
L16020 15431
L16039 15449
L16058 15487
L16058 15581
L16039 15618
L16020 15637
L15983 15656
L15870 15656
L15833 15637
L15814 15618
" />
</g>
<g style="fill:#000000; fill-opacity:0.0; 
stroke:#000000; stroke-width:59.0551; stroke-opacity:1; 
stroke-linecap:round; stroke-linejoin:round;">
</g>
<g style="fill:#C2C200; fill-opacity:0.0; 
stroke:#C2C200; stroke-width:59.0551; stroke-opacity:1; 
stroke-linecap:round; stroke-linejoin:round;">
<path d="M369 889
L369 16589
" />
<path d="M26919 89
L1119 89
" />
<path d="M27669 5089
L27669 839
" />
<path d="M27669 16589
L27669 12389
" />
<path d="M13969 17339
L26919 17339
" />
<path d="M13619 15689
L13619 16989
" />
<path d="M8419 16989
L8419 15689
" />
<path d="M1119 17339
L8069 17339
" />
<path d="M13619.3 16989.4 A350 350 0.0 0 0 13969.3 17339.4 " />
<path d="M8069.29 17339.4 A350 350 0.0 0 0 8419.29 16989.4 " />
<path d="M1119.29 89.3705 A750 750 0.0 0 0 370.953 889.26 " />
<path d="M369.292 16589.4 A750 750 0.0 0 0 1119.29 17339.4 " />
<path d="M26919.3 17339.4 A750 750 0.0 0 0 27669.3 16589.4 " />
<path d="M27669.3 839.37 A750 750 0.0 0 0 26919.3 89.3705 " />
<path d="M8419 15689
L13619 15689
" />
<path d="M25419 5089
L27669 5089
" />
<path d="M25419 12389
L25419 5089
" />
<path d="M27669 12389
L25419 12389
" />
</g> 
</svg>
