<?xml version="1.0" standalone="no"?>
 <!DOCTYPE svg PUBLIC "-//W3C//DTD SVG 1.1//EN" 
 "http://www.w3.org/Graphics/SVG/1.1/DTD/svg11.dtd"> 
<svg xmlns="http://www.w3.org/2000/svg" version="1.1" 
    width="7.07898cm" height="5.15874cm" viewBox="0 0 27870 20310 ">
<title>SVG Picture created as PETT_BSF-B.SilkS.svg date 2023/05/28 22:50:15 </title>
  <desc>Picture generated by PCBNEW </desc>
<g style="fill:#000000; fill-opacity:1;stroke:#000000; stroke-opacity:1;
stroke-linecap:round; stroke-linejoin:round; "
 transform="translate(0 0) scale(1 1)">
</g>
<g style="fill:#000000; fill-opacity:0.0; 
stroke:#000000; stroke-width:-0.000393701; stroke-opacity:1; 
stroke-linecap:round; stroke-linejoin:round;">
</g>
<g style="fill:#840084; fill-opacity:0.0; 
stroke:#840084; stroke-width:-0.000393701; stroke-opacity:1; 
stroke-linecap:round; stroke-linejoin:round;">
</g>
<g style="fill:#840084; fill-opacity:0.0; 
stroke:#840084; stroke-width:118.11; stroke-opacity:1; 
stroke-linecap:round; stroke-linejoin:round;">
<path d="M11752 5688
L11780 5772
L11780 5913
L11752 5969
L11724 5997
L11668 6025
L11611 6025
L11555 5997
L11527 5969
L11499 5913
L11471 5800
L11443 5744
L11414 5716
L11358 5688
L11302 5688
L11246 5716
L11218 5744
L11189 5800
L11189 5941
L11218 6025
" />
<path d="M11386 6222
L11780 6363
" />
<path d="M11386 6503
L11780 6363
L11921 6306
L11949 6278
L11977 6222
" />
<path d="M11752 6700
L11780 6756
L11780 6869
L11752 6925
L11696 6953
L11668 6953
L11611 6925
L11583 6869
L11583 6784
L11555 6728
L11499 6700
L11471 6700
L11414 6728
L11386 6784
L11386 6869
L11414 6925
" />
<path d="M11386 7122
L11386 7347
" />
<path d="M11189 7206
L11696 7206
L11752 7234
L11780 7291
L11780 7347
" />
<path d="M11752 7769
L11780 7712
L11780 7600
L11752 7544
L11696 7516
L11471 7516
L11414 7544
L11386 7600
L11386 7712
L11414 7769
L11471 7797
L11527 7797
L11583 7516
" />
<path d="M11780 8050
L11386 8050
" />
<path d="M11443 8050
L11414 8078
L11386 8134
L11386 8219
L11414 8275
L11471 8303
L11780 8303
" />
<path d="M11471 8303
L11414 8331
L11386 8387
L11386 8472
L11414 8528
L11471 8556
L11780 8556
" />
<path d="M11189 9203
L11189 9540
" />
<path d="M11780 9372
L11189 9372
" />
<path d="M11780 9737
L11386 9737
" />
<path d="M11499 9737
L11443 9765
L11414 9793
L11386 9850
L11386 9906
" />
<path d="M11780 10356
L11471 10356
L11414 10328
L11386 10272
L11386 10159
L11414 10103
" />
<path d="M11752 10356
L11780 10300
L11780 10159
L11752 10103
L11696 10075
L11639 10075
L11583 10103
L11555 10159
L11555 10300
L11527 10356
" />
<path d="M11752 10890
L11780 10834
L11780 10721
L11752 10665
L11724 10637
L11668 10609
L11499 10609
L11443 10637
L11414 10665
L11386 10721
L11386 10834
L11414 10890
" />
<path d="M11780 11143
L11189 11143
" />
<path d="M11555 11200
L11780 11368
" />
<path d="M11386 11368
L11611 11143
" />
<path d="M11752 11846
L11780 11790
L11780 11678
L11752 11621
L11696 11593
L11471 11593
L11414 11621
L11386 11678
L11386 11790
L11414 11846
L11471 11874
L11527 11874
L11583 11593
" />
<path d="M11780 12128
L11386 12128
" />
<path d="M11499 12128
L11443 12156
L11414 12184
L11386 12240
L11386 12296
" />
<path d="M12193 8289
L12784 8486
L12193 8683
" />
<path d="M12250 8851
L12222 8880
L12193 8936
L12193 9076
L12222 9133
L12250 9161
L12306 9189
L12362 9189
L12447 9161
L12784 8823
L12784 9189
" />
<path d="M12728 9442
L12756 9470
L12784 9442
L12756 9414
L12728 9442
L12784 9442
" />
<path d="M12784 10033
L12784 9695
" />
<path d="M12784 9864
L12193 9864
L12278 9808
L12334 9751
L12362 9695
" />
<path d="M13479 6025
L13507 6110
L13535 6138
L13591 6166
L13675 6166
L13732 6138
L13760 6110
L13788 6053
L13788 5828
L13197 5828
L13197 6025
L13225 6081
L13254 6110
L13310 6138
L13366 6138
L13422 6110
L13450 6081
L13479 6025
L13479 5828
" />
<path d="M13760 6391
L13788 6475
L13788 6616
L13760 6672
L13732 6700
L13675 6728
L13619 6728
L13563 6700
L13535 6672
L13507 6616
L13479 6503
L13450 6447
L13422 6419
L13366 6391
L13310 6391
L13254 6419
L13225 6447
L13197 6503
L13197 6644
L13225 6728
" />
<path d="M13479 7178
L13479 6981
" />
<path d="M13788 6981
L13197 6981
L13197 7263
" />
<path d="M13732 8275
L13760 8247
L13788 8162
L13788 8106
L13760 8022
L13704 7966
L13647 7937
L13535 7909
L13450 7909
L13338 7937
L13282 7966
L13225 8022
L13197 8106
L13197 8162
L13225 8247
L13254 8275
" />
<path d="M13788 8612
L13760 8556
L13732 8528
L13675 8500
L13507 8500
L13450 8528
L13422 8556
L13394 8612
L13394 8697
L13422 8753
L13450 8781
L13507 8809
L13675 8809
L13732 8781
L13760 8753
L13788 8697
L13788 8612
" />
<path d="M13394 9062
L13788 9062
" />
<path d="M13450 9062
L13422 9090
L13394 9147
L13394 9231
L13422 9287
L13479 9315
L13788 9315
" />
<path d="M13760 9850
L13788 9793
L13788 9681
L13760 9625
L13732 9597
L13675 9569
L13507 9569
L13450 9597
L13422 9625
L13394 9681
L13394 9793
L13422 9850
" />
<path d="M13760 10328
L13788 10272
L13788 10159
L13760 10103
L13704 10075
L13479 10075
L13422 10103
L13394 10159
L13394 10272
L13422 10328
L13479 10356
L13535 10356
L13591 10075
" />
<path d="M13394 10609
L13985 10609
" />
<path d="M13422 10609
L13394 10665
L13394 10778
L13422 10834
L13450 10862
L13507 10890
L13675 10890
L13732 10862
L13760 10834
L13788 10778
L13788 10665
L13760 10609
" />
<path d="M13394 11059
L13394 11284
" />
<path d="M13197 11143
L13704 11143
L13760 11171
L13788 11228
L13788 11284
" />
<path d="M13788 11481
L13394 11481
" />
<path d="M13197 11481
L13225 11453
L13254 11481
L13225 11509
L13197 11481
L13254 11481
" />
<path d="M13788 11846
L13760 11790
L13732 11762
L13675 11734
L13507 11734
L13450 11762
L13422 11790
L13394 11846
L13394 11931
L13422 11987
L13450 12015
L13507 12043
L13675 12043
L13732 12015
L13760 11987
L13788 11931
L13788 11846
" />
<path d="M13394 12296
L13788 12296
" />
<path d="M13450 12296
L13422 12324
L13394 12381
L13394 12465
L13422 12521
L13479 12549
L13788 12549
" />
<path d="M14567 6967
L14567 7417
" />
<path d="M14258 8120
L14229 8148
L14201 8205
L14201 8345
L14229 8401
L14258 8430
L14314 8458
L14370 8458
L14454 8430
L14792 8092
L14792 8458
" />
<path d="M14201 8823
L14201 8880
L14229 8936
L14258 8964
L14314 8992
L14426 9020
L14567 9020
L14679 8992
L14736 8964
L14764 8936
L14792 8880
L14792 8823
L14764 8767
L14736 8739
L14679 8711
L14567 8683
L14426 8683
L14314 8711
L14258 8739
L14229 8767
L14201 8823
" />
<path d="M14258 9245
L14229 9273
L14201 9329
L14201 9470
L14229 9526
L14258 9554
L14314 9583
L14370 9583
L14454 9554
L14792 9217
L14792 9583
" />
<path d="M14201 9779
L14201 10145
L14426 9948
L14426 10033
L14454 10089
L14483 10117
L14539 10145
L14679 10145
L14736 10117
L14764 10089
L14792 10033
L14792 9864
L14764 9808
L14736 9779
" />
<path d="M15017 11017
L14989 10989
L14904 10932
L14848 10904
L14764 10876
L14623 10848
L14511 10848
L14370 10876
L14286 10904
L14229 10932
L14145 10989
L14117 11017
" />
<path d="M14764 11495
L14792 11439
L14792 11326
L14764 11270
L14736 11242
L14679 11214
L14511 11214
L14454 11242
L14426 11270
L14398 11326
L14398 11439
L14426 11495
" />
<path d="M15017 11692
L14989 11720
L14904 11776
L14848 11804
L14764 11832
L14623 11860
L14511 11860
L14370 11832
L14286 11804
L14229 11776
L14145 11720
L14117 11692
" />
</g>
<g style="fill:#840084; fill-opacity:0.0; 
stroke:#840084; stroke-width:59.0551; stroke-opacity:1; 
stroke-linecap:round; stroke-linejoin:round;">
<path d="M20569 489
L15319 489
" />
<path d="M25819 489
L20569 489
" />
<path d="M25819 12239
L15319 12239
" />
<path d="M25819 12239
L25819 489
" />
<path d="M15319 489
L15319 12239
" />
<path d="M25569 11989
L15569 11989
" />
<path d="M15569 11989
L15569 2989
" />
<path d="M15569 2989
L25569 2989
" />
<path d="M25569 2989
L25569 11989
" />
<path d="M9669 12639
L469 12639
" />
<path d="M469 12639
L469 2639
" />
<path d="M469 2639
L9669 2639
" />
<path d="M9669 2639
L9669 12639
" />
<path d="M9269 3839
L9269 11539
" />
<path d="M9269 11539
L3469 11639
" />
<path d="M3469 11639
L3469 3839
" />
<path d="M3469 3839
L9269 3839
" />
<path d="M7669 4439
L7669 10839
" />
<path d="M7669 10839
L469 10839
" />
<circle cx="1169.29" cy="3339.37" r="608.276" /> 
<path d="M1669 4439
L469 5539
" />
<path d="M1669 4439
L7669 4439
" />
</g>
<g style="fill:#840084; fill-opacity:0.0; 
stroke:#840084; stroke-width:47.2441; stroke-opacity:1; 
stroke-linecap:round; stroke-linejoin:round;">
<path d="M10183 2019
L10183 3692
" />
<path d="M10183 3692
L10585 3692
" />
<path d="M10585 3692
L10585 3062
" />
<path d="M10585 3062
L11088 3062
" />
<path d="M11088 3062
L11088 4200
" />
<path d="M14955 2019
L14955 3692
" />
<path d="M14955 3692
L14553 3692
" />
<path d="M14553 3692
L14553 3062
" />
<path d="M14553 3062
L14049 3062
" />
<path d="M10860 613
L14277 613
" />
</g>
<g style="fill:#840084; fill-opacity:0.0; 
stroke:#840084; stroke-width:59.0551; stroke-opacity:1; 
stroke-linecap:round; stroke-linejoin:round;">
<path d="M18769 1973
L18769 2292
L18750 2329
L18731 2348
L18694 2367
L18619 2367
L18581 2348
L18563 2329
L18544 2292
L18544 1973
" />
<path d="M18169 1973
L18356 1973
L18375 2161
L18356 2142
L18319 2123
L18225 2123
L18188 2142
L18169 2161
L18150 2198
L18150 2292
L18169 2329
L18188 2348
L18225 2367
L18319 2367
L18356 2348
L18375 2329
" />
<path d="M21912 1173
L21687 1173
" />
<path d="M21800 1567
L21800 1173
" />
<path d="M21481 1173
L21406 1173
L21369 1192
L21331 1230
L21312 1305
L21312 1436
L21331 1511
L21369 1548
L21406 1567
L21481 1567
L21519 1548
L21556 1511
L21575 1436
L21575 1305
L21556 1230
L21519 1192
L21481 1173
" />
<path d="M21144 1567
L21144 1173
L20994 1173
L20956 1192
L20938 1211
L20919 1248
L20919 1305
L20938 1342
L20956 1361
L20994 1379
L21144 1379
" />
<path d="M20544 1192
L20581 1173
L20638 1173
L20694 1192
L20731 1230
L20750 1267
L20769 1342
L20769 1398
L20750 1473
L20731 1511
L20694 1548
L20638 1567
L20600 1567
L20544 1548
L20525 1529
L20525 1398
L20600 1398
" />
<path d="M20356 1567
L20356 1173
L20131 1567
L20131 1173
" />
<path d="M19963 1548
L19906 1567
L19813 1567
L19775 1548
L19756 1529
L19738 1492
L19738 1454
L19756 1417
L19775 1398
L19813 1379
L19888 1361
L19925 1342
L19944 1323
L19963 1286
L19963 1248
L19944 1211
L19925 1192
L19888 1173
L19794 1173
L19738 1192
" />
<path d="M19588 1548
L19531 1567
L19438 1567
L19400 1548
L19381 1529
L19363 1492
L19363 1454
L19381 1417
L19400 1398
L19438 1379
L19513 1361
L19550 1342
L19569 1323
L19588 1286
L19588 1248
L19569 1211
L19550 1192
L19513 1173
L19419 1173
L19363 1192
" />
<path d="M8353 7289
L8672 7289
L8709 7308
L8728 7326
L8747 7364
L8747 7439
L8728 7476
L8709 7495
L8672 7514
L8353 7514
" />
<path d="M8484 7870
L8747 7870
" />
<path d="M8334 7776
L8616 7683
L8616 7926
" />
<path d="M1228 7008
L1247 7064
L1247 7158
L1228 7195
L1209 7214
L1172 7233
L1134 7233
L1097 7214
L1078 7195
L1059 7158
L1041 7083
L1022 7045
L1003 7026
L966 7008
L928 7008
L891 7026
L872 7045
L853 7083
L853 7176
L872 7233
" />
<path d="M1247 7401
L853 7401
" />
<path d="M1247 7589
L853 7589
L1134 7720
L853 7851
L1247 7851
" />
<path d="M12700 4457
L12700 4738
L12719 4794
L12756 4832
L12813 4850
L12850 4850
" />
<path d="M12325 4457
L12513 4457
L12531 4644
L12513 4625
L12475 4607
L12381 4607
L12344 4625
L12325 4644
L12306 4682
L12306 4775
L12325 4813
L12344 4832
L12381 4850
L12475 4850
L12513 4832
L12531 4813
" />
</g>
<g style="fill:#000000; fill-opacity:0.0; 
stroke:#000000; stroke-width:59.0551; stroke-opacity:1; 
stroke-linecap:round; stroke-linejoin:round;">
</g>
<g style="fill:#C2C200; fill-opacity:0.0; 
stroke:#C2C200; stroke-width:59.0551; stroke-opacity:1; 
stroke-linecap:round; stroke-linejoin:round;">
<path d="M369 889
L369 16589
" />
<path d="M26919 89
L1119 89
" />
<path d="M27669 5089
L27669 839
" />
<path d="M27669 16589
L27669 12389
" />
<path d="M13969 17339
L26919 17339
" />
<path d="M13619 15689
L13619 16989
" />
<path d="M8419 16989
L8419 15689
" />
<path d="M1119 17339
L8069 17339
" />
<path d="M13619.3 16989.4 A350 350 0.0 0 0 13969.3 17339.4 " />
<path d="M8069.29 17339.4 A350 350 0.0 0 0 8419.29 16989.4 " />
<path d="M1119.29 89.3705 A750 750 0.0 0 0 370.953 889.26 " />
<path d="M369.292 16589.4 A750 750 0.0 0 0 1119.29 17339.4 " />
<path d="M26919.3 17339.4 A750 750 0.0 0 0 27669.3 16589.4 " />
<path d="M27669.3 839.37 A750 750 0.0 0 0 26919.3 89.3705 " />
<path d="M8419 15689
L13619 15689
" />
<path d="M25419 5089
L27669 5089
" />
<path d="M25419 12389
L25419 5089
" />
<path d="M27669 12389
L25419 12389
" />
</g> 
</svg>
