<?xml version="1.0" standalone="no"?>
 <!DOCTYPE svg PUBLIC "-//W3C//DTD SVG 1.1//EN" 
 "http://www.w3.org/Graphics/SVG/1.1/DTD/svg11.dtd"> 
<svg xmlns="http://www.w3.org/2000/svg" version="1.1" 
    width="7.07898cm" height="5.15874cm" viewBox="0 0 27870 20310 ">
<title>SVG Picture created as PETT_BSF-B.Mask.svg date 2023/05/28 22:50:15 </title>
  <desc>Picture generated by PCBNEW </desc>
<g style="fill:#000000; fill-opacity:1;stroke:#000000; stroke-opacity:1;
stroke-linecap:round; stroke-linejoin:round; "
 transform="translate(0 0) scale(1 1)">
</g>
<g style="fill:#000000; fill-opacity:0.0; 
stroke:#000000; stroke-width:-0.000393701; stroke-opacity:1; 
stroke-linecap:round; stroke-linejoin:round;">
</g>
<g style="fill:#848400; fill-opacity:0.0; 
stroke:#848400; stroke-width:-0.000393701; stroke-opacity:1; 
stroke-linecap:round; stroke-linejoin:round;">
</g>
<g style="fill:#848400; fill-opacity:1.0; 
stroke:#848400; stroke-width:0; stroke-opacity:1; 
stroke-linecap:round; stroke-linejoin:round;">
<polyline style="fill-rule:evenodd;"
points="1426,15807
1555,15861
1671,15938
1770,16037
1847,16153
1901,16282
1928,16419
1928,16559
1901,16696
1847,16825
1770,16941
1671,17040
1555,17117
1426,17171
1289,17198
1149,17198
1012,17171
883,17117
767,17040
668,16941
590,16825
537,16696
510,16559
510,16419
537,16282
590,16153
668,16037
767,15938
883,15861
1012,15807
1149,15780
1289,15780
1426,15807
" /> 
<polyline style="fill-rule:evenodd;"
points="16525,15788
16591,15816
16651,15856
16702,15906
16742,15966
16769,16033
16783,16103
16783,16175
16769,16245
16742,16312
16702,16371
16651,16422
16591,16462
16525,16489
16455,16503
16383,16503
16312,16489
16246,16462
16186,16422
16136,16371
16096,16312
16068,16245
16054,16175
16054,16103
16068,16033
16096,15966
16136,15906
16186,15856
16246,15816
16312,15788
16383,15774
16455,15774
16525,15788
" /> 
<polyline style="fill-rule:evenodd;"
points="14753,15788
14820,15816
14880,15856
14930,15906
14970,15966
14998,16033
15012,16103
15012,16175
14998,16245
14970,16312
14930,16371
14880,16422
14820,16462
14753,16489
14683,16503
14611,16503
14541,16489
14474,16462
14415,16422
14364,16371
14324,16312
14297,16245
14283,16175
14283,16103
14297,16033
14324,15966
14364,15906
14415,15856
14474,15816
14541,15788
14611,15774
14683,15774
14753,15788
" /> 
<polyline style="fill-rule:evenodd;"
points="27076,15596
27112,15611
27145,15632
27172,15660
27194,15692
27208,15728
27216,15766
27216,15805
27208,15843
27194,15879
27172,15911
27145,15939
27112,15960
27076,15975
27038,15983
26999,15983
26961,15975
26925,15960
26893,15939
26866,15911
26844,15879
26829,15843
26822,15805
26822,15766
26829,15728
26844,15692
26866,15660
26893,15632
26925,15611
26961,15596
26999,15588
27038,15588
27076,15596
" /> 
<polyline style="fill-rule:evenodd;"
points="16995,14733
17037,14742
17065,14753
17116,14774
17187,14822
17248,14882
17248,14882
17248,14882
17295,14953
17295,14953
17328,15032
17344,15116
17344,15201
17328,15285
17295,15364
17248,15435
17187,15495
17116,15543
17065,15564
17037,15575
16995,15584
16954,15592
16868,15592
16826,15584
16784,15575
16757,15564
16706,15543
16635,15495
16574,15435
16527,15364
16494,15285
16477,15201
16477,15116
16494,15032
16527,14953
16527,14953
16574,14882
16574,14882
16574,14882
16635,14822
16706,14774
16757,14753
16784,14742
16826,14733
16868,14725
16954,14725
16995,14733
" /> 
<polyline style="fill-rule:evenodd;"
points="14236,14733
14278,14742
14305,14753
14356,14774
14427,14822
14488,14882
14488,14882
14488,14882
14535,14953
14535,14953
14568,15032
14585,15116
14585,15201
14568,15285
14535,15364
14488,15435
14427,15495
14356,15543
14305,15564
14278,15575
14236,15584
14194,15592
14108,15592
14067,15584
14025,15575
13997,15564
13946,15543
13875,15495
13814,15435
13767,15364
13734,15285
13718,15201
13718,15116
13734,15032
13767,14953
13767,14953
13814,14882
13814,14882
13814,14882
13875,14822
13946,14774
13997,14753
14025,14742
14067,14733
14108,14725
14194,14725
14236,14733
" /> 
<polyline style="fill-rule:evenodd;"
points="9553,13337
9605,13353
9654,13379
9696,13414
9731,13456
9757,13505
9773,13557
9779,13615
9779,14663
9773,14720
9757,14773
9731,14821
9696,14864
9654,14899
9605,14925
9553,14941
9496,14946
8841,14946
8783,14941
8731,14925
8682,14899
8640,14864
8605,14821
8579,14773
8563,14720
8557,14663
8557,13615
8563,13557
8579,13505
8605,13456
8640,13414
8682,13379
8731,13353
8783,13337
8841,13331
9496,13331
9553,13337
" /> 
<polyline style="fill-rule:evenodd;"
points="13253,13337
13306,13353
13355,13379
13397,13414
13432,13456
13458,13505
13474,13557
13479,13615
13479,14663
13474,14720
13458,14773
13432,14821
13397,14864
13355,14899
13306,14925
13253,14941
13196,14946
12541,14946
12484,14941
12432,14925
12383,14899
12341,14864
12306,14821
12280,14773
12264,14720
12258,14663
12258,13615
12264,13557
12280,13505
12306,13456
12341,13414
12383,13379
12432,13353
12484,13337
12541,13331
13196,13331
13253,13337
" /> 
<polyline style="fill-rule:evenodd;"
points="11416,13337
11468,13353
11517,13379
11559,13414
11594,13456
11620,13505
11636,13557
11642,13615
11642,14663
11636,14720
11620,14773
11594,14821
11559,14864
11517,14899
11468,14925
11416,14941
11359,14946
10703,14946
10646,14941
10594,14925
10545,14899
10503,14864
10468,14821
10442,14773
10426,14720
10420,14663
10420,13615
10426,13557
10442,13505
10468,13456
10503,13414
10545,13379
10594,13353
10646,13337
10703,13331
11359,13331
11416,13337
" /> 
<polyline style="fill-rule:evenodd;"
points="24862,13787
24888,13789
24933,13803
24955,13810
25009,13838
25017,13843
25031,13854
25071,13887
25096,13918
25115,13941
25115,13941
25148,14002
25148,14002
25168,14069
25175,14139
25168,14208
25157,14246
25148,14275
25140,14290
25115,14337
25104,14351
25071,14391
25031,14424
25017,14435
25017,14435
24955,14468
24933,14475
24888,14488
24862,14491
24836,14494
24801,14494
24775,14491
24749,14488
24705,14475
24682,14468
24621,14435
24621,14435
24607,14424
24567,14391
24534,14351
24522,14337
24497,14290
24489,14275
24480,14246
24469,14208
24462,14139
24469,14069
24489,14002
24489,14002
24522,13941
24522,13941
24541,13918
24567,13887
24607,13854
24621,13843
24629,13838
24682,13810
24705,13803
24749,13789
24775,13787
24801,13784
24836,13784
24862,13787
" /> 
<polyline style="fill-rule:evenodd;"
points="21174,14494
20464,14494
20464,13784
21174,13784
21174,14494
" /> 
<polyline style="fill-rule:evenodd;"
points="23862,13787
23888,13789
23933,13803
23955,13810
24009,13838
24017,13843
24031,13854
24071,13887
24096,13918
24115,13941
24115,13941
24148,14002
24148,14002
24168,14069
24175,14139
24168,14208
24157,14246
24148,14275
24140,14290
24115,14337
24104,14351
24071,14391
24031,14424
24017,14435
24017,14435
23955,14468
23933,14475
23888,14488
23862,14491
23836,14494
23801,14494
23775,14491
23749,14488
23705,14475
23682,14468
23621,14435
23621,14435
23607,14424
23567,14391
23534,14351
23522,14337
23497,14290
23489,14275
23480,14246
23469,14208
23462,14139
23469,14069
23489,14002
23489,14002
23522,13941
23522,13941
23541,13918
23567,13887
23607,13854
23621,13843
23629,13838
23682,13810
23705,13803
23749,13789
23775,13787
23801,13784
23836,13784
23862,13787
" /> 
<polyline style="fill-rule:evenodd;"
points="22862,13787
22888,13789
22933,13803
22955,13810
23009,13838
23017,13843
23031,13854
23071,13887
23096,13918
23115,13941
23115,13941
23148,14002
23148,14002
23168,14069
23175,14139
23168,14208
23157,14246
23148,14275
23140,14290
23115,14337
23104,14351
23071,14391
23031,14424
23017,14435
23017,14435
22955,14468
22933,14475
22888,14488
22862,14491
22836,14494
22801,14494
22775,14491
22749,14488
22705,14475
22682,14468
22621,14435
22621,14435
22607,14424
22567,14391
22534,14351
22522,14337
22497,14290
22489,14275
22480,14246
22469,14208
22462,14139
22469,14069
22489,14002
22489,14002
22522,13941
22522,13941
22541,13918
22567,13887
22607,13854
22621,13843
22629,13838
22682,13810
22705,13803
22749,13789
22775,13787
22801,13784
22836,13784
22862,13787
" /> 
<polyline style="fill-rule:evenodd;"
points="21862,13787
21888,13789
21933,13803
21955,13810
22009,13838
22017,13843
22031,13854
22071,13887
22096,13918
22115,13941
22115,13941
22148,14002
22148,14002
22168,14069
22175,14139
22168,14208
22157,14246
22148,14275
22140,14290
22115,14337
22104,14351
22071,14391
22031,14424
22017,14435
22017,14435
21955,14468
21933,14475
21888,14488
21862,14491
21836,14494
21801,14494
21775,14491
21749,14488
21705,14475
21682,14468
21621,14435
21621,14435
21607,14424
21567,14391
21534,14351
21522,14337
21497,14290
21489,14275
21480,14246
21469,14208
21462,14139
21469,14069
21489,14002
21489,14002
21522,13941
21522,13941
21541,13918
21567,13887
21607,13854
21621,13843
21629,13838
21682,13810
21705,13803
21749,13789
21775,13787
21801,13784
21836,13784
21862,13787
" /> 
<polyline style="fill-rule:evenodd;"
points="3874,14394
3164,14394
3164,13684
3874,13684
3874,14394
" /> 
<polyline style="fill-rule:evenodd;"
points="27076,13903
27112,13918
27145,13939
27172,13967
27194,13999
27208,14035
27216,14073
27216,14112
27208,14150
27194,14186
27172,14218
27145,14246
27112,14267
27076,14282
27038,14290
26999,14290
26961,14282
26925,14267
26893,14246
26866,14218
26844,14186
26829,14150
26822,14112
26822,14073
26829,14035
26844,13999
26866,13967
26893,13939
26925,13918
26961,13903
26999,13895
27038,13895
27076,13903
" /> 
<polyline style="fill-rule:evenodd;"
points="1971,13806
2003,13819
2003,13819
2003,13819
2032,13838
2032,13838
2057,13863
2057,13863
2057,13863
2076,13892
2076,13892
2076,13892
2090,13924
2096,13959
2096,13994
2090,14028
2076,14060
2076,14060
2057,14089
2057,14089
2032,14114
2032,14114
2032,14114
2003,14134
2003,14134
2003,14134
1971,14147
1936,14154
1901,14154
1867,14147
1835,14134
1835,14134
1835,14134
1806,14114
1806,14114
1806,14114
1781,14089
1781,14089
1761,14060
1761,14060
1748,14028
1741,13994
1741,13959
1748,13924
1761,13892
1761,13892
1761,13892
1781,13863
1781,13863
1781,13863
1806,13838
1806,13838
1835,13819
1835,13819
1835,13819
1867,13806
1901,13799
1936,13799
1971,13806
" /> 
<polyline style="fill-rule:evenodd;"
points="26576,12507
26705,12561
26821,12638
26920,12737
26997,12853
27051,12982
27078,13119
27078,13259
27051,13396
26997,13525
26920,13641
26821,13740
26705,13817
26576,13871
26439,13898
26299,13898
26162,13871
26033,13817
25917,13740
25818,13641
25740,13525
25687,13396
25660,13259
25660,13119
25687,12982
25740,12853
25818,12737
25917,12638
26033,12561
26162,12507
26299,12480
26439,12480
26576,12507
" /> 
<polyline style="fill-rule:evenodd;"
points="16912,12787
16938,12789
16983,12803
17005,12810
17060,12839
17067,12843
17080,12853
17121,12887
17154,12927
17165,12941
17165,12941
17198,13002
17198,13002
17218,13069
17225,13139
17218,13208
17205,13253
17198,13275
17190,13291
17165,13337
17165,13337
17121,13391
17081,13424
17067,13435
17067,13435
17005,13468
16983,13475
16938,13488
16912,13491
16886,13494
16851,13494
16825,13491
16799,13488
16755,13475
16732,13468
16671,13435
16671,13435
16657,13424
16617,13391
16573,13337
16572,13337
16548,13291
16539,13275
16533,13253
16519,13208
16512,13139
16519,13069
16539,13002
16539,13002
16572,12941
16572,12941
16584,12927
16617,12887
16658,12853
16671,12843
16678,12839
16732,12810
16755,12803
16799,12789
16825,12787
16851,12784
16886,12784
16912,12787
" /> 
<polyline style="fill-rule:evenodd;"
points="20224,13494
19514,13494
19514,12784
20224,12784
20224,13494
" /> 
<polyline style="fill-rule:evenodd;"
points="18912,12787
18938,12789
18983,12803
19005,12810
19060,12839
19067,12843
19080,12853
19121,12887
19154,12927
19165,12941
19165,12941
19198,13002
19198,13002
19218,13069
19225,13139
19218,13208
19205,13253
19198,13275
19190,13291
19165,13337
19165,13337
19121,13391
19081,13424
19067,13435
19067,13435
19005,13468
18983,13475
18938,13488
18912,13491
18886,13494
18851,13494
18825,13491
18799,13488
18755,13475
18732,13468
18671,13435
18671,13435
18657,13424
18617,13391
18573,13337
18572,13337
18548,13291
18539,13275
18533,13253
18519,13208
18512,13139
18519,13069
18539,13002
18539,13002
18572,12941
18572,12941
18584,12927
18617,12887
18658,12853
18671,12843
18678,12839
18732,12810
18755,12803
18799,12789
18825,12787
18851,12784
18886,12784
18912,12787
" /> 
<polyline style="fill-rule:evenodd;"
points="17912,12787
17938,12789
17983,12803
18005,12810
18060,12839
18067,12843
18080,12853
18121,12887
18154,12927
18165,12941
18165,12941
18198,13002
18198,13002
18218,13069
18225,13139
18218,13208
18205,13253
18198,13275
18190,13291
18165,13337
18165,13337
18121,13391
18081,13424
18067,13435
18067,13435
18005,13468
17983,13475
17938,13488
17912,13491
17886,13494
17851,13494
17825,13491
17799,13488
17755,13475
17732,13468
17671,13435
17671,13435
17657,13424
17617,13391
17573,13337
17572,13337
17548,13291
17539,13275
17533,13253
17519,13208
17512,13139
17519,13069
17539,13002
17539,13002
17572,12941
17572,12941
17584,12927
17617,12887
17658,12853
17671,12843
17678,12839
17732,12810
17755,12803
17799,12789
17825,12787
17851,12784
17886,12784
17912,12787
" /> 
<polyline style="fill-rule:evenodd;"
points="3562,12687
3588,12689
3633,12703
3655,12710
3706,12737
3717,12743
3731,12754
3771,12787
3804,12827
3815,12841
3815,12841
3848,12902
3848,12902
3868,12969
3875,13039
3868,13108
3859,13139
3848,13175
3830,13208
3815,13237
3804,13251
3771,13291
3731,13324
3717,13335
3717,13335
3655,13368
3633,13375
3588,13388
3563,13391
3536,13394
3501,13394
3474,13391
3449,13388
3405,13375
3382,13368
3321,13335
3321,13335
3307,13324
3267,13291
3234,13251
3222,13237
3207,13208
3189,13175
3178,13139
3169,13108
3162,13039
3169,12969
3189,12902
3189,12902
3222,12841
3222,12841
3234,12827
3267,12787
3307,12754
3321,12743
3331,12737
3382,12710
3405,12703
3449,12689
3475,12687
3501,12684
3536,12684
3562,12687
" /> 
<polyline style="fill-rule:evenodd;"
points="1971,12231
2003,12244
2003,12244
2003,12244
2019,12255
2032,12264
2057,12288
2057,12288
2057,12288
2076,12317
2076,12317
2076,12317
2090,12350
2096,12384
2096,12419
2090,12453
2076,12486
2076,12486
2062,12507
2057,12515
2032,12539
2032,12539
2032,12539
2003,12559
2003,12559
2003,12559
1971,12572
1936,12579
1901,12579
1867,12572
1835,12559
1835,12559
1835,12559
1806,12539
1806,12539
1806,12539
1781,12515
1776,12507
1761,12486
1761,12486
1748,12453
1741,12419
1741,12384
1748,12350
1761,12317
1761,12317
1761,12317
1781,12288
1781,12288
1781,12288
1806,12264
1818,12255
1835,12244
1835,12244
1835,12244
1867,12231
1901,12224
1936,12224
1971,12231
" /> 
<polyline style="fill-rule:evenodd;"
points="6136,11480
6170,11490
6201,11507
6229,11529
6252,11557
6268,11588
6279,11623
6283,11661
6283,12217
6279,12255
6268,12289
6252,12321
6229,12348
6201,12371
6170,12388
6136,12398
6098,12402
5640,12402
5602,12398
5568,12388
5536,12371
5509,12348
5486,12321
5469,12289
5459,12255
5455,12217
5455,11661
5459,11623
5469,11588
5486,11557
5509,11529
5536,11507
5568,11490
5602,11480
5640,11476
6098,11476
6136,11480
" /> 
<polyline style="fill-rule:evenodd;"
points="8136,11480
8170,11490
8201,11507
8229,11529
8252,11557
8268,11588
8279,11623
8283,11661
8283,12217
8279,12255
8268,12289
8252,12321
8229,12348
8201,12371
8170,12388
8136,12398
8098,12402
7640,12402
7602,12398
7568,12388
7536,12371
7509,12348
7486,12321
7469,12289
7459,12255
7455,12217
7455,11661
7459,11623
7469,11588
7486,11557
7509,11529
7536,11507
7568,11490
7602,11480
7640,11476
8098,11476
8136,11480
" /> 
<polyline style="fill-rule:evenodd;"
points="7136,11480
7170,11490
7201,11507
7229,11529
7252,11557
7268,11588
7279,11623
7283,11661
7283,12217
7279,12255
7268,12289
7252,12321
7229,12348
7201,12371
7170,12388
7136,12398
7098,12402
6640,12402
6602,12398
6568,12388
6536,12371
6509,12348
6486,12321
6469,12289
6459,12255
6455,12217
6455,11661
6459,11623
6469,11588
6486,11557
6509,11529
6536,11507
6568,11490
6602,11480
6640,11476
7098,11476
7136,11480
" /> 
<polyline style="fill-rule:evenodd;"
points="9136,11480
9170,11490
9201,11507
9229,11529
9252,11557
9268,11588
9279,11623
9283,11661
9283,12217
9279,12255
9268,12289
9252,12321
9229,12348
9201,12371
9170,12388
9136,12398
9098,12402
8640,12402
8602,12398
8568,12388
8536,12371
8509,12348
8486,12321
8469,12289
8459,12255
8455,12217
8455,11661
8459,11623
8469,11588
8486,11557
8509,11529
8536,11507
8568,11490
8602,11480
8640,11476
9098,11476
9136,11480
" /> 
<polyline style="fill-rule:evenodd;"
points="4136,11480
4170,11490
4201,11507
4229,11529
4252,11557
4268,11588
4279,11623
4283,11661
4283,12217
4279,12255
4268,12289
4252,12321
4229,12348
4201,12371
4170,12388
4136,12398
4098,12402
3640,12402
3602,12398
3568,12388
3536,12371
3509,12348
3486,12321
3469,12289
3459,12255
3455,12217
3455,11661
3459,11623
3469,11588
3486,11557
3509,11529
3536,11507
3568,11490
3602,11480
3640,11476
4098,11476
4136,11480
" /> 
<polyline style="fill-rule:evenodd;"
points="5136,11480
5170,11490
5201,11507
5229,11529
5252,11557
5268,11588
5279,11623
5283,11661
5283,12217
5279,12255
5268,12289
5252,12321
5229,12348
5201,12371
5170,12388
5136,12398
5098,12402
4640,12402
4602,12398
4568,12388
4536,12371
4509,12348
4486,12321
4469,12289
4459,12255
4455,12217
4455,11661
4459,11623
4469,11588
4486,11557
4509,11529
4536,11507
4568,11490
4602,11480
4640,11476
5098,11476
5136,11480
" /> 
<polyline style="fill-rule:evenodd;"
points="10974,12344
10264,12344
10264,11634
10974,11634
10974,12344
" /> 
<polyline style="fill-rule:evenodd;"
points="10662,10637
10688,10639
10733,10653
10755,10660
10810,10689
10817,10693
10831,10704
10871,10737
10904,10777
10915,10791
10915,10791
10948,10852
10948,10852
10968,10919
10975,10989
10968,11058
10955,11103
10948,11125
10919,11180
10915,11187
10904,11201
10871,11241
10831,11274
10817,11285
10817,11285
10755,11318
10733,11325
10688,11338
10662,11341
10636,11344
10601,11344
10575,11341
10549,11338
10505,11325
10482,11318
10421,11285
10421,11285
10407,11274
10367,11241
10334,11201
10322,11187
10319,11180
10289,11125
10283,11103
10269,11058
10262,10989
10269,10919
10289,10852
10289,10852
10322,10791
10322,10791
10334,10777
10367,10737
10407,10704
10421,10693
10428,10689
10482,10660
10505,10653
10549,10639
10575,10637
10601,10634
10636,10634
10662,10637
" /> 
<polyline style="fill-rule:evenodd;"
points="21564,7372
21604,7388
21639,7412
21669,7442
21693,7477
21710,7517
21718,7559
21718,7601
21717,7606
21716,7616
21717,7625
21720,7635
21724,7643
21730,7651
21738,7657
21746,7661
21756,7664
21765,7665
21775,7664
21780,7663
21822,7663
21827,7664
21837,7665
21846,7664
21856,7661
21864,7657
21872,7651
21878,7643
21882,7635
21885,7625
21886,7616
21885,7606
21884,7601
21884,7559
21892,7517
21909,7477
21932,7442
21963,7412
21998,7388
22038,7372
22080,7363
22122,7363
22164,7372
22204,7388
22239,7412
22269,7442
22293,7477
22310,7517
22318,7559
22318,7601
22317,7606
22316,7616
22317,7625
22320,7635
22324,7643
22330,7651
22338,7657
22346,7661
22356,7664
22365,7665
22375,7664
22380,7663
22422,7663
22464,7672
22504,7688
22539,7712
22569,7742
22593,7777
22610,7817
22618,7859
22618,7901
22610,7943
22593,7983
22569,8018
22539,8049
22504,8072
22464,8089
22422,8097
22380,8097
22375,8096
22365,8095
22356,8096
22346,8099
22338,8103
22330,8110
22324,8117
22320,8126
22317,8135
22316,8144
22317,8154
22318,8159
22318,8201
22317,8206
22316,8216
22317,8225
22320,8235
22324,8243
22330,8251
22338,8257
22346,8261
22356,8264
22365,8265
22375,8264
22380,8263
22422,8263
22464,8272
22504,8288
22539,8312
22569,8342
22593,8377
22610,8417
22618,8459
22618,8501
22610,8543
22593,8583
22569,8618
22539,8649
22504,8672
22464,8689
22422,8697
22380,8697
22375,8696
22365,8695
22356,8696
22346,8699
22338,8703
22330,8710
22324,8717
22320,8726
22317,8735
22316,8744
22317,8754
22318,8759
22318,8801
22310,8843
22293,8883
22269,8918
22239,8949
22204,8972
22164,8989
22122,8997
22080,8997
22038,8989
21998,8972
21963,8949
21932,8918
21909,8883
21892,8843
21884,8801
21884,8759
21885,8754
21886,8744
21885,8735
21882,8726
21878,8717
21872,8710
21864,8703
21856,8699
21846,8696
21837,8695
21827,8696
21822,8697
21780,8697
21775,8696
21765,8695
21756,8696
21746,8699
21738,8703
21730,8710
21724,8717
21720,8726
21717,8735
21716,8744
21717,8754
21718,8759
21718,8801
21710,8843
21693,8883
21669,8918
21639,8949
21604,8972
21564,8989
21522,8997
21480,8997
21438,8989
21398,8972
21363,8949
21332,8918
21309,8883
21292,8843
21284,8801
21284,8759
21285,8754
21286,8744
21285,8735
21282,8726
21278,8717
21272,8710
21264,8703
21256,8699
21246,8696
21237,8695
21227,8696
21222,8697
21180,8697
21138,8689
21098,8672
21063,8649
21032,8618
21009,8583
20992,8543
20984,8501
20984,8459
20987,8444
21416,8444
21417,8454
21418,8459
21418,8501
21417,8506
21416,8516
21417,8525
21420,8535
21424,8543
21430,8551
21438,8557
21446,8561
21456,8564
21465,8565
21475,8564
21480,8563
21522,8563
21527,8564
21537,8565
21546,8564
21556,8561
21564,8557
21572,8551
21578,8543
21582,8535
21585,8525
21586,8516
21585,8506
21584,8501
21584,8459
21585,8454
21586,8444
22016,8444
22017,8454
22018,8459
22018,8501
22017,8506
22016,8516
22017,8525
22020,8535
22024,8543
22030,8551
22038,8557
22046,8561
22056,8564
22065,8565
22075,8564
22080,8563
22122,8563
22127,8564
22137,8565
22146,8564
22156,8561
22164,8557
22172,8551
22178,8543
22182,8535
22185,8525
22186,8516
22185,8506
22184,8501
22184,8459
22185,8454
22186,8444
22185,8435
22182,8426
22178,8417
22172,8410
22164,8403
22156,8399
22146,8396
22137,8395
22127,8396
22122,8397
22080,8397
22075,8396
22065,8395
22056,8396
22046,8399
22038,8403
22030,8410
22024,8417
22020,8426
22017,8435
22016,8444
21586,8444
21585,8435
21582,8426
21578,8417
21572,8410
21564,8403
21556,8399
21546,8396
21537,8395
21527,8396
21522,8397
21480,8397
21475,8396
21465,8395
21456,8396
21446,8399
21438,8403
21430,8410
21424,8417
21420,8426
21417,8435
21416,8444
20987,8444
20992,8417
21009,8377
21032,8342
21063,8312
21098,8288
21138,8272
21180,8263
21222,8263
21227,8264
21237,8265
21246,8264
21256,8261
21264,8257
21272,8251
21278,8243
21282,8235
21285,8225
21286,8216
21285,8206
21284,8201
21284,8159
21285,8154
21286,8144
21716,8144
21717,8154
21718,8159
21718,8201
21717,8206
21716,8216
21717,8225
21720,8235
21724,8243
21730,8251
21738,8257
21746,8261
21756,8264
21765,8265
21775,8264
21780,8263
21822,8263
21827,8264
21837,8265
21846,8264
21856,8261
21864,8257
21872,8251
21878,8243
21882,8235
21885,8225
21886,8216
21885,8206
21884,8201
21884,8159
21885,8154
21886,8144
21885,8135
21882,8126
21878,8117
21872,8110
21864,8103
21856,8099
21846,8096
21837,8095
21827,8096
21822,8097
21780,8097
21775,8096
21765,8095
21756,8096
21746,8099
21738,8103
21730,8110
21724,8117
21720,8126
21717,8135
21716,8144
21286,8144
21285,8135
21282,8126
21278,8117
21272,8110
21264,8103
21256,8099
21246,8096
21237,8095
21227,8096
21222,8097
21180,8097
21138,8089
21098,8072
21063,8049
21032,8018
21009,7983
20992,7943
20984,7901
20984,7859
20987,7844
21416,7844
21417,7854
21418,7859
21418,7901
21417,7906
21416,7916
21417,7925
21420,7935
21424,7943
21430,7951
21438,7957
21446,7961
21456,7964
21465,7965
21475,7964
21480,7963
21522,7963
21527,7964
21537,7965
21546,7964
21556,7961
21564,7957
21572,7951
21578,7943
21582,7935
21585,7925
21586,7916
21585,7906
21584,7901
21584,7859
21585,7854
21586,7844
22016,7844
22017,7854
22018,7859
22018,7901
22017,7906
22016,7916
22017,7925
22020,7935
22024,7943
22030,7951
22038,7957
22046,7961
22056,7964
22065,7965
22075,7964
22080,7963
22122,7963
22127,7964
22137,7965
22146,7964
22156,7961
22164,7957
22172,7951
22178,7943
22182,7935
22185,7925
22186,7916
22185,7906
22184,7901
22184,7859
22185,7854
22186,7844
22185,7835
22182,7826
22178,7817
22172,7810
22164,7803
22156,7799
22146,7796
22137,7795
22127,7796
22122,7797
22080,7797
22075,7796
22065,7795
22056,7796
22046,7799
22038,7803
22030,7810
22024,7817
22020,7826
22017,7835
22016,7844
21586,7844
21585,7835
21582,7826
21578,7817
21572,7810
21564,7803
21556,7799
21546,7796
21537,7795
21527,7796
21522,7797
21480,7797
21475,7796
21465,7795
21456,7796
21446,7799
21438,7803
21430,7810
21424,7817
21420,7826
21417,7835
21416,7844
20987,7844
20992,7817
21009,7777
21032,7742
21063,7712
21098,7688
21138,7672
21180,7663
21222,7663
21227,7664
21237,7665
21246,7664
21256,7661
21264,7657
21272,7651
21278,7643
21282,7635
21285,7625
21286,7616
21285,7606
21284,7601
21284,7559
21292,7517
21309,7477
21332,7442
21363,7412
21398,7388
21438,7372
21480,7363
21522,7363
21564,7372
" /> 
<polyline style="fill-rule:evenodd;"
points="27026,3557
27155,3611
27271,3688
27370,3787
27447,3903
27501,4032
27528,4169
27528,4309
27501,4446
27447,4575
27370,4691
27271,4790
27155,4867
27026,4921
26889,4948
26749,4948
26612,4921
26483,4867
26367,4790
26268,4691
26190,4575
26137,4446
26110,4309
26110,4169
26137,4032
26190,3903
26268,3787
26367,3688
26483,3611
26612,3557
26749,3530
26889,3530
27026,3557
" /> 
<polyline style="fill-rule:evenodd;"
points="11537,2804
11553,2808
11567,2816
11580,2827
11590,2839
11598,2854
11603,2869
11605,2888
11605,4134
11603,4152
11598,4168
11590,4183
11580,4195
11567,4206
11553,4213
11537,4218
11518,4220
11257,4220
11238,4218
11223,4213
11208,4206
11195,4195
11185,4183
11177,4168
11173,4152
11171,4134
11171,2888
11173,2869
11177,2854
11185,2839
11195,2827
11208,2816
11223,2808
11238,2804
11257,2802
11518,2802
11537,2804
" /> 
<polyline style="fill-rule:evenodd;"
points="12324,2804
12340,2808
12355,2816
12367,2827
12378,2839
12385,2854
12390,2869
12392,2888
12392,4134
12390,4152
12385,4168
12378,4183
12367,4195
12355,4206
12340,4213
12324,4218
12306,4220
12044,4220
12026,4218
12010,4213
11996,4206
11983,4195
11972,4183
11965,4168
11960,4152
11958,4134
11958,2888
11960,2869
11965,2854
11972,2839
11983,2827
11996,2816
12010,2808
12026,2804
12044,2802
12306,2802
12324,2804
" /> 
<polyline style="fill-rule:evenodd;"
points="13112,2804
13128,2808
13142,2816
13155,2827
13165,2839
13173,2854
13178,2869
13179,2888
13179,4134
13178,4152
13173,4168
13165,4183
13155,4195
13142,4206
13128,4213
13112,4218
13093,4220
12832,4220
12813,4218
12797,4213
12783,4206
12770,4195
12760,4183
12752,4168
12747,4152
12746,4134
12746,2888
12747,2869
12752,2854
12760,2839
12770,2827
12783,2816
12797,2808
12813,2804
12832,2802
13093,2802
13112,2804
" /> 
<polyline style="fill-rule:evenodd;"
points="13899,2804
13915,2808
13929,2816
13942,2827
13952,2839
13960,2854
13965,2869
13967,2888
13967,4134
13965,4152
13960,4168
13952,4183
13942,4195
13929,4206
13915,4213
13899,4218
13881,4220
13619,4220
13601,4218
13585,4213
13570,4206
13558,4195
13547,4183
13540,4168
13535,4152
13533,4134
13533,2888
13535,2869
13540,2854
13547,2839
13558,2827
13570,2816
13585,2808
13601,2804
13619,2802
13881,2802
13899,2804
" /> 
<polyline style="fill-rule:evenodd;"
points="3136,2980
3170,2990
3201,3007
3229,3029
3252,3057
3268,3088
3279,3123
3283,3161
3283,3717
3279,3755
3268,3789
3252,3821
3229,3848
3201,3871
3170,3888
3136,3898
3098,3902
2640,3902
2602,3898
2568,3888
2536,3871
2509,3848
2486,3821
2469,3789
2459,3755
2455,3717
2455,3161
2459,3123
2469,3088
2486,3057
2509,3029
2536,3007
2568,2990
2602,2980
2640,2976
3098,2976
3136,2980
" /> 
<polyline style="fill-rule:evenodd;"
points="7136,2980
7170,2990
7201,3007
7229,3029
7252,3057
7268,3088
7279,3123
7283,3161
7283,3717
7279,3755
7268,3789
7252,3821
7229,3848
7201,3871
7170,3888
7136,3898
7098,3902
6640,3902
6602,3898
6568,3888
6536,3871
6509,3848
6486,3821
6469,3789
6459,3755
6455,3717
6455,3161
6459,3123
6469,3088
6486,3057
6509,3029
6536,3007
6568,2990
6602,2980
6640,2976
7098,2976
7136,2980
" /> 
<polyline style="fill-rule:evenodd;"
points="8136,2980
8170,2990
8201,3007
8229,3029
8252,3057
8268,3088
8279,3123
8283,3161
8283,3717
8279,3755
8268,3789
8252,3821
8229,3848
8201,3871
8170,3888
8136,3898
8098,3902
7640,3902
7602,3898
7568,3888
7536,3871
7509,3848
7486,3821
7469,3789
7459,3755
7455,3717
7455,3161
7459,3123
7469,3088
7486,3057
7509,3029
7536,3007
7568,2990
7602,2980
7640,2976
8098,2976
8136,2980
" /> 
<polyline style="fill-rule:evenodd;"
points="4136,2980
4170,2990
4201,3007
4229,3029
4252,3057
4268,3088
4279,3123
4283,3161
4283,3717
4279,3755
4268,3789
4252,3821
4229,3848
4201,3871
4170,3888
4136,3898
4098,3902
3640,3902
3602,3898
3568,3888
3536,3871
3509,3848
3486,3821
3469,3789
3459,3755
3455,3717
3455,3161
3459,3123
3469,3088
3486,3057
3509,3029
3536,3007
3568,2990
3602,2980
3640,2976
4098,2976
4136,2980
" /> 
<polyline style="fill-rule:evenodd;"
points="5136,2980
5170,2990
5201,3007
5229,3029
5252,3057
5268,3088
5279,3123
5283,3161
5283,3717
5279,3755
5268,3789
5252,3821
5229,3848
5201,3871
5170,3888
5136,3898
5098,3902
4640,3902
4602,3898
4568,3888
4536,3871
4509,3848
4486,3821
4469,3789
4459,3755
4455,3717
4455,3161
4459,3123
4469,3088
4486,3057
4509,3029
4536,3007
4568,2990
4602,2980
4640,2976
5098,2976
5136,2980
" /> 
<polyline style="fill-rule:evenodd;"
points="6136,2980
6170,2990
6201,3007
6229,3029
6252,3057
6268,3088
6279,3123
6283,3161
6283,3717
6279,3755
6268,3789
6252,3821
6229,3848
6201,3871
6170,3888
6136,3898
6098,3902
5640,3902
5602,3898
5568,3888
5536,3871
5509,3848
5486,3821
5469,3789
5459,3755
5455,3717
5455,3161
5459,3123
5469,3088
5486,3057
5509,3029
5536,3007
5568,2990
5602,2980
5640,2976
6098,2976
6136,2980
" /> 
<polyline style="fill-rule:evenodd;"
points="10720,559
10733,563
10746,570
10756,579
10765,590
10772,602
10776,616
10778,632
10778,1862
10776,1878
10772,1892
10765,1904
10756,1915
10746,1924
10733,1931
10720,1935
10703,1937
10222,1937
10205,1935
10192,1931
10179,1924
10168,1915
10160,1904
10153,1892
10149,1878
10147,1862
10147,632
10149,616
10153,602
10160,590
10168,579
10179,570
10192,563
10205,559
10222,558
10703,558
10720,559
" /> 
<polyline style="fill-rule:evenodd;"
points="14932,559
14946,563
14958,570
14969,579
14978,590
14985,602
14989,616
14990,632
14990,1862
14989,1878
14985,1892
14978,1904
14969,1915
14958,1924
14946,1931
14932,1935
14916,1937
14434,1937
14418,1935
14404,1931
14392,1924
14381,1915
14372,1904
14365,1892
14361,1878
14360,1862
14360,632
14361,616
14365,602
14372,590
14381,579
14392,570
14404,563
14418,559
14434,558
14916,558
14932,559
" /> 
<polyline style="fill-rule:evenodd;"
points="1426,257
1555,311
1671,388
1770,487
1847,603
1901,732
1928,869
1928,1009
1901,1146
1847,1275
1770,1391
1671,1490
1555,1567
1426,1621
1289,1648
1149,1648
1012,1621
883,1567
767,1490
668,1391
590,1275
537,1146
510,1009
510,869
537,732
590,603
668,487
767,388
883,311
1012,257
1149,230
1289,230
1426,257
" /> 
<polyline style="fill-rule:evenodd;"
points="23514,1509
22624,1509
22624,469
23514,469
23514,1509
" /> 
<polyline style="fill-rule:evenodd;"
points="22514,1509
21624,1509
21624,469
22514,469
22514,1509
" /> 
<polyline style="fill-rule:evenodd;"
points="21514,1509
20624,1509
20624,469
21514,469
21514,1509
" /> 
<polyline style="fill-rule:evenodd;"
points="20514,1509
19624,1509
19624,469
20514,469
20514,1509
" /> 
<polyline style="fill-rule:evenodd;"
points="19514,1509
18624,1509
18624,469
19514,469
19514,1509
" /> 
<polyline style="fill-rule:evenodd;"
points="18514,1509
17624,1509
17624,469
18514,469
18514,1509
" /> 
</g>
<g style="fill:#000000; fill-opacity:1.0; 
stroke:#000000; stroke-width:0; stroke-opacity:1; 
stroke-linecap:round; stroke-linejoin:round;">
</g>
<g style="fill:#C2C200; fill-opacity:1.0; 
stroke:#C2C200; stroke-width:0; stroke-opacity:1; 
stroke-linecap:round; stroke-linejoin:round;">
</g>
<g style="fill:#C2C200; fill-opacity:1.0; 
stroke:#C2C200; stroke-width:59.0551; stroke-opacity:1; 
stroke-linecap:round; stroke-linejoin:round;">
</g>
<g style="fill:#C2C200; fill-opacity:0.0; 
stroke:#C2C200; stroke-width:59.0551; stroke-opacity:1; 
stroke-linecap:round; stroke-linejoin:round;">
<path d="M369 889
L369 16589
" />
<path d="M26919 89
L1119 89
" />
<path d="M27669 5089
L27669 839
" />
<path d="M27669 16589
L27669 12389
" />
<path d="M13969 17339
L26919 17339
" />
<path d="M13619 15689
L13619 16989
" />
<path d="M8419 16989
L8419 15689
" />
<path d="M1119 17339
L8069 17339
" />
<path d="M13619.3 16989.4 A350 350 0.0 0 0 13969.3 17339.4 " />
<path d="M8069.29 17339.4 A350 350 0.0 0 0 8419.29 16989.4 " />
<path d="M1119.29 89.3705 A750 750 0.0 0 0 370.953 889.26 " />
<path d="M369.292 16589.4 A750 750 0.0 0 0 1119.29 17339.4 " />
<path d="M26919.3 17339.4 A750 750 0.0 0 0 27669.3 16589.4 " />
<path d="M27669.3 839.37 A750 750 0.0 0 0 26919.3 89.3705 " />
<path d="M8419 15689
L13619 15689
" />
<path d="M25419 5089
L27669 5089
" />
<path d="M25419 12389
L25419 5089
" />
<path d="M27669 12389
L25419 12389
" />
</g> 
</svg>
