<?xml version="1.0" standalone="no"?>
 <!DOCTYPE svg PUBLIC "-//W3C//DTD SVG 1.1//EN" 
 "http://www.w3.org/Graphics/SVG/1.1/DTD/svg11.dtd"> 
<svg xmlns="http://www.w3.org/2000/svg" version="1.1" 
    width="7.07898cm" height="5.15874cm" viewBox="0 0 27870 20310 ">
<title>SVG Picture created as PETT_BSF-F.Fab.svg date 2023/05/28 22:50:15 </title>
  <desc>Picture generated by PCBNEW </desc>
<g style="fill:#000000; fill-opacity:1;stroke:#000000; stroke-opacity:1;
stroke-linecap:round; stroke-linejoin:round; "
 transform="translate(0 0) scale(1 1)">
</g>
<g style="fill:#000000; fill-opacity:0.0; 
stroke:#000000; stroke-width:-0.000393701; stroke-opacity:1; 
stroke-linecap:round; stroke-linejoin:round;">
</g>
<g style="fill:#848484; fill-opacity:0.0; 
stroke:#848484; stroke-width:-0.000393701; stroke-opacity:1; 
stroke-linecap:round; stroke-linejoin:round;">
</g>
<g style="fill:#848484; fill-opacity:0.0; 
stroke:#848484; stroke-width:39.3701; stroke-opacity:1; 
stroke-linecap:round; stroke-linejoin:round;">
<path d="M6724 2404
L6724 1774
" />
<path d="M6724 1774
L7984 1774
" />
<path d="M7984 1774
L7984 2404
" />
<path d="M7984 2404
L6724 2404
" />
<path d="M19899 16054
L18639 16054
" />
<path d="M19899 15424
L19899 16054
" />
<path d="M18639 15424
L19899 15424
" />
<path d="M18639 16054
L18639 15424
" />
<path d="M10639 9524
L11899 9524
" />
<path d="M10639 10154
L10639 9524
" />
<path d="M11899 10154
L10639 10154
" />
<path d="M11899 9524
L11899 10154
" />
<path d="M14779 14304
L14779 13674
" />
<path d="M14779 13674
L16038 13674
" />
<path d="M16038 13674
L16038 14304
" />
<path d="M16038 14304
L14779 14304
" />
<path d="M3449 15854
L3449 15224
" />
<path d="M3449 15224
L4709 15224
" />
<path d="M4709 15224
L4709 15854
" />
<path d="M4709 15854
L3449 15854
" />
<path d="M5379 15224
L6638 15224
" />
<path d="M5379 15854
L5379 15224
" />
<path d="M6638 15854
L5379 15854
" />
<path d="M6638 15224
L6638 15854
" />
<path d="M6884 7819
L6254 7819
" />
<path d="M6254 7819
L6254 6559
" />
<path d="M6254 6559
L6884 6559
" />
<path d="M6884 6559
L6884 7819
" />
<path d="M9199 9804
L7939 9804
" />
<path d="M9199 9174
L9199 9804
" />
<path d="M7939 9174
L9199 9174
" />
<path d="M7939 9804
L7939 9174
" />
<path d="M20984 4384
L20354 4384
" />
<path d="M20354 4384
L20354 3124
" />
<path d="M20354 3124
L20984 3124
" />
<path d="M20984 3124
L20984 4384
" />
<path d="M24349 13404
L23089 13404
" />
<path d="M24349 12774
L24349 13404
" />
<path d="M23089 12774
L24349 12774
" />
<path d="M23089 13404
L23089 12774
" />
<path d="M13899 9824
L13899 10454
" />
<path d="M13899 10454
L12639 10454
" />
<path d="M12639 10454
L12639 9824
" />
<path d="M12639 9824
L13899 9824
" />
<path d="M4237 1441
L4237 2405
" />
<path d="M4453 1216
L4788 1216
" />
<path d="M4237 1441
L4453 1216
" />
<path d="M4788 1216
L4788 2413
" />
<path d="M4237 2413
L4788 2413
" />
<path d="M2954 1019
L3584 1019
" />
<path d="M3584 1019
L3584 2279
" />
<path d="M3584 2279
L2954 2279
" />
<path d="M2954 2279
L2954 1019
" />
<path d="M21217 2554
L19957 2554
" />
<path d="M21217 1924
L21217 2554
" />
<path d="M19957 1924
L21217 1924
" />
<path d="M19957 2554
L19957 1924
" />
<path d="M4699 16324
L3596 16324
" />
<path d="M3596 16324
L3439 16481
" />
<path d="M3439 16481
L3439 16954
" />
<path d="M3439 16954
L4699 16954
" />
<path d="M4699 16954
L4699 16324
" />
<path d="M5375 16324
L5375 16954
" />
<path d="M6634 16324
L5375 16324
" />
<path d="M6634 16796
L6634 16324
" />
<path d="M6477 16954
L6634 16796
" />
<path d="M5375 16954
L6477 16954
" />
<path d="M18799 16324
L17696 16324
" />
<path d="M17696 16324
L17539 16481
" />
<path d="M17539 16481
L17539 16954
" />
<path d="M17539 16954
L18799 16954
" />
<path d="M18799 16954
L18799 16324
" />
<path d="M4432 6035
L6912 6035
" />
<path d="M6912 6035
L7306 5642
" />
<path d="M7306 5642
L7306 4342
" />
<path d="M7306 4342
L4432 4342
" />
<path d="M4432 4342
L4432 6035
" />
<path d="M17924 2554
L17924 1924
" />
<path d="M17924 1924
L19184 1924
" />
<path d="M19184 1924
L19184 2554
" />
<path d="M19184 2554
L17924 2554
" />
<path d="M6724 1404
L6724 774
" />
<path d="M6724 774
L7984 774
" />
<path d="M7984 774
L7984 1404
" />
<path d="M7984 1404
L6724 1404
" />
<path d="M22784 3144
L22784 4404
" />
<path d="M22154 3144
L22784 3144
" />
<path d="M22154 4404
L22154 3144
" />
<path d="M22784 4404
L22154 4404
" />
<path d="M13178 8694
L13178 6883
" />
<path d="M13178 6883
L14359 6883
" />
<path d="M14359 8694
L13178 8694
" />
<path d="M14359 8694
L14359 6883
" />
<path d="M13768 7533
L13768 7178
" />
<path d="M13768 7986
L13768 8379
" />
<path d="M14083 7533
L13453 7533
" />
<path d="M13473 7986
L14083 7986
" />
<path d="M13768 7533
L13473 7986
" />
<path d="M13768 7533
L14083 7986
" />
<path d="M1468 5583
L1783 6036
" />
<path d="M1468 5583
L1173 6036
" />
<path d="M1173 6036
L1783 6036
" />
<path d="M1783 5583
L1153 5583
" />
<path d="M1468 6036
L1468 6429
" />
<path d="M1468 5583
L1468 5228
" />
<path d="M2059 6744
L2059 4933
" />
<path d="M2059 6744
L878 6744
" />
<path d="M878 4933
L2059 4933
" />
<path d="M878 6744
L878 4933
" />
</g>
<g style="fill:#848484; fill-opacity:0.0; 
stroke:#848484; stroke-width:47.2441; stroke-opacity:1; 
stroke-linecap:round; stroke-linejoin:round;">
<path d="M1759 11703
L2055 12018
" />
<path d="M106 14655
L106 11703
" />
<path d="M2055 14655
L106 14655
" />
<path d="M2055 12018
L2055 14655
" />
<path d="M106 11703
L1759 11703
" />
</g>
<g style="fill:#848484; fill-opacity:0.0; 
stroke:#848484; stroke-width:39.3701; stroke-opacity:1; 
stroke-linecap:round; stroke-linejoin:round;">
<path d="M3769 14539
L3019 14539
" />
<path d="M3019 14539
L3019 12539
" />
<path d="M3019 12539
L4019 12539
" />
<path d="M4019 12539
L4019 14289
" />
<path d="M4019 14289
L3769 14539
" />
<path d="M20319 14389
L20319 13639
" />
<path d="M20319 13639
L25319 13639
" />
<path d="M25319 13639
L25319 14639
" />
<path d="M25319 14639
L20569 14639
" />
<path d="M20569 14639
L20319 14389
" />
<path d="M7044 9913
L7044 8948
" />
<path d="M6828 10137
L6493 10137
" />
<path d="M7044 9913
L6828 10137
" />
<path d="M6493 10137
L6493 8940
" />
<path d="M7044 8940
L6493 8940
" />
<path d="M14193 6137
L14744 6137
" />
<path d="M14744 4940
L14744 6137
" />
<path d="M14193 5165
L14410 4940
" />
<path d="M14410 4940
L14744 4940
" />
<path d="M14193 5165
L14193 6129
" />
<path d="M17959 13674
L17959 14304
" />
<path d="M17959 14304
L16699 14304
" />
<path d="M16699 14304
L16699 13674
" />
<path d="M16699 13674
L17959 13674
" />
<path d="M7984 15459
L7984 16719
" />
<path d="M7354 15459
L7984 15459
" />
<path d="M7354 16719
L7354 15459
" />
<path d="M7984 16719
L7354 16719
" />
<path d="M19909 14304
L18649 14304
" />
<path d="M19909 13674
L19909 14304
" />
<path d="M18649 13674
L19909 13674
" />
<path d="M18649 14304
L18649 13674
" />
<path d="M6034 2229
L5404 2229
" />
<path d="M5404 2229
L5404 969
" />
<path d="M5404 969
L6034 969
" />
<path d="M6034 969
L6034 2229
" />
<path d="M23238 2554
L21979 2554
" />
<path d="M23238 1924
L23238 2554
" />
<path d="M21979 1924
L23238 1924
" />
<path d="M21979 2554
L21979 1924
" />
<path d="M17654 4369
L17654 3109
" />
<path d="M18284 4369
L17654 4369
" />
<path d="M18284 3109
L18284 4369
" />
<path d="M17654 3109
L18284 3109
" />
<path d="M16138 4604
L14879 4604
" />
<path d="M16138 3974
L16138 4604
" />
<path d="M14879 3974
L16138 3974
" />
<path d="M14879 4604
L14879 3974
" />
<path d="M18554 3124
L19184 3124
" />
<path d="M19184 3124
L19184 4384
" />
<path d="M19184 4384
L18554 4384
" />
<path d="M18554 4384
L18554 3124
" />
<path d="M20084 4384
L19454 4384
" />
<path d="M19454 4384
L19454 3124
" />
<path d="M19454 3124
L20084 3124
" />
<path d="M20084 3124
L20084 4384
" />
<path d="M23004 3149
L23634 3149
" />
<path d="M23634 3149
L23634 4409
" />
<path d="M23634 4409
L23004 4409
" />
<path d="M23004 4409
L23004 3149
" />
<path d="M22449 12774
L22449 13404
" />
<path d="M22449 13404
L21189 13404
" />
<path d="M21189 13404
L21189 12774
" />
<path d="M21189 12774
L22449 12774
" />
<path d="M8285 6674
L9437 6674
" />
<path d="M9437 6674
L9437 8603
" />
<path d="M9437 8603
L7901 8603
" />
<path d="M7901 8603
L7901 7058
" />
<path d="M7901 7058
L8285 6674
" />
<path d="M6839 15065
L5729 15065
" />
<path d="M5729 15065
L5729 13112
" />
<path d="M5729 13112
L7209 13112
" />
<path d="M7209 13112
L7209 14695
" />
<path d="M7209 14695
L6839 15065
" />
<path d="M13261 3518
L13734 3518
" />
<path d="M13734 3518
L13734 4660
" />
<path d="M13734 4660
L13104 4660
" />
<path d="M13104 4660
L13104 3675
" />
<path d="M13104 3675
L13261 3518
" />
<path d="M5240 7367
L2091 7367
" />
<path d="M1697 7761
L1697 10911
" />
<path d="M1697 10911
L5240 10911
" />
<path d="M5240 10911
L5240 7367
" />
<path d="M2091 7367
L1697 7761
" />
<path d="M10379 8829
L11028 8829
" />
<path d="M12859 8829
L12209 8829
" />
<path d="M10379 6349
L11028 6349
" />
<path d="M12859 6349
L12209 6349
" />
<path d="M12859 6349
L12859 8829
" />
<path d="M10379 6349
L10379 8829
" />
<path d="M12371.3 8341.34 A1063.44 1063.44 0.0 0 0 12371.3 6837.4 " />
<path d="M10867.3 6837.4 A1063.44 1063.44 0.0 0 0 10867.3 8341.34 " />
<path d="M10600 4459
L8553 4459
" />
<path d="M8553 4459
L8238 4774
" />
<path d="M8238 4774
L8238 5719
" />
<path d="M8238 5719
L10600 5719
" />
<path d="M10600 5719
L10600 4459
" />
<path d="M11938 10959
L11938 12219
" />
<path d="M14300 10959
L11938 10959
" />
<path d="M14300 11904
L14300 10959
" />
<path d="M13985 12219
L14300 11904
" />
<path d="M11938 12219
L13985 12219
" />
<path d="M2018 15100
L2018 16202
" />
<path d="M2018 16202
L2293 16478
" />
<path d="M2293 16478
L3120 16478
" />
<path d="M3120 16478
L3120 15100
" />
<path d="M3120 15100
L2018 15100
" />
<path d="M19899 15204
L18639 15204
" />
<path d="M19899 14574
L19899 15204
" />
<path d="M18639 14574
L19899 14574
" />
<path d="M18639 15204
L18639 14574
" />
<path d="M16749 3189
L16749 1142
" />
<path d="M16749 1142
L16434 827
" />
<path d="M16434 827
L15489 827
" />
<path d="M15489 827
L15489 3189
" />
<path d="M15489 3189
L16749 3189
" />
<path d="M12032 2285
L14512 2285
" />
<path d="M14512 2285
L14906 1892
" />
<path d="M14906 1892
L14906 592
" />
<path d="M14906 592
L12032 592
" />
<path d="M12032 592
L12032 2285
" />
<path d="M11189 5320
L12449 5320
" />
<path d="M11189 2958
L11189 5320
" />
<path d="M12134 2958
L11189 2958
" />
<path d="M12449 3273
L12134 2958
" />
<path d="M12449 5320
L12449 3273
" />
<path d="M11050 876
L8688 876
" />
<path d="M11050 3750
L11050 876
" />
<path d="M9081 3750
L11050 3750
" />
<path d="M8688 3357
L9081 3750
" />
<path d="M8688 876
L8688 3357
" />
<path d="M2439 6054
L2439 5424
" />
<path d="M2439 5424
L3699 5424
" />
<path d="M3699 5424
L3699 6054
" />
<path d="M3699 6054
L2439 6054
" />
<path d="M27006 108
L24525 108
" />
<path d="M24525 108
L24132 501
" />
<path d="M24132 501
L24132 2470
" />
<path d="M24132 2470
L27006 2470
" />
<path d="M27006 2470
L27006 108
" />
<path d="M25452 4690
L25452 3588
" />
<path d="M24075 4690
L25452 4690
" />
<path d="M24075 3863
L24075 4690
" />
<path d="M24350 3588
L24075 3863
" />
<path d="M25452 3588
L24350 3588
" />
<path d="M21254 3124
L21884 3124
" />
<path d="M21884 3124
L21884 4384
" />
<path d="M21884 4384
L21254 4384
" />
<path d="M21254 4384
L21254 3124
" />
<path d="M23332 16324
L22230 16324
" />
<path d="M22230 16324
L22072 16481
" />
<path d="M22072 16481
L22072 16954
" />
<path d="M22072 16954
L23332 16954
" />
<path d="M23332 16954
L23332 16324
" />
<path d="M25939 16324
L25939 16954
" />
<path d="M27199 16324
L25939 16324
" />
<path d="M27199 16796
L27199 16324
" />
<path d="M27041 16954
L27199 16796
" />
<path d="M25939 16954
L27041 16954
" />
<path d="M23988 16954
L25090 16954
" />
<path d="M25090 16954
L25248 16796
" />
<path d="M25248 16796
L25248 16324
" />
<path d="M25248 16324
L23988 16324
" />
<path d="M23988 16324
L23988 16954
" />
<path d="M20119 12639
L20369 12889
" />
<path d="M16369 12639
L20119 12639
" />
<path d="M16369 13639
L16369 12639
" />
<path d="M20369 13639
L16369 13639
" />
<path d="M20369 12889
L20369 13639
" />
<path d="M23299 15804
L22039 15804
" />
<path d="M23299 15174
L23299 15804
" />
<path d="M22039 15174
L23299 15174
" />
<path d="M22039 15804
L22039 15174
" />
<path d="M23989 15804
L23989 15174
" />
<path d="M23989 15174
L25249 15174
" />
<path d="M25249 15174
L25249 15804
" />
<path d="M25249 15804
L23989 15804
" />
<path d="M21399 16324
L20296 16324
" />
<path d="M20296 16324
L20139 16481
" />
<path d="M20139 16481
L20139 16954
" />
<path d="M20139 16954
L21399 16954
" />
<path d="M21399 16954
L21399 16324
" />
<path d="M10869 12489
L10119 12489
" />
<path d="M10119 12489
L10119 10489
" />
<path d="M10119 10489
L11119 10489
" />
<path d="M11119 10489
L11119 12239
" />
<path d="M11119 12239
L10869 12489
" />
<path d="M16222 19426
L16222 17159
" />
<path d="M14844 19426
L14844 17159
" />
<path d="M16222 19426
L14844 19426
" />
<path d="M14175 14485
L14175 15800
" />
<path d="M17009 14485
L16891 14485
" />
<path d="M16891 15800
L14175 15800
" />
<path d="M14057 14485
L14057 17159
" />
<path d="M17009 17159
L14057 17159
" />
<path d="M17009 14485
L17009 17159
" />
<path d="M14175 14485
L14057 14485
" />
<path d="M16891 14485
L16891 15800
" />
</g>
<g style="fill:#848484; fill-opacity:0.0; 
stroke:#848484; stroke-width:59.0551; stroke-opacity:1; 
stroke-linecap:round; stroke-linejoin:round;">
<path d="M7101 2995
L6876 2995
" />
<path d="M6988 2995
L6988 2602
L6951 2658
L6913 2695
L6876 2714
" />
<path d="M7344 2602
L7382 2602
L7419 2620
L7438 2639
L7457 2677
L7475 2752
L7475 2845
L7457 2920
L7438 2958
L7419 2977
L7382 2995
L7344 2995
L7307 2977
L7288 2958
L7269 2920
L7251 2845
L7251 2752
L7269 2677
L7288 2639
L7307 2620
L7344 2602
" />
<path d="M7813 2733
L7813 2995
" />
<path d="M7644 2733
L7644 2939
L7663 2977
L7700 2995
L7757 2995
L7794 2977
L7813 2958
" />
</g>
<g style="fill:#848484; fill-opacity:0.0; 
stroke:#848484; stroke-width:47.2441; stroke-opacity:1; 
stroke-linecap:round; stroke-linejoin:round;">
<path d="M7151 2201
L7136 2216
L7091 2231
L7061 2231
L7016 2216
L6986 2186
L6971 2156
L6956 2096
L6956 2051
L6971 1991
L6986 1961
L7016 1931
L7061 1916
L7091 1916
L7136 1931
L7151 1946
" />
<path d="M7451 2231
L7271 2231
" />
<path d="M7361 2231
L7361 1916
L7331 1961
L7301 1991
L7271 2006
" />
<path d="M7556 1916
L7751 1916
L7646 2036
L7691 2036
L7721 2051
L7736 2066
L7751 2096
L7751 2171
L7736 2201
L7721 2216
L7691 2231
L7601 2231
L7571 2216
L7556 2201
" />
</g>
<g style="fill:#848484; fill-opacity:0.0; 
stroke:#848484; stroke-width:59.0551; stroke-opacity:1; 
stroke-linecap:round; stroke-linejoin:round;">
<path d="M20159 15755
L20159 16017
" />
<path d="M20066 15605
L19972 15886
L20216 15886
" />
<path d="M20366 16017
L20366 15623
" />
<path d="M20591 16017
L20422 15792
" />
<path d="M20591 15623
L20366 15848
" />
<path d="M20722 15623
L20984 15623
L20816 16017
" />
</g>
<g style="fill:#848484; fill-opacity:0.0; 
stroke:#848484; stroke-width:47.2441; stroke-opacity:1; 
stroke-linecap:round; stroke-linejoin:round;">
<path d="M19216 15881
L19111 15731
" />
<path d="M19036 15881
L19036 15566
L19156 15566
L19186 15581
L19201 15596
L19216 15626
L19216 15671
L19201 15701
L19186 15716
L19156 15731
L19036 15731
" />
<path d="M19336 15596
L19351 15581
L19381 15566
L19456 15566
L19486 15581
L19501 15596
L19516 15626
L19516 15656
L19501 15701
L19321 15881
L19516 15881
" />
</g>
<g style="fill:#848484; fill-opacity:0.0; 
stroke:#848484; stroke-width:59.0551; stroke-opacity:1; 
stroke-linecap:round; stroke-linejoin:round;">
<path d="M10803 9023
L11066 9023
L10897 9417
" />
<path d="M11216 9417
L11216 9023
" />
<path d="M11441 9417
L11272 9192
" />
<path d="M11441 9023
L11216 9248
" />
<path d="M11797 9023
L11609 9023
L11591 9211
L11609 9192
L11647 9173
L11741 9173
L11778 9192
L11797 9211
L11816 9248
L11816 9342
L11797 9379
L11778 9398
L11741 9417
L11647 9417
L11609 9398
L11591 9379
" />
</g>
<g style="fill:#848484; fill-opacity:0.0; 
stroke:#848484; stroke-width:47.2441; stroke-opacity:1; 
stroke-linecap:round; stroke-linejoin:round;">
<path d="M11216 9981
L11111 9831
" />
<path d="M11036 9981
L11036 9666
L11156 9666
L11186 9681
L11201 9696
L11216 9726
L11216 9771
L11201 9801
L11186 9816
L11156 9831
L11036 9831
" />
<path d="M11321 9666
L11516 9666
L11411 9786
L11456 9786
L11486 9801
L11501 9816
L11516 9846
L11516 9921
L11501 9951
L11486 9966
L11456 9981
L11366 9981
L11336 9966
L11321 9951
" />
</g>
<g style="fill:#848484; fill-opacity:0.0; 
stroke:#848484; stroke-width:59.0551; stroke-opacity:1; 
stroke-linecap:round; stroke-linejoin:round;">
<path d="M15059 13305
L15059 13567
" />
<path d="M14966 13155
L14872 13436
L15116 13436
" />
<path d="M15228 13173
L15491 13173
L15322 13567
" />
<path d="M15641 13567
L15641 13173
" />
<path d="M15866 13567
L15697 13342
" />
<path d="M15866 13173
L15641 13398
" />
</g>
<g style="fill:#848484; fill-opacity:0.0; 
stroke:#848484; stroke-width:47.2441; stroke-opacity:1; 
stroke-linecap:round; stroke-linejoin:round;">
<path d="M15356 14131
L15251 13981
" />
<path d="M15176 14131
L15176 13816
L15296 13816
L15326 13831
L15341 13846
L15356 13876
L15356 13921
L15341 13951
L15326 13966
L15296 13981
L15176 13981
" />
<path d="M15626 13921
L15626 14131
" />
<path d="M15551 13801
L15476 14026
L15671 14026
" />
</g>
<g style="fill:#848484; fill-opacity:0.0; 
stroke:#848484; stroke-width:59.0551; stroke-opacity:1; 
stroke-linecap:round; stroke-linejoin:round;">
<path d="M4084 15067
L3859 15067
" />
<path d="M3972 15067
L3972 14673
L3934 14730
L3897 14767
L3859 14786
" />
<path d="M4253 15067
L4253 14673
" />
<path d="M4478 15067
L4309 14842
" />
<path d="M4478 14673
L4253 14898
" />
</g>
<g style="fill:#848484; fill-opacity:0.0; 
stroke:#848484; stroke-width:47.2441; stroke-opacity:1; 
stroke-linecap:round; stroke-linejoin:round;">
<path d="M4027 15681
L3922 15531
" />
<path d="M3847 15681
L3847 15366
L3967 15366
L3997 15381
L4012 15396
L4027 15426
L4027 15471
L4012 15501
L3997 15516
L3967 15531
L3847 15531
" />
<path d="M4311 15366
L4162 15366
L4147 15516
L4162 15501
L4192 15486
L4267 15486
L4297 15501
L4311 15516
L4326 15546
L4326 15621
L4311 15651
L4297 15666
L4267 15681
L4192 15681
L4162 15666
L4147 15651
" />
</g>
<g style="fill:#848484; fill-opacity:0.0; 
stroke:#848484; stroke-width:59.0551; stroke-opacity:1; 
stroke-linecap:round; stroke-linejoin:round;">
<path d="M5144 15077
L4919 15077
" />
<path d="M5032 15077
L5032 14683
L4994 14740
L4957 14777
L4919 14796
" />
<path d="M5313 15077
L5313 14683
" />
<path d="M5538 15077
L5369 14852
" />
<path d="M5538 14683
L5313 14908
" />
</g>
<g style="fill:#848484; fill-opacity:0.0; 
stroke:#848484; stroke-width:47.2441; stroke-opacity:1; 
stroke-linecap:round; stroke-linejoin:round;">
<path d="M5956 15681
L5851 15531
" />
<path d="M5776 15681
L5776 15366
L5896 15366
L5926 15381
L5941 15396
L5956 15426
L5956 15471
L5941 15501
L5926 15516
L5896 15531
L5776 15531
" />
<path d="M6226 15366
L6166 15366
L6136 15381
L6121 15396
L6091 15441
L6076 15501
L6076 15621
L6091 15651
L6106 15666
L6136 15681
L6196 15681
L6226 15666
L6241 15651
L6256 15621
L6256 15546
L6241 15516
L6226 15501
L6196 15486
L6136 15486
L6106 15501
L6091 15516
L6076 15546
" />
</g>
<g style="fill:#848484; fill-opacity:0.0; 
stroke:#848484; stroke-width:59.0551; stroke-opacity:1; 
stroke-linecap:round; stroke-linejoin:round;">
<path d="M7201 7498
L7463 7498
" />
<path d="M7051 7592
L7332 7686
L7332 7442
" />
<path d="M7070 7329
L7070 7067
L7463 7236
" />
<path d="M7463 6917
L7070 6917
" />
<path d="M7463 6692
L7238 6861
" />
<path d="M7070 6692
L7295 6917
" />
</g>
<g style="fill:#848484; fill-opacity:0.0; 
stroke:#848484; stroke-width:47.2441; stroke-opacity:1; 
stroke-linecap:round; stroke-linejoin:round;">
<path d="M6711 7241
L6561 7346
" />
<path d="M6711 7421
L6396 7421
L6396 7301
L6411 7271
L6426 7256
L6456 7241
L6501 7241
L6531 7256
L6546 7271
L6561 7301
L6561 7421
" />
<path d="M6396 7136
L6396 6926
L6711 7061
" />
</g>
<g style="fill:#848484; fill-opacity:0.0; 
stroke:#848484; stroke-width:59.0551; stroke-opacity:1; 
stroke-linecap:round; stroke-linejoin:round;">
<path d="M8397 10467
L8172 10467
" />
<path d="M8284 10467
L8284 10073
L8247 10130
L8209 10167
L8172 10186
" />
<path d="M8641 10073
L8678 10073
L8716 10092
L8734 10111
L8753 10148
L8772 10223
L8772 10317
L8753 10392
L8734 10429
L8716 10448
L8678 10467
L8641 10467
L8603 10448
L8584 10429
L8566 10392
L8547 10317
L8547 10223
L8566 10148
L8584 10111
L8603 10092
L8641 10073
" />
<path d="M8941 10467
L8941 10073
" />
<path d="M9166 10467
L8997 10242
" />
<path d="M9166 10073
L8941 10298
" />
</g>
<g style="fill:#848484; fill-opacity:0.0; 
stroke:#848484; stroke-width:47.2441; stroke-opacity:1; 
stroke-linecap:round; stroke-linejoin:round;">
<path d="M8366 9631
L8261 9481
" />
<path d="M8186 9631
L8186 9316
L8306 9316
L8336 9331
L8351 9346
L8366 9376
L8366 9421
L8351 9451
L8336 9466
L8306 9481
L8186 9481
" />
<path d="M8666 9631
L8486 9631
" />
<path d="M8576 9631
L8576 9316
L8546 9361
L8516 9391
L8486 9406
" />
<path d="M8951 9316
L8801 9316
L8786 9466
L8801 9451
L8831 9436
L8906 9436
L8936 9451
L8951 9466
L8966 9496
L8966 9571
L8951 9601
L8936 9616
L8906 9631
L8831 9631
L8801 9616
L8786 9601
" />
</g>
<g style="fill:#848484; fill-opacity:0.0; 
stroke:#848484; stroke-width:59.0551; stroke-opacity:1; 
stroke-linecap:round; stroke-linejoin:round;">
<path d="M20403 5279
L20403 5467
L20591 5486
L20572 5467
L20553 5429
L20553 5336
L20572 5298
L20591 5279
L20628 5261
L20722 5261
L20759 5279
L20778 5298
L20797 5336
L20797 5429
L20778 5467
L20759 5486
" />
<path d="M20797 5092
L20403 5092
" />
<path d="M20797 4867
L20572 5036
" />
<path d="M20403 4867
L20628 5092
" />
<path d="M20797 4492
L20797 4717
" />
<path d="M20797 4605
L20403 4605
L20459 4642
L20497 4680
L20516 4717
" />
</g>
<g style="fill:#848484; fill-opacity:0.0; 
stroke:#848484; stroke-width:47.2441; stroke-opacity:1; 
stroke-linecap:round; stroke-linejoin:round;">
<path d="M20811 3957
L20661 4061
" />
<path d="M20811 4136
L20496 4136
L20496 4016
L20511 3986
L20526 3972
L20556 3957
L20601 3957
L20631 3972
L20646 3986
L20661 4016
L20661 4136
" />
<path d="M20526 3837
L20511 3822
L20496 3792
L20496 3717
L20511 3687
L20526 3672
L20556 3657
L20586 3657
L20631 3672
L20811 3852
L20811 3657
" />
<path d="M20496 3462
L20496 3432
L20511 3402
L20526 3387
L20556 3372
L20616 3357
L20691 3357
L20751 3372
L20781 3387
L20796 3402
L20811 3432
L20811 3462
L20796 3492
L20781 3507
L20751 3522
L20691 3537
L20616 3537
L20556 3522
L20526 3507
L20511 3492
L20496 3462
" />
</g>
<g style="fill:#848484; fill-opacity:0.0; 
stroke:#848484; stroke-width:59.0551; stroke-opacity:1; 
stroke-linecap:round; stroke-linejoin:round;">
<path d="M23419 12355
L23419 12617
" />
<path d="M23325 12205
L23231 12486
L23475 12486
" />
<path d="M23588 12223
L23850 12223
L23681 12617
" />
<path d="M24075 12223
L24112 12223
L24150 12242
L24169 12261
L24187 12298
L24206 12373
L24206 12467
L24187 12542
L24169 12579
L24150 12598
L24112 12617
L24075 12617
L24038 12598
L24019 12579
L24000 12542
L23981 12467
L23981 12373
L24000 12298
L24019 12261
L24038 12242
L24075 12223
" />
</g>
<g style="fill:#848484; fill-opacity:0.0; 
stroke:#848484; stroke-width:47.2441; stroke-opacity:1; 
stroke-linecap:round; stroke-linejoin:round;">
<path d="M23516 13231
L23411 13081
" />
<path d="M23336 13231
L23336 12916
L23456 12916
L23486 12931
L23501 12946
L23516 12976
L23516 13021
L23501 13051
L23486 13066
L23456 13081
L23336 13081
" />
<path d="M23636 12946
L23651 12931
L23681 12916
L23756 12916
L23786 12931
L23801 12946
L23816 12976
L23816 13006
L23801 13051
L23621 13231
L23816 13231
" />
<path d="M23936 12946
L23951 12931
L23981 12916
L24056 12916
L24086 12931
L24101 12946
L24116 12976
L24116 13006
L24101 13051
L23921 13231
L24116 13231
" />
</g>
<g style="fill:#848484; fill-opacity:0.0; 
stroke:#848484; stroke-width:59.0551; stroke-opacity:1; 
stroke-linecap:round; stroke-linejoin:round;">
<path d="M13009 9405
L13009 9667
" />
<path d="M12916 9255
L12822 9536
L13066 9536
" />
<path d="M13178 9273
L13422 9273
L13291 9423
L13347 9423
L13384 9442
L13403 9461
L13422 9498
L13422 9592
L13403 9629
L13384 9648
L13347 9667
L13234 9667
L13197 9648
L13178 9629
" />
<path d="M13591 9667
L13591 9273
" />
<path d="M13816 9667
L13647 9442
" />
<path d="M13816 9273
L13591 9498
" />
</g>
<g style="fill:#848484; fill-opacity:0.0; 
stroke:#848484; stroke-width:47.2441; stroke-opacity:1; 
stroke-linecap:round; stroke-linejoin:round;">
<path d="M13216 10281
L13111 10131
" />
<path d="M13036 10281
L13036 9966
L13156 9966
L13186 9981
L13201 9996
L13216 10026
L13216 10071
L13201 10101
L13186 10116
L13156 10131
L13036 10131
" />
<path d="M13516 10281
L13336 10281
" />
<path d="M13426 10281
L13426 9966
L13396 10011
L13366 10041
L13336 10056
" />
</g>
<g style="fill:#848484; fill-opacity:0.0; 
stroke:#848484; stroke-width:29.5276; stroke-opacity:1; 
stroke-linecap:round; stroke-linejoin:round;">
<path d="M4620 1834
L4611 1852
L4592 1871
L4564 1899
L4555 1918
L4555 1937
" />
<path d="M4602 1927
L4592 1946
L4573 1965
L4536 1974
L4470 1974
L4433 1965
L4414 1946
L4405 1927
L4405 1890
L4414 1871
L4433 1852
L4470 1843
L4536 1843
L4573 1852
L4592 1871
L4602 1890
L4602 1927
" />
<path d="M4602 1655
L4602 1768
" />
<path d="M4602 1712
L4405 1712
L4433 1730
L4452 1749
L4461 1768
" />
</g>
<g style="fill:#848484; fill-opacity:0.0; 
stroke:#848484; stroke-width:59.0551; stroke-opacity:1; 
stroke-linecap:round; stroke-linejoin:round;">
<path d="M2534 2098
L2797 2098
" />
<path d="M2384 2192
L2666 2286
L2666 2042
" />
<path d="M2797 1892
L2403 1892
" />
<path d="M2797 1667
L2572 1836
" />
<path d="M2403 1667
L2628 1892
" />
<path d="M2403 1536
L2403 1273
L2797 1442
" />
</g>
<g style="fill:#848484; fill-opacity:0.0; 
stroke:#848484; stroke-width:47.2441; stroke-opacity:1; 
stroke-linecap:round; stroke-linejoin:round;">
<path d="M3411 1852
L3261 1957
" />
<path d="M3411 2032
L3096 2032
L3096 1912
L3111 1882
L3126 1867
L3156 1852
L3201 1852
L3231 1867
L3246 1882
L3261 1912
L3261 2032
" />
<path d="M3411 1552
L3411 1732
" />
<path d="M3411 1642
L3096 1642
L3141 1672
L3171 1702
L3186 1732
" />
<path d="M3096 1447
L3096 1252
L3216 1357
L3216 1312
L3231 1282
L3246 1267
L3276 1252
L3351 1252
L3381 1267
L3396 1282
L3411 1312
L3411 1402
L3396 1432
L3381 1447
" />
</g>
<g style="fill:#848484; fill-opacity:0.0; 
stroke:#848484; stroke-width:59.0551; stroke-opacity:1; 
stroke-linecap:round; stroke-linejoin:round;">
<path d="M20337 1505
L20337 1767
" />
<path d="M20243 1355
L20150 1636
L20393 1636
" />
<path d="M20506 1373
L20768 1373
L20600 1767
" />
<path d="M20993 1373
L21031 1373
L21068 1392
L21087 1411
L21106 1448
L21124 1523
L21124 1617
L21106 1692
L21087 1729
L21068 1748
L21031 1767
L20993 1767
L20956 1748
L20937 1729
L20918 1692
L20899 1617
L20899 1523
L20918 1448
L20937 1411
L20956 1392
L20993 1373
" />
</g>
<g style="fill:#848484; fill-opacity:0.0; 
stroke:#848484; stroke-width:47.2441; stroke-opacity:1; 
stroke-linecap:round; stroke-linejoin:round;">
<path d="M20385 2381
L20280 2231
" />
<path d="M20205 2381
L20205 2066
L20325 2066
L20355 2081
L20370 2096
L20385 2126
L20385 2171
L20370 2201
L20355 2216
L20325 2231
L20205 2231
" />
<path d="M20684 2381
L20505 2381
" />
<path d="M20594 2381
L20594 2066
L20565 2111
L20535 2141
L20505 2156
" />
<path d="M20954 2171
L20954 2381
" />
<path d="M20879 2051
L20804 2276
L20999 2276
" />
</g>
<g style="fill:#848484; fill-opacity:0.0; 
stroke:#848484; stroke-width:59.0551; stroke-opacity:1; 
stroke-linecap:round; stroke-linejoin:round;">
<path d="M3641 17798
L3697 17817
L3791 17817
L3828 17798
L3847 17779
L3866 17742
L3866 17704
L3847 17667
L3828 17648
L3791 17629
L3716 17611
L3678 17592
L3659 17573
L3641 17536
L3641 17498
L3659 17461
L3678 17442
L3716 17423
L3809 17423
L3866 17442
" />
<path d="M3978 17423
L4203 17423
" />
<path d="M4091 17817
L4091 17423
" />
<path d="M4466 17611
L4522 17629
L4541 17648
L4559 17686
L4559 17742
L4541 17779
L4522 17798
L4484 17817
L4334 17817
L4334 17423
L4466 17423
L4503 17442
L4522 17461
L4541 17498
L4541 17536
L4522 17573
L4503 17592
L4466 17611
L4334 17611
" />
<path d="M4803 17629
L4803 17817
" />
<path d="M4672 17423
L4803 17629
L4934 17423
" />
</g>
<g style="fill:#848484; fill-opacity:0.0; 
stroke:#848484; stroke-width:47.2441; stroke-opacity:1; 
stroke-linecap:round; stroke-linejoin:round;">
<path d="M3836 16781
L3836 16466
L3911 16466
L3956 16481
L3986 16511
L4001 16541
L4016 16601
L4016 16646
L4001 16706
L3986 16736
L3956 16766
L3911 16781
L3836 16781
" />
<path d="M4136 16496
L4151 16481
L4181 16466
L4256 16466
L4286 16481
L4301 16496
L4316 16526
L4316 16556
L4301 16601
L4121 16781
L4316 16781
" />
</g>
<g style="fill:#848484; fill-opacity:0.0; 
stroke:#848484; stroke-width:59.0551; stroke-opacity:1; 
stroke-linecap:round; stroke-linejoin:round;">
<path d="M5541 17829
L5522 17848
L5466 17867
L5428 17867
L5372 17848
L5335 17811
L5316 17773
L5297 17698
L5297 17642
L5316 17567
L5335 17530
L5372 17492
L5428 17473
L5466 17473
L5522 17492
L5541 17511
" />
<path d="M5709 17867
L5709 17473
" />
<path d="M5709 17661
L5934 17661
" />
<path d="M5934 17867
L5934 17473
" />
<path d="M6347 17867
L6216 17679
" />
<path d="M6122 17867
L6122 17473
L6272 17473
L6309 17492
L6328 17511
L6347 17548
L6347 17605
L6328 17642
L6309 17661
L6272 17679
L6122 17679
" />
<path d="M6722 17492
L6684 17473
L6628 17473
L6572 17492
L6534 17530
L6516 17567
L6497 17642
L6497 17698
L6516 17773
L6534 17811
L6572 17848
L6628 17867
L6666 17867
L6722 17848
L6741 17829
L6741 17698
L6666 17698
" />
</g>
<g style="fill:#848484; fill-opacity:0.0; 
stroke:#848484; stroke-width:47.2441; stroke-opacity:1; 
stroke-linecap:round; stroke-linejoin:round;">
<path d="M5772 16781
L5772 16466
L5847 16466
L5892 16481
L5922 16511
L5937 16541
L5952 16601
L5952 16646
L5937 16706
L5922 16736
L5892 16766
L5847 16781
L5772 16781
" />
<path d="M6057 16466
L6252 16466
L6147 16586
L6192 16586
L6222 16601
L6237 16616
L6252 16646
L6252 16721
L6237 16751
L6222 16766
L6192 16781
L6102 16781
L6072 16766
L6057 16751
" />
</g>
<g style="fill:#848484; fill-opacity:0.0; 
stroke:#848484; stroke-width:59.0551; stroke-opacity:1; 
stroke-linecap:round; stroke-linejoin:round;">
<path d="M17694 17817
L17694 17423
L17844 17423
L17881 17442
L17900 17461
L17919 17498
L17919 17555
L17900 17592
L17881 17611
L17844 17629
L17694 17629
" />
<path d="M18050 17423
L18144 17817
L18219 17536
L18294 17817
L18388 17423
" />
<path d="M18762 17817
L18631 17629
" />
<path d="M18538 17817
L18538 17423
L18687 17423
L18725 17442
L18744 17461
L18762 17498
L18762 17555
L18744 17592
L18725 17611
L18687 17629
L18538 17629
" />
</g>
<g style="fill:#848484; fill-opacity:0.0; 
stroke:#848484; stroke-width:47.2441; stroke-opacity:1; 
stroke-linecap:round; stroke-linejoin:round;">
<path d="M17936 16781
L17936 16466
L18011 16466
L18056 16481
L18086 16511
L18101 16541
L18116 16601
L18116 16646
L18101 16706
L18086 16736
L18056 16766
L18011 16781
L17936 16781
" />
<path d="M18386 16571
L18386 16781
" />
<path d="M18311 16451
L18236 16676
L18431 16676
" />
</g>
<g style="fill:#848484; fill-opacity:0.0; 
stroke:#848484; stroke-width:59.0551; stroke-opacity:1; 
stroke-linecap:round; stroke-linejoin:round;">
<path d="M13732 5533
L13995 5533
" />
<path d="M13582 5626
L13864 5720
L13864 5476
" />
<path d="M13601 5383
L13995 5251
L13601 5120
" />
<path d="M5491 4555
L5491 4817
" />
<path d="M5397 4405
L5303 4686
L5547 4686
" />
<path d="M5659 4423
L5922 4423
L5753 4817
" />
<path d="M6147 4423
L6184 4423
L6222 4442
L6241 4461
L6259 4498
L6278 4573
L6278 4667
L6259 4742
L6241 4779
L6222 4798
L6184 4817
L6147 4817
L6109 4798
L6091 4779
L6072 4742
L6053 4667
L6053 4573
L6072 4498
L6091 4461
L6109 4442
L6147 4423
" />
<path d="M6616 4555
L6616 4817
" />
<path d="M6447 4555
L6447 4761
L6466 4798
L6503 4817
L6559 4817
L6597 4798
L6616 4779
" />
<path d="M5803 5329
L5784 5348
L5728 5367
L5691 5367
L5634 5348
L5597 5311
L5578 5273
L5559 5198
L5559 5142
L5578 5067
L5597 5030
L5634 4992
L5691 4973
L5728 4973
L5784 4992
L5803 5011
" />
<path d="M6178 5367
L5953 5367
" />
<path d="M6066 5367
L6066 4973
L6028 5030
L5991 5067
L5953 5086
" />
<path d="M18113 1767
L17888 1767
" />
<path d="M18001 1767
L18001 1373
L17963 1430
L17926 1467
L17888 1486
" />
<path d="M18357 1373
L18394 1373
L18432 1392
L18451 1411
L18469 1448
L18488 1523
L18488 1617
L18469 1692
L18451 1729
L18432 1748
L18394 1767
L18357 1767
L18319 1748
L18301 1729
L18282 1692
L18263 1617
L18263 1523
L18282 1448
L18301 1411
L18319 1392
L18357 1373
" />
<path d="M18732 1373
L18769 1373
L18807 1392
L18825 1411
L18844 1448
L18863 1523
L18863 1617
L18844 1692
L18825 1729
L18807 1748
L18769 1767
L18732 1767
L18694 1748
L18675 1729
L18657 1692
L18638 1617
L18638 1523
L18657 1448
L18675 1411
L18694 1392
L18732 1373
" />
<path d="M19032 1505
L19032 1767
" />
<path d="M19032 1542
L19050 1523
L19088 1505
L19144 1505
L19182 1523
L19200 1561
L19200 1767
" />
</g>
<g style="fill:#848484; fill-opacity:0.0; 
stroke:#848484; stroke-width:47.2441; stroke-opacity:1; 
stroke-linecap:round; stroke-linejoin:round;">
<path d="M18501 2351
L18486 2366
L18441 2381
L18411 2381
L18366 2366
L18336 2336
L18321 2306
L18306 2246
L18306 2201
L18321 2141
L18336 2111
L18366 2081
L18411 2066
L18441 2066
L18486 2081
L18501 2096
" />
<path d="M18771 2066
L18711 2066
L18681 2081
L18666 2096
L18636 2141
L18621 2201
L18621 2321
L18636 2351
L18651 2366
L18681 2381
L18741 2381
L18771 2366
L18786 2351
L18801 2321
L18801 2246
L18786 2216
L18771 2201
L18741 2186
L18681 2186
L18651 2201
L18636 2216
L18621 2246
" />
</g>
<g style="fill:#848484; fill-opacity:0.0; 
stroke:#848484; stroke-width:59.0551; stroke-opacity:1; 
stroke-linecap:round; stroke-linejoin:round;">
<path d="M6872 173
L7116 173
L6984 323
L7041 323
L7078 342
L7097 361
L7116 398
L7116 492
L7097 529
L7078 548
L7041 567
L6928 567
L6891 548
L6872 529
" />
<path d="M7247 173
L7491 173
L7359 323
L7416 323
L7453 342
L7472 361
L7491 398
L7491 492
L7472 529
L7453 548
L7416 567
L7303 567
L7266 548
L7247 529
" />
<path d="M7659 305
L7659 698
" />
<path d="M7659 323
L7697 305
L7772 305
L7809 323
L7828 342
L7847 379
L7847 492
L7828 529
L7809 548
L7772 567
L7697 567
L7659 548
" />
</g>
<g style="fill:#848484; fill-opacity:0.0; 
stroke:#848484; stroke-width:47.2441; stroke-opacity:1; 
stroke-linecap:round; stroke-linejoin:round;">
<path d="M7151 1201
L7136 1216
L7091 1231
L7061 1231
L7016 1216
L6986 1186
L6971 1156
L6956 1096
L6956 1051
L6971 991
L6986 961
L7016 931
L7061 916
L7091 916
L7136 931
L7151 946
" />
<path d="M7451 1231
L7271 1231
" />
<path d="M7361 1231
L7361 916
L7331 961
L7301 991
L7271 1006
" />
<path d="M7571 946
L7586 931
L7616 916
L7691 916
L7721 931
L7736 946
L7751 976
L7751 1006
L7736 1051
L7556 1231
L7751 1231
" />
</g>
<g style="fill:#848484; fill-opacity:0.0; 
stroke:#848484; stroke-width:59.0551; stroke-opacity:1; 
stroke-linecap:round; stroke-linejoin:round;">
<path d="M22597 4854
L22597 5079
" />
<path d="M22597 4967
L22203 4967
L22259 5004
L22297 5042
L22316 5079
" />
<path d="M22334 4517
L22597 4517
" />
<path d="M22334 4686
L22541 4686
L22578 4667
L22597 4630
L22597 4573
L22578 4536
L22559 4517
" />
</g>
<g style="fill:#848484; fill-opacity:0.0; 
stroke:#848484; stroke-width:47.2441; stroke-opacity:1; 
stroke-linecap:round; stroke-linejoin:round;">
<path d="M22581 3941
L22596 3956
L22611 4001
L22611 4031
L22596 4076
L22566 4106
L22536 4121
L22476 4136
L22431 4136
L22371 4121
L22341 4106
L22311 4076
L22296 4031
L22296 4001
L22311 3956
L22326 3941
" />
<path d="M22611 3641
L22611 3821
" />
<path d="M22611 3731
L22296 3731
L22341 3761
L22371 3791
L22386 3821
" />
<path d="M22401 3371
L22611 3371
" />
<path d="M22281 3446
L22506 3521
L22506 3326
" />
</g>
<g style="fill:#848484; fill-opacity:0.0; 
stroke:#848484; stroke-width:59.0551; stroke-opacity:1; 
stroke-linecap:round; stroke-linejoin:round;">
<path d="M14978 8711
L14997 8654
L14997 8561
L14978 8523
L14959 8504
L14922 8486
L14884 8486
L14847 8504
L14828 8523
L14809 8561
L14791 8636
L14772 8673
L14753 8692
L14716 8711
L14678 8711
L14641 8692
L14622 8673
L14603 8636
L14603 8542
L14622 8486
" />
<path d="M14997 8092
L14809 8223
" />
<path d="M14997 8317
L14603 8317
L14603 8167
L14622 8129
L14641 8111
L14678 8092
L14734 8092
L14772 8111
L14791 8129
L14809 8167
L14809 8317
" />
<path d="M14603 7736
L14603 7923
L14791 7942
L14772 7923
L14753 7886
L14753 7792
L14772 7755
L14791 7736
L14828 7717
L14922 7717
L14959 7736
L14978 7755
L14997 7792
L14997 7886
L14978 7923
L14959 7942
" />
<path d="M14734 7380
L14997 7380
" />
<path d="M14584 7473
L14866 7567
L14866 7323
" />
<path d="M14603 7098
L14603 7061
L14622 7023
L14641 7005
L14678 6986
L14753 6967
L14847 6967
L14922 6986
L14959 7005
L14978 7023
L14997 7061
L14997 7098
L14978 7136
L14959 7155
L14922 7173
L14847 7192
L14753 7192
L14678 7173
L14641 7155
L14622 7136
L14603 7098
" />
<path d="M13478 6817
L13478 6423
L13572 6423
L13628 6442
L13666 6480
L13684 6517
L13703 6592
L13703 6648
L13684 6723
L13666 6761
L13628 6798
L13572 6817
L13478 6817
" />
<path d="M14078 6817
L13853 6817
" />
<path d="M13966 6817
L13966 6423
L13928 6480
L13891 6517
L13853 6536
" />
<path d="M1228 4767
L1228 4373
L1322 4373
L1378 4392
L1416 4430
L1434 4467
L1453 4542
L1453 4598
L1434 4673
L1416 4711
L1378 4748
L1322 4767
L1228 4767
" />
<path d="M1809 4373
L1622 4373
L1603 4561
L1622 4542
L1659 4523
L1753 4523
L1791 4542
L1809 4561
L1828 4598
L1828 4692
L1809 4729
L1791 4748
L1753 4767
L1659 4767
L1622 4748
L1603 4729
" />
<path d="M1209 13310
L1490 13310
L1547 13329
L1584 13367
L1603 13423
L1603 13460
" />
<path d="M1603 12917
L1603 13142
" />
<path d="M1603 13029
L1209 13029
L1265 13067
L1303 13104
L1322 13142
" />
<path d="M3088 11906
L3219 12300
L3350 11906
" />
<path d="M3481 12300
L3481 11906
" />
<path d="M3669 12300
L3669 11906
L3894 12300
L3894 11906
" />
<path d="M3303 13670
L3584 13670
L3641 13689
L3678 13726
L3697 13783
L3697 13820
" />
<path d="M3303 13520
L3303 13276
L3453 13408
L3453 13351
L3472 13314
L3491 13295
L3528 13276
L3622 13276
L3659 13295
L3678 13314
L3697 13351
L3697 13464
L3678 13501
L3659 13520
" />
<path d="M22688 13923
L22688 14204
L22669 14261
L22631 14298
L22575 14317
L22538 14317
" />
<path d="M23044 14055
L23044 14317
" />
<path d="M22950 13905
L22856 14186
L23100 14186
" />
<path d="M14803 3826
L14803 3583
L14953 3714
L14953 3658
L14972 3620
L14991 3601
L15028 3583
L15122 3583
L15159 3601
L15178 3620
L15197 3658
L15197 3770
L15178 3808
L15159 3826
" />
<path d="M14803 3470
L15197 3339
L14803 3208
" />
<path d="M14803 3114
L14803 2870
L14953 3001
L14953 2945
L14972 2908
L14991 2889
L15028 2870
L15122 2870
L15159 2889
L15178 2908
L15197 2945
L15197 3058
L15178 3095
L15159 3114
" />
</g>
<g style="fill:#848484; fill-opacity:0.0; 
stroke:#848484; stroke-width:29.5276; stroke-opacity:1; 
stroke-linecap:round; stroke-linejoin:round;">
<path d="M6877 9558
L6867 9576
L6848 9595
L6820 9623
L6811 9642
L6811 9661
" />
<path d="M6858 9651
L6848 9670
L6830 9689
L6792 9698
L6727 9698
L6689 9689
L6670 9670
L6661 9651
L6661 9614
L6670 9595
L6689 9576
L6727 9567
L6792 9567
L6830 9576
L6848 9595
L6858 9614
L6858 9651
" />
<path d="M6680 9492
L6670 9483
L6661 9464
L6661 9417
L6670 9398
L6680 9389
L6698 9380
L6717 9380
L6745 9389
L6858 9501
L6858 9380
" />
<path d="M14577 5558
L14567 5576
L14548 5595
L14520 5623
L14511 5642
L14511 5661
" />
<path d="M14558 5651
L14548 5670
L14530 5689
L14492 5698
L14427 5698
L14389 5689
L14370 5670
L14361 5651
L14361 5614
L14370 5595
L14389 5576
L14427 5567
L14492 5567
L14530 5576
L14548 5595
L14558 5614
L14558 5651
" />
<path d="M14361 5501
L14361 5380
L14436 5445
L14436 5417
L14445 5398
L14455 5389
L14473 5380
L14520 5380
L14539 5389
L14548 5398
L14558 5417
L14558 5473
L14548 5492
L14539 5501
" />
</g>
<g style="fill:#848484; fill-opacity:0.0; 
stroke:#848484; stroke-width:59.0551; stroke-opacity:1; 
stroke-linecap:round; stroke-linejoin:round;">
<path d="M17309 14505
L17309 14767
" />
<path d="M17216 14355
L17122 14636
L17366 14636
" />
<path d="M17478 14373
L17741 14373
L17572 14767
" />
<path d="M17891 14767
L17891 14373
" />
<path d="M18116 14767
L17947 14542
" />
<path d="M18116 14373
L17891 14598
" />
</g>
<g style="fill:#848484; fill-opacity:0.0; 
stroke:#848484; stroke-width:47.2441; stroke-opacity:1; 
stroke-linecap:round; stroke-linejoin:round;">
<path d="M17277 14131
L17172 13981
" />
<path d="M17097 14131
L17097 13816
L17217 13816
L17247 13831
L17262 13846
L17277 13876
L17277 13921
L17262 13951
L17247 13966
L17217 13981
L17097 13981
" />
<path d="M17457 13951
L17427 13936
L17412 13921
L17397 13891
L17397 13876
L17412 13846
L17427 13831
L17457 13816
L17517 13816
L17547 13831
L17561 13846
L17576 13876
L17576 13891
L17561 13921
L17547 13936
L17517 13951
L17457 13951
L17427 13966
L17412 13981
L17397 14011
L17397 14071
L17412 14101
L17427 14116
L17457 14131
L17517 14131
L17547 14116
L17561 14101
L17576 14071
L17576 14011
L17561 13981
L17547 13966
L17517 13951
" />
</g>
<g style="fill:#848484; fill-opacity:0.0; 
stroke:#848484; stroke-width:59.0551; stroke-opacity:1; 
stroke-linecap:round; stroke-linejoin:round;">
<path d="M8397 15311
L8397 15536
" />
<path d="M8397 15423
L8003 15423
L8059 15461
L8097 15498
L8116 15536
" />
<path d="M8397 15142
L8003 15142
" />
<path d="M8397 14917
L8172 15086
" />
<path d="M8003 14917
L8228 15142
" />
<path d="M8041 14767
L8022 14748
L8003 14711
L8003 14617
L8022 14580
L8041 14561
L8078 14542
L8116 14542
L8172 14561
L8397 14786
L8397 14542
" />
</g>
<g style="fill:#848484; fill-opacity:0.0; 
stroke:#848484; stroke-width:47.2441; stroke-opacity:1; 
stroke-linecap:round; stroke-linejoin:round;">
<path d="M7811 16141
L7661 16246
" />
<path d="M7811 16321
L7496 16321
L7496 16201
L7511 16171
L7526 16156
L7556 16141
L7601 16141
L7631 16156
L7646 16171
L7661 16201
L7661 16321
" />
<path d="M7811 15991
L7811 15931
L7796 15901
L7781 15886
L7736 15856
L7676 15841
L7556 15841
L7526 15856
L7511 15871
L7496 15901
L7496 15961
L7511 15991
L7526 16006
L7556 16021
L7631 16021
L7661 16006
L7676 15991
L7691 15961
L7691 15901
L7676 15871
L7661 15856
L7631 15841
" />
</g>
<g style="fill:#848484; fill-opacity:0.0; 
stroke:#848484; stroke-width:59.0551; stroke-opacity:1; 
stroke-linecap:round; stroke-linejoin:round;">
<path d="M19053 13223
L19316 13223
L19147 13617
" />
<path d="M19466 13617
L19466 13223
" />
<path d="M19691 13617
L19522 13392
" />
<path d="M19691 13223
L19466 13448
" />
<path d="M20047 13223
L19859 13223
L19841 13411
L19859 13392
L19897 13373
L19991 13373
L20028 13392
L20047 13411
L20066 13448
L20066 13542
L20047 13579
L20028 13598
L19991 13617
L19897 13617
L19859 13598
L19841 13579
" />
</g>
<g style="fill:#848484; fill-opacity:0.0; 
stroke:#848484; stroke-width:47.2441; stroke-opacity:1; 
stroke-linecap:round; stroke-linejoin:round;">
<path d="M19077 14131
L18972 13981
" />
<path d="M18897 14131
L18897 13816
L19017 13816
L19047 13831
L19062 13846
L19077 13876
L19077 13921
L19062 13951
L19047 13966
L19017 13981
L18897 13981
" />
<path d="M19377 14131
L19197 14131
" />
<path d="M19287 14131
L19287 13816
L19257 13861
L19227 13891
L19197 13906
" />
<path d="M19571 13816
L19601 13816
L19631 13831
L19646 13846
L19661 13876
L19676 13936
L19676 14011
L19661 14071
L19646 14101
L19631 14116
L19601 14131
L19571 14131
L19541 14116
L19526 14101
L19511 14071
L19497 14011
L19497 13936
L19511 13876
L19526 13846
L19541 13831
L19571 13816
" />
</g>
<g style="fill:#848484; fill-opacity:0.0; 
stroke:#848484; stroke-width:59.0551; stroke-opacity:1; 
stroke-linecap:round; stroke-linejoin:round;">
<path d="M5259 2817
L5035 2817
" />
<path d="M5147 2817
L5147 2423
L5109 2480
L5072 2517
L5035 2536
" />
<path d="M5503 2423
L5541 2423
L5578 2442
L5597 2461
L5616 2498
L5634 2573
L5634 2667
L5616 2742
L5597 2779
L5578 2798
L5541 2817
L5503 2817
L5466 2798
L5447 2779
L5428 2742
L5409 2667
L5409 2573
L5428 2498
L5447 2461
L5466 2442
L5503 2423
" />
<path d="M5878 2423
L5916 2423
L5953 2442
L5972 2461
L5991 2498
L6009 2573
L6009 2667
L5991 2742
L5972 2779
L5953 2798
L5916 2817
L5878 2817
L5841 2798
L5822 2779
L5803 2742
L5784 2667
L5784 2573
L5803 2498
L5822 2461
L5841 2442
L5878 2423
" />
<path d="M6178 2817
L6178 2423
" />
<path d="M6403 2817
L6234 2592
" />
<path d="M6403 2423
L6178 2648
" />
</g>
<g style="fill:#848484; fill-opacity:0.0; 
stroke:#848484; stroke-width:47.2441; stroke-opacity:1; 
stroke-linecap:round; stroke-linejoin:round;">
<path d="M5861 1802
L5711 1907
" />
<path d="M5861 1982
L5546 1982
L5546 1862
L5561 1832
L5576 1817
L5606 1802
L5651 1802
L5681 1817
L5696 1832
L5711 1862
L5711 1982
" />
<path d="M5861 1502
L5861 1682
" />
<path d="M5861 1592
L5546 1592
L5591 1622
L5621 1652
L5636 1682
" />
<path d="M5861 1202
L5861 1382
" />
<path d="M5861 1292
L5546 1292
L5591 1322
L5621 1352
L5636 1382
" />
</g>
<g style="fill:#848484; fill-opacity:0.0; 
stroke:#848484; stroke-width:59.0551; stroke-opacity:1; 
stroke-linecap:round; stroke-linejoin:round;">
<path d="M22269 1505
L22269 1767
" />
<path d="M22175 1355
L22081 1636
L22325 1636
" />
<path d="M22438 1373
L22700 1373
L22531 1767
" />
<path d="M22925 1373
L22962 1373
L23000 1392
L23019 1411
L23037 1448
L23056 1523
L23056 1617
L23037 1692
L23019 1729
L23000 1748
L22962 1767
L22925 1767
L22888 1748
L22869 1729
L22850 1692
L22831 1617
L22831 1523
L22850 1448
L22869 1411
L22888 1392
L22925 1373
" />
</g>
<g style="fill:#848484; fill-opacity:0.0; 
stroke:#848484; stroke-width:47.2441; stroke-opacity:1; 
stroke-linecap:round; stroke-linejoin:round;">
<path d="M22406 2381
L22301 2231
" />
<path d="M22226 2381
L22226 2066
L22346 2066
L22376 2081
L22391 2096
L22406 2126
L22406 2171
L22391 2201
L22376 2216
L22346 2231
L22226 2231
" />
<path d="M22706 2381
L22526 2381
" />
<path d="M22616 2381
L22616 2066
L22586 2111
L22556 2141
L22526 2156
" />
<path d="M22826 2096
L22841 2081
L22871 2066
L22946 2066
L22976 2081
L22991 2096
L23006 2126
L23006 2156
L22991 2201
L22811 2381
L23006 2381
" />
</g>
<g style="fill:#848484; fill-opacity:0.0; 
stroke:#848484; stroke-width:59.0551; stroke-opacity:1; 
stroke-linecap:round; stroke-linejoin:round;">
<path d="M18197 4923
L18197 5148
" />
<path d="M18197 5036
L17803 5036
L17859 5073
L17897 5111
L17916 5148
" />
<path d="M18197 4755
L17803 4755
" />
<path d="M18197 4530
L17972 4698
" />
<path d="M17803 4530
L18028 4755
" />
</g>
<g style="fill:#848484; fill-opacity:0.0; 
stroke:#848484; stroke-width:47.2441; stroke-opacity:1; 
stroke-linecap:round; stroke-linejoin:round;">
<path d="M18111 3941
L17961 4046
" />
<path d="M18111 4121
L17796 4121
L17796 4001
L17811 3971
L17826 3956
L17856 3941
L17901 3941
L17931 3956
L17946 3971
L17961 4001
L17961 4121
" />
<path d="M18111 3641
L18111 3821
" />
<path d="M18111 3731
L17796 3731
L17841 3761
L17871 3791
L17886 3821
" />
<path d="M17796 3371
L17796 3431
L17811 3461
L17826 3476
L17871 3506
L17931 3521
L18051 3521
L18081 3506
L18096 3491
L18111 3461
L18111 3401
L18096 3371
L18081 3356
L18051 3341
L17976 3341
L17946 3356
L17931 3371
L17916 3401
L17916 3461
L17931 3491
L17946 3506
L17976 3521
" />
</g>
<g style="fill:#848484; fill-opacity:0.0; 
stroke:#848484; stroke-width:59.0551; stroke-opacity:1; 
stroke-linecap:round; stroke-linejoin:round;">
<path d="M16459 4205
L16459 4467
" />
<path d="M16366 4055
L16272 4336
L16516 4336
" />
<path d="M16666 4467
L16666 4073
" />
<path d="M16891 4467
L16722 4242
" />
<path d="M16891 4073
L16666 4298
" />
<path d="M17022 4073
L17284 4073
L17116 4467
" />
</g>
<g style="fill:#848484; fill-opacity:0.0; 
stroke:#848484; stroke-width:47.2441; stroke-opacity:1; 
stroke-linecap:round; stroke-linejoin:round;">
<path d="M15306 4431
L15201 4281
" />
<path d="M15126 4431
L15126 4116
L15246 4116
L15276 4131
L15291 4146
L15306 4176
L15306 4221
L15291 4251
L15276 4266
L15246 4281
L15126 4281
" />
<path d="M15606 4431
L15426 4431
" />
<path d="M15516 4431
L15516 4116
L15486 4161
L15456 4191
L15426 4206
" />
<path d="M15711 4116
L15921 4116
L15786 4431
" />
</g>
<g style="fill:#848484; fill-opacity:0.0; 
stroke:#848484; stroke-width:59.0551; stroke-opacity:1; 
stroke-linecap:round; stroke-linejoin:round;">
<path d="M19047 4923
L19047 5148
" />
<path d="M19047 5036
L18653 5036
L18709 5073
L18747 5111
L18766 5148
" />
<path d="M19047 4755
L18653 4755
" />
<path d="M19047 4530
L18822 4698
" />
<path d="M18653 4530
L18878 4755
" />
</g>
<g style="fill:#848484; fill-opacity:0.0; 
stroke:#848484; stroke-width:47.2441; stroke-opacity:1; 
stroke-linecap:round; stroke-linejoin:round;">
<path d="M19011 3957
L18861 4061
" />
<path d="M19011 4136
L18696 4136
L18696 4016
L18711 3986
L18726 3972
L18756 3957
L18801 3957
L18831 3972
L18846 3986
L18861 4016
L18861 4136
" />
<path d="M19011 3657
L19011 3837
" />
<path d="M19011 3747
L18696 3747
L18741 3777
L18771 3807
L18786 3837
" />
<path d="M18831 3477
L18816 3507
L18801 3522
L18771 3537
L18756 3537
L18726 3522
L18711 3507
L18696 3477
L18696 3417
L18711 3387
L18726 3372
L18756 3357
L18771 3357
L18801 3372
L18816 3387
L18831 3417
L18831 3477
L18846 3507
L18861 3522
L18891 3537
L18951 3537
L18981 3522
L18996 3507
L19011 3477
L19011 3417
L18996 3387
L18981 3372
L18951 3357
L18891 3357
L18861 3372
L18846 3387
L18831 3417
" />
</g>
<g style="fill:#848484; fill-opacity:0.0; 
stroke:#848484; stroke-width:59.0551; stroke-opacity:1; 
stroke-linecap:round; stroke-linejoin:round;">
<path d="M19897 4923
L19897 5148
" />
<path d="M19897 5036
L19503 5036
L19559 5073
L19597 5111
L19616 5148
" />
<path d="M19897 4755
L19503 4755
" />
<path d="M19897 4530
L19672 4698
" />
<path d="M19503 4530
L19728 4755
" />
</g>
<g style="fill:#848484; fill-opacity:0.0; 
stroke:#848484; stroke-width:47.2441; stroke-opacity:1; 
stroke-linecap:round; stroke-linejoin:round;">
<path d="M19911 3957
L19761 4061
" />
<path d="M19911 4136
L19596 4136
L19596 4016
L19611 3986
L19626 3972
L19656 3957
L19701 3957
L19731 3972
L19746 3986
L19761 4016
L19761 4136
" />
<path d="M19911 3657
L19911 3837
" />
<path d="M19911 3747
L19596 3747
L19641 3777
L19671 3807
L19686 3837
" />
<path d="M19911 3507
L19911 3447
L19896 3417
L19881 3402
L19836 3372
L19776 3357
L19656 3357
L19626 3372
L19611 3387
L19596 3417
L19596 3477
L19611 3507
L19626 3522
L19656 3537
L19731 3537
L19761 3522
L19776 3507
L19791 3477
L19791 3417
L19776 3387
L19761 3372
L19731 3357
" />
</g>
<g style="fill:#848484; fill-opacity:0.0; 
stroke:#848484; stroke-width:59.0551; stroke-opacity:1; 
stroke-linecap:round; stroke-linejoin:round;">
<path d="M23497 4923
L23497 5148
" />
<path d="M23497 5036
L23103 5036
L23159 5073
L23197 5111
L23216 5148
" />
<path d="M23497 4755
L23103 4755
" />
<path d="M23497 4530
L23272 4698
" />
<path d="M23103 4530
L23328 4755
" />
</g>
<g style="fill:#848484; fill-opacity:0.0; 
stroke:#848484; stroke-width:47.2441; stroke-opacity:1; 
stroke-linecap:round; stroke-linejoin:round;">
<path d="M23461 3981
L23311 4086
" />
<path d="M23461 4161
L23146 4161
L23146 4041
L23161 4011
L23176 3996
L23206 3981
L23251 3981
L23281 3996
L23296 4011
L23311 4041
L23311 4161
" />
<path d="M23176 3861
L23161 3846
L23146 3816
L23146 3741
L23161 3711
L23176 3696
L23206 3681
L23236 3681
L23281 3696
L23461 3876
L23461 3681
" />
<path d="M23461 3381
L23461 3561
" />
<path d="M23461 3471
L23146 3471
L23191 3501
L23221 3531
L23236 3561
" />
</g>
<g style="fill:#848484; fill-opacity:0.0; 
stroke:#848484; stroke-width:59.0551; stroke-opacity:1; 
stroke-linecap:round; stroke-linejoin:round;">
<path d="M21569 12405
L21569 12667
" />
<path d="M21475 12255
L21381 12536
L21625 12536
" />
<path d="M21738 12273
L22000 12273
L21831 12667
" />
<path d="M22225 12273
L22262 12273
L22300 12292
L22319 12311
L22337 12348
L22356 12423
L22356 12517
L22337 12592
L22319 12629
L22300 12648
L22262 12667
L22225 12667
L22188 12648
L22169 12629
L22150 12592
L22131 12517
L22131 12423
L22150 12348
L22169 12311
L22188 12292
L22225 12273
" />
</g>
<g style="fill:#848484; fill-opacity:0.0; 
stroke:#848484; stroke-width:47.2441; stroke-opacity:1; 
stroke-linecap:round; stroke-linejoin:round;">
<path d="M21616 13231
L21511 13081
" />
<path d="M21436 13231
L21436 12916
L21556 12916
L21586 12931
L21601 12946
L21616 12976
L21616 13021
L21601 13051
L21586 13066
L21556 13081
L21436 13081
" />
<path d="M21736 12946
L21751 12931
L21781 12916
L21856 12916
L21886 12931
L21901 12946
L21916 12976
L21916 13006
L21901 13051
L21721 13231
L21916 13231
" />
<path d="M22021 12916
L22216 12916
L22111 13036
L22156 13036
L22186 13051
L22201 13066
L22216 13096
L22216 13171
L22201 13201
L22186 13216
L22156 13231
L22066 13231
L22036 13216
L22021 13201
" />
</g>
<g style="fill:#848484; fill-opacity:0.0; 
stroke:#848484; stroke-width:59.0551; stroke-opacity:1; 
stroke-linecap:round; stroke-linejoin:round;">
<path d="M10110 14917
L10110 14523
L10260 14523
L10297 14542
L10316 14561
L10335 14598
L10335 14655
L10316 14692
L10297 14711
L10260 14729
L10110 14729
" />
<path d="M10578 14523
L10653 14523
L10691 14542
L10728 14580
L10747 14655
L10747 14786
L10728 14861
L10691 14898
L10653 14917
L10578 14917
L10541 14898
L10503 14861
L10484 14786
L10484 14655
L10503 14580
L10541 14542
L10578 14523
" />
<path d="M10878 14523
L10972 14917
L11047 14636
L11122 14917
L11216 14523
" />
<path d="M11366 14711
L11497 14711
" />
<path d="M11553 14917
L11366 14917
L11366 14523
L11553 14523
" />
<path d="M11947 14917
L11816 14729
" />
<path d="M11722 14917
L11722 14523
L11872 14523
L11909 14542
L11928 14561
L11947 14598
L11947 14655
L11928 14692
L11909 14711
L11872 14729
L11722 14729
" />
<path d="M12444 15498
L12500 15517
L12594 15517
L12631 15498
L12650 15479
L12669 15442
L12669 15404
L12650 15367
L12631 15348
L12594 15329
L12519 15311
L12481 15292
L12463 15273
L12444 15236
L12444 15198
L12463 15161
L12481 15142
L12519 15123
L12613 15123
L12669 15142
" />
<path d="M12800 15123
L12894 15517
L12969 15236
L13044 15517
L13138 15123
" />
<path d="M13494 15517
L13269 15517
" />
<path d="M13381 15517
L13381 15123
L13344 15180
L13306 15217
L13269 15236
" />
<path d="M27527 15171
L27339 15302
" />
<path d="M27527 15396
L27133 15396
L27133 15246
L27152 15208
L27171 15189
L27208 15171
L27264 15171
L27302 15189
L27321 15208
L27339 15246
L27339 15396
" />
<path d="M27321 15002
L27321 14871
" />
<path d="M27527 14814
L27527 15002
L27133 15002
L27133 14814
" />
<path d="M27508 14664
L27527 14608
L27527 14515
L27508 14477
L27489 14458
L27452 14440
L27414 14440
L27377 14458
L27358 14477
L27339 14515
L27321 14589
L27302 14627
L27283 14646
L27246 14664
L27208 14664
L27171 14646
L27152 14627
L27133 14589
L27133 14496
L27152 14440
" />
<path d="M27321 14271
L27321 14140
" />
<path d="M27527 14083
L27527 14271
L27133 14271
L27133 14083
" />
<path d="M27133 13971
L27133 13746
" />
<path d="M27527 13858
L27133 13858
" />
<path d="M25918 15464
L25937 15408
L25937 15314
L25918 15276
L25900 15258
L25862 15239
L25825 15239
L25787 15258
L25768 15276
L25750 15314
L25731 15389
L25712 15426
L25693 15445
L25656 15464
L25618 15464
L25581 15445
L25562 15426
L25543 15389
L25543 15295
L25562 15239
" />
<path d="M25543 15108
L25937 15014
L25656 14939
L25937 14864
L25543 14770
" />
<path d="M25581 14639
L25562 14620
L25543 14583
L25543 14489
L25562 14451
L25581 14433
L25618 14414
L25656 14414
L25712 14433
L25937 14658
L25937 14414
" />
<path d="M14322 9086
L14547 9086
" />
<path d="M14434 9480
L14434 9086
" />
<path d="M14678 9480
L14678 9086
L14828 9086
L14866 9105
L14884 9123
L14903 9161
L14903 9217
L14884 9255
L14866 9273
L14828 9292
L14678 9292
" />
<path d="M15278 9480
L15053 9480
" />
<path d="M15166 9480
L15166 9086
L15128 9142
L15091 9180
L15053 9198
" />
<path d="M7778 8311
L7647 8311
" />
<path d="M7647 8517
L7647 8123
L7835 8123
" />
<path d="M7985 8517
L7985 8123
L8134 8123
L8172 8142
L8191 8161
L8209 8198
L8209 8255
L8191 8292
L8172 8311
L8134 8329
L7985 8329
" />
<path d="M8547 8123
L8472 8123
L8434 8142
L8416 8161
L8378 8217
L8359 8292
L8359 8442
L8378 8479
L8397 8498
L8434 8517
L8509 8517
L8547 8498
L8566 8479
L8584 8442
L8584 8348
L8566 8311
L8547 8292
L8509 8273
L8434 8273
L8397 8292
L8378 8311
L8359 8348
" />
<path d="M8734 8161
L8753 8142
L8791 8123
L8884 8123
L8922 8142
L8941 8161
L8959 8198
L8959 8236
L8941 8292
L8716 8517
L8959 8517
" />
<path d="M9147 8517
L9222 8517
L9259 8498
L9278 8479
L9316 8423
L9334 8348
L9334 8198
L9316 8161
L9297 8142
L9259 8123
L9184 8123
L9147 8142
L9128 8161
L9109 8198
L9109 8292
L9128 8329
L9147 8348
L9184 8367
L9259 8367
L9297 8348
L9316 8329
L9334 8292
" />
<path d="M9559 8292
L9522 8273
L9503 8255
L9484 8217
L9484 8198
L9503 8161
L9522 8142
L9559 8123
L9634 8123
L9672 8142
L9691 8161
L9709 8198
L9709 8217
L9691 8255
L9672 8273
L9634 8292
L9559 8292
L9522 8311
L9503 8329
L9484 8367
L9484 8442
L9503 8479
L9522 8498
L9559 8517
L9634 8517
L9672 8498
L9691 8479
L9709 8442
L9709 8367
L9691 8329
L9672 8311
L9634 8292
" />
<path d="M8375 7428
L8375 7740
L8393 7777
L8412 7795
L8448 7813
L8522 7813
L8559 7795
L8577 7777
L8595 7740
L8595 7428
" />
<path d="M8981 7813
L8761 7813
" />
<path d="M8871 7813
L8871 7428
L8834 7483
L8797 7519
L8761 7538
" />
<path d="M5560 12473
L5785 12473
" />
<path d="M5672 12867
L5672 12473
" />
<path d="M5916 12867
L5916 12473
L6066 12473
L6103 12492
L6122 12511
L6141 12548
L6141 12605
L6122 12642
L6103 12661
L6066 12679
L5916 12679
" />
<path d="M6478 12605
L6478 12867
" />
<path d="M6384 12455
L6291 12736
L6534 12736
" />
<path d="M6759 12473
L6797 12473
L6834 12492
L6853 12511
L6872 12548
L6891 12623
L6891 12717
L6872 12792
L6853 12829
L6834 12848
L6797 12867
L6759 12867
L6722 12848
L6703 12829
L6684 12792
L6666 12717
L6666 12623
L6684 12548
L6703 12511
L6722 12492
L6759 12473
" />
<path d="M7247 12473
L7059 12473
L7041 12661
L7059 12642
L7097 12623
L7191 12623
L7228 12642
L7247 12661
L7266 12698
L7266 12792
L7247 12829
L7228 12848
L7191 12867
L7097 12867
L7059 12848
L7041 12829
" />
<path d="M7603 12473
L7528 12473
L7491 12492
L7472 12511
L7434 12567
L7416 12642
L7416 12792
L7434 12829
L7453 12848
L7491 12867
L7566 12867
L7603 12848
L7622 12829
L7641 12792
L7641 12698
L7622 12661
L7603 12642
L7566 12623
L7491 12623
L7453 12642
L7434 12661
L7416 12698
" />
</g>
<g style="fill:#848484; fill-opacity:0.0; 
stroke:#848484; stroke-width:55.1181; stroke-opacity:1; 
stroke-linecap:round; stroke-linejoin:round;">
<path d="M6187 13886
L6187 14186
L6204 14221
L6222 14239
L6257 14256
L6328 14256
L6363 14239
L6381 14221
L6398 14186
L6398 13886
" />
<path d="M6557 13921
L6575 13904
L6610 13886
L6698 13886
L6733 13904
L6751 13921
L6768 13957
L6768 13992
L6751 14045
L6539 14256
L6768 14256
" />
</g>
<g style="fill:#848484; fill-opacity:0.0; 
stroke:#848484; stroke-width:23.622; stroke-opacity:1; 
stroke-linecap:round; stroke-linejoin:round;">
<path d="M13299 4003
L13299 4130
L13306 4145
L13314 4153
L13329 4160
L13359 4160
L13374 4153
L13381 4145
L13389 4130
L13389 4003
" />
<path d="M13449 4003
L13546 4003
L13494 4063
L13516 4063
L13531 4070
L13539 4078
L13546 4093
L13546 4130
L13539 4145
L13531 4153
L13516 4160
L13471 4160
L13456 4153
L13449 4145
" />
</g>
<g style="fill:#848484; fill-opacity:0.0; 
stroke:#848484; stroke-width:59.0551; stroke-opacity:1; 
stroke-linecap:round; stroke-linejoin:round;">
<path d="M17760 8561
L17891 8561
" />
<path d="M17947 8767
L17760 8767
L17760 8373
L17947 8373
" />
<path d="M18097 8748
L18153 8767
L18247 8767
L18285 8748
L18303 8729
L18322 8692
L18322 8654
L18303 8617
L18285 8598
L18247 8579
L18172 8561
L18135 8542
L18116 8523
L18097 8486
L18097 8448
L18116 8411
L18135 8392
L18172 8373
L18266 8373
L18322 8392
" />
<path d="M18491 8767
L18491 8373
L18641 8373
L18678 8392
L18697 8411
L18716 8448
L18716 8505
L18697 8542
L18678 8561
L18641 8579
L18491 8579
" />
<path d="M18847 8373
L19091 8373
L18960 8523
L19016 8523
L19053 8542
L19072 8561
L19091 8598
L19091 8692
L19072 8729
L19053 8748
L19016 8767
L18903 8767
L18866 8748
L18847 8729
" />
<path d="M19241 8411
L19260 8392
L19297 8373
L19391 8373
L19428 8392
L19447 8411
L19466 8448
L19466 8486
L19447 8542
L19222 8767
L19466 8767
" />
<path d="M19634 8617
L19934 8617
" />
<path d="M20084 8373
L20178 8767
L20253 8486
L20328 8767
L20422 8373
" />
<path d="M20797 8767
L20666 8579
" />
<path d="M20572 8767
L20572 8373
L20722 8373
L20759 8392
L20778 8411
L20797 8448
L20797 8505
L20778 8542
L20759 8561
L20722 8579
L20572 8579
" />
<path d="M21041 8373
L21116 8373
L21153 8392
L21191 8430
L21209 8505
L21209 8636
L21191 8711
L21153 8748
L21116 8767
L21041 8767
L21003 8748
L20966 8711
L20947 8636
L20947 8505
L20966 8430
L21003 8392
L21041 8373
" />
<path d="M21322 8373
L21453 8767
L21584 8373
" />
<path d="M21715 8561
L21847 8561
" />
<path d="M21903 8767
L21715 8767
L21715 8373
L21903 8373
" />
<path d="M22297 8767
L22165 8579
" />
<path d="M22072 8767
L22072 8373
L22222 8373
L22259 8392
L22278 8411
L22297 8448
L22297 8505
L22278 8542
L22259 8561
L22222 8579
L22072 8579
" />
<path d="M2710 11276
L2766 11295
L2785 11314
L2803 11351
L2803 11407
L2785 11445
L2766 11464
L2728 11482
L2578 11482
L2578 11089
L2710 11089
L2747 11107
L2766 11126
L2785 11164
L2785 11201
L2766 11239
L2747 11257
L2710 11276
L2578 11276
" />
<path d="M3141 11220
L3141 11482
" />
<path d="M2972 11220
L2972 11426
L2991 11464
L3028 11482
L3084 11482
L3122 11464
L3141 11445
" />
<path d="M3291 11220
L3497 11220
L3291 11482
L3497 11482
" />
<path d="M3609 11220
L3816 11220
L3609 11482
L3816 11482
" />
<path d="M4116 11464
L4078 11482
L4003 11482
L3966 11464
L3947 11426
L3947 11276
L3966 11239
L4003 11220
L4078 11220
L4116 11239
L4134 11276
L4134 11314
L3947 11351
" />
<path d="M4303 11482
L4303 11220
" />
<path d="M4303 11295
L4322 11257
L4341 11239
L4378 11220
L4416 11220
" />
<path d="M3122 9111
L3178 9129
L3197 9148
L3216 9186
L3216 9242
L3197 9279
L3178 9298
L3141 9317
L2991 9317
L2991 8923
L3122 8923
L3159 8942
L3178 8961
L3197 8998
L3197 9036
L3178 9073
L3159 9092
L3122 9111
L2991 9111
" />
<path d="M3347 8923
L3609 8923
L3347 9317
L3609 9317
" />
<path d="M3966 9317
L3741 9317
" />
<path d="M3853 9317
L3853 8923
L3816 8980
L3778 9017
L3741 9036
" />
<path d="M11122 6423
L11366 6423
L11234 6573
L11291 6573
L11328 6592
L11347 6611
L11366 6648
L11366 6742
L11347 6779
L11328 6798
L11291 6817
L11178 6817
L11141 6798
L11122 6779
" />
<path d="M11703 6555
L11703 6817
" />
<path d="M11534 6555
L11534 6761
L11553 6798
L11591 6817
L11647 6817
L11684 6798
L11703 6779
" />
<path d="M11853 6423
L12097 6423
L11966 6573
L12022 6573
L12059 6592
L12078 6611
L12097 6648
L12097 6742
L12078 6779
L12059 6798
L12022 6817
L11909 6817
L11872 6798
L11853 6779
" />
<path d="M11797 7654
L11797 7842
L11403 7842
" />
<path d="M11797 7317
L11797 7542
" />
<path d="M11797 7430
L11403 7430
L11459 7467
L11497 7505
L11516 7542
" />
<path d="M8753 5915
L8772 5896
L8809 5877
L8903 5877
L8941 5896
L8959 5915
L8978 5952
L8978 5990
L8959 6046
L8735 6271
L8978 6271
" />
<path d="M9128 5915
L9147 5896
L9184 5877
L9278 5877
L9316 5896
L9334 5915
L9353 5952
L9353 5990
L9334 6046
L9109 6271
L9353 6271
" />
<path d="M9597 5877
L9634 5877
L9672 5896
L9691 5915
L9709 5952
L9728 6027
L9728 6121
L9709 6196
L9691 6233
L9672 6252
L9634 6271
L9597 6271
L9559 6252
L9541 6233
L9522 6196
L9503 6121
L9503 6027
L9522 5952
L9541 5915
L9559 5896
L9597 5877
" />
<path d="M10066 6008
L10066 6271
" />
<path d="M9897 6008
L9897 6215
L9916 6252
L9953 6271
L10009 6271
L10047 6252
L10066 6233
" />
<path d="M9353 5229
L9334 5248
L9278 5267
L9241 5267
L9184 5248
L9147 5211
L9128 5173
L9109 5098
L9109 5042
L9128 4967
L9147 4930
L9184 4892
L9241 4873
L9278 4873
L9334 4892
L9353 4911
" />
<path d="M9503 4911
L9522 4892
L9559 4873
L9653 4873
L9691 4892
L9709 4911
L9728 4948
L9728 4986
L9709 5042
L9484 5267
L9728 5267
" />
<path d="M12503 12411
L12522 12392
L12559 12373
L12653 12373
L12691 12392
L12709 12411
L12728 12448
L12728 12486
L12709 12542
L12485 12767
L12728 12767
" />
<path d="M12878 12411
L12897 12392
L12934 12373
L13028 12373
L13066 12392
L13084 12411
L13103 12448
L13103 12486
L13084 12542
L12859 12767
L13103 12767
" />
<path d="M13347 12373
L13384 12373
L13422 12392
L13441 12411
L13459 12448
L13478 12523
L13478 12617
L13459 12692
L13441 12729
L13422 12748
L13384 12767
L13347 12767
L13309 12748
L13291 12729
L13272 12692
L13253 12617
L13253 12523
L13272 12448
L13291 12411
L13309 12392
L13347 12373
" />
<path d="M13816 12505
L13816 12767
" />
<path d="M13647 12505
L13647 12711
L13666 12748
L13703 12767
L13759 12767
L13797 12748
L13816 12729
" />
<path d="M13053 11729
L13034 11748
L12978 11767
L12941 11767
L12884 11748
L12847 11711
L12828 11673
L12809 11598
L12809 11542
L12828 11467
L12847 11430
L12884 11392
L12941 11373
L12978 11373
L13034 11392
L13053 11411
" />
<path d="M13184 11373
L13428 11373
L13297 11523
L13353 11523
L13391 11542
L13409 11561
L13428 11598
L13428 11692
L13409 11729
L13391 11748
L13353 11767
L13241 11767
L13203 11748
L13184 11729
" />
<path d="M1534 16029
L1797 16029
" />
<path d="M1384 16123
L1666 16217
L1666 15973
" />
<path d="M1403 15861
L1403 15598
L1797 15767
" />
<path d="M1534 15280
L1797 15280
" />
<path d="M1534 15448
L1741 15448
L1778 15430
L1797 15392
L1797 15336
L1778 15298
L1759 15280
" />
</g>
<g style="fill:#848484; fill-opacity:0.0; 
stroke:#848484; stroke-width:51.1811; stroke-opacity:1; 
stroke-linecap:round; stroke-linejoin:round;">
<path d="M2693 15847
L2709 15863
L2726 15913
L2726 15946
L2709 15995
L2676 16028
L2643 16045
L2577 16061
L2528 16061
L2462 16045
L2429 16028
L2396 15995
L2379 15946
L2379 15913
L2396 15863
L2412 15847
" />
<path d="M2495 15550
L2726 15550
" />
<path d="M2363 15632
L2610 15715
L2610 15500
" />
</g>
<g style="fill:#848484; fill-opacity:0.0; 
stroke:#848484; stroke-width:59.0551; stroke-opacity:1; 
stroke-linecap:round; stroke-linejoin:round;">
<path d="M20128 15317
L19903 15317
" />
<path d="M20016 15317
L20016 14923
L19978 14980
L19941 15017
L19903 15036
" />
<path d="M20372 14923
L20409 14923
L20447 14942
L20466 14961
L20484 14998
L20503 15073
L20503 15167
L20484 15242
L20466 15279
L20447 15298
L20409 15317
L20372 15317
L20334 15298
L20316 15279
L20297 15242
L20278 15167
L20278 15073
L20297 14998
L20316 14961
L20334 14942
L20372 14923
" />
<path d="M20747 14923
L20784 14923
L20822 14942
L20841 14961
L20859 14998
L20878 15073
L20878 15167
L20859 15242
L20841 15279
L20822 15298
L20784 15317
L20747 15317
L20709 15298
L20691 15279
L20672 15242
L20653 15167
L20653 15073
L20672 14998
L20691 14961
L20709 14942
L20747 14923
" />
<path d="M21047 15055
L21047 15317
" />
<path d="M21047 15092
L21066 15073
L21103 15055
L21159 15055
L21197 15073
L21216 15111
L21216 15317
" />
</g>
<g style="fill:#848484; fill-opacity:0.0; 
stroke:#848484; stroke-width:47.2441; stroke-opacity:1; 
stroke-linecap:round; stroke-linejoin:round;">
<path d="M19216 15001
L19201 15016
L19156 15031
L19126 15031
L19081 15016
L19051 14986
L19036 14956
L19021 14896
L19021 14851
L19036 14791
L19051 14761
L19081 14731
L19126 14716
L19156 14716
L19201 14731
L19216 14746
" />
<path d="M19501 14716
L19351 14716
L19336 14866
L19351 14851
L19381 14836
L19456 14836
L19486 14851
L19501 14866
L19516 14896
L19516 14971
L19501 15001
L19486 15016
L19456 15031
L19381 15031
L19351 15016
L19336 15001
" />
</g>
<g style="fill:#848484; fill-opacity:0.0; 
stroke:#848484; stroke-width:59.0551; stroke-opacity:1; 
stroke-linecap:round; stroke-linejoin:round;">
<path d="M16941 2704
L16922 2686
L16903 2648
L16903 2554
L16922 2517
L16941 2498
L16978 2479
L17016 2479
L17072 2498
L17297 2723
L17297 2479
" />
<path d="M16941 2329
L16922 2311
L16903 2273
L16903 2179
L16922 2142
L16941 2123
L16978 2104
L17016 2104
L17072 2123
L17297 2348
L17297 2104
" />
<path d="M16903 1861
L16903 1823
L16922 1786
L16941 1767
L16978 1748
L17053 1730
L17147 1730
L17222 1748
L17259 1767
L17278 1786
L17297 1823
L17297 1861
L17278 1898
L17259 1917
L17222 1936
L17147 1955
L17053 1955
L16978 1936
L16941 1917
L16922 1898
L16903 1861
" />
<path d="M17034 1392
L17297 1392
" />
<path d="M17034 1561
L17241 1561
L17278 1542
L17297 1505
L17297 1448
L17278 1411
L17259 1392
" />
<path d="M16259 2074
L16278 2093
L16297 2149
L16297 2186
L16278 2243
L16241 2280
L16203 2299
L16128 2318
L16072 2318
L15997 2299
L15959 2280
L15922 2243
L15903 2186
L15903 2149
L15922 2093
L15941 2074
" />
<path d="M15903 1943
L15903 1680
L16297 1849
" />
<path d="M12872 755
L12872 1017
" />
<path d="M12778 605
L12685 886
L12928 886
" />
<path d="M13041 623
L13303 623
L13134 1017
" />
<path d="M13528 623
L13566 623
L13603 642
L13622 661
L13641 698
L13659 773
L13659 867
L13641 942
L13622 979
L13603 998
L13566 1017
L13528 1017
L13491 998
L13472 979
L13453 942
L13434 867
L13434 773
L13453 698
L13472 661
L13491 642
L13528 623
" />
<path d="M13997 755
L13997 1017
" />
<path d="M13828 755
L13828 961
L13847 998
L13884 1017
L13941 1017
L13978 998
L13997 979
" />
<path d="M14316 811
L14184 811
" />
<path d="M14184 1017
L14184 623
L14372 623
" />
<path d="M13403 1579
L13384 1598
L13328 1617
L13291 1617
L13234 1598
L13197 1561
L13178 1523
L13159 1448
L13159 1392
L13178 1317
L13197 1280
L13234 1242
L13291 1223
L13328 1223
L13384 1242
L13403 1261
" />
<path d="M13628 1392
L13591 1373
L13572 1355
L13553 1317
L13553 1298
L13572 1261
L13591 1242
L13628 1223
L13703 1223
L13741 1242
L13759 1261
L13778 1298
L13778 1317
L13759 1355
L13741 1373
L13703 1392
L13628 1392
L13591 1411
L13572 1429
L13553 1467
L13553 1542
L13572 1579
L13591 1598
L13628 1617
L13703 1617
L13741 1598
L13759 1579
L13778 1542
L13778 1467
L13759 1429
L13741 1411
L13703 1392
" />
<path d="M12091 5304
L12072 5286
L12053 5248
L12053 5154
L12072 5117
L12091 5098
L12128 5079
L12166 5079
L12222 5098
L12447 5323
L12447 5079
" />
<path d="M12091 4929
L12072 4911
L12053 4873
L12053 4779
L12072 4742
L12091 4723
L12128 4704
L12166 4704
L12222 4723
L12447 4948
L12447 4704
" />
<path d="M12053 4461
L12053 4423
L12072 4386
L12091 4367
L12128 4348
L12203 4330
L12297 4330
L12372 4348
L12409 4367
L12428 4386
L12447 4423
L12447 4461
L12428 4498
L12409 4517
L12372 4536
L12297 4555
L12203 4555
L12128 4536
L12091 4517
L12072 4498
L12053 4461
" />
<path d="M12184 3992
L12447 3992
" />
<path d="M12184 4161
L12391 4161
L12428 4142
L12447 4105
L12447 4048
L12428 4011
L12409 3992
" />
<path d="M11959 4204
L11978 4223
L11997 4279
L11997 4317
L11978 4373
L11941 4411
L11903 4429
L11828 4448
L11772 4448
L11697 4429
L11659 4411
L11622 4373
L11603 4317
L11603 4279
L11622 4223
L11641 4204
" />
<path d="M11997 4017
L11997 3942
L11978 3905
L11959 3886
L11903 3848
L11828 3830
L11678 3830
L11641 3848
L11622 3867
L11603 3905
L11603 3980
L11622 4017
L11641 4036
L11678 4055
L11772 4055
L11809 4036
L11828 4017
L11847 3980
L11847 3905
L11828 3867
L11809 3848
L11772 3830
" />
<path d="M9447 3067
L9447 3292
" />
<path d="M9447 3179
L9053 3179
L9109 3217
L9147 3254
L9166 3292
" />
<path d="M9053 2823
L9053 2786
L9072 2748
L9091 2729
L9128 2711
L9203 2692
L9297 2692
L9372 2711
L9409 2729
L9428 2748
L9447 2786
L9447 2823
L9428 2861
L9409 2879
L9372 2898
L9297 2917
L9203 2917
L9128 2898
L9091 2879
L9072 2861
L9053 2823
" />
<path d="M9053 2448
L9053 2411
L9072 2373
L9091 2355
L9128 2336
L9203 2317
L9297 2317
L9372 2336
L9409 2355
L9428 2373
L9447 2411
L9447 2448
L9428 2486
L9409 2504
L9372 2523
L9297 2542
L9203 2542
L9128 2523
L9091 2504
L9072 2486
L9053 2448
" />
<path d="M9053 2073
L9053 2036
L9072 1998
L9091 1980
L9128 1961
L9203 1942
L9297 1942
L9372 1961
L9409 1980
L9428 1998
L9447 2036
L9447 2073
L9428 2111
L9409 2130
L9372 2148
L9297 2167
L9203 2167
L9128 2148
L9091 2130
L9072 2111
L9053 2073
" />
<path d="M9184 1605
L9447 1605
" />
<path d="M9184 1773
L9391 1773
L9428 1755
L9447 1717
L9447 1661
L9428 1623
L9409 1605
" />
<path d="M10009 2567
L10028 2585
L10047 2642
L10047 2679
L10028 2735
L9991 2773
L9953 2792
L9878 2810
L9822 2810
L9747 2792
L9709 2773
L9672 2735
L9653 2679
L9653 2642
L9672 2585
L9691 2567
" />
<path d="M10047 2192
L10047 2417
" />
<path d="M10047 2304
L9653 2304
L9709 2342
L9747 2379
L9766 2417
" />
<path d="M9653 1948
L9653 1910
L9672 1873
L9691 1854
L9728 1835
L9803 1817
L9897 1817
L9972 1835
L10009 1854
L10028 1873
L10047 1910
L10047 1948
L10028 1985
L10009 2004
L9972 2023
L9897 2042
L9803 2042
L9728 2023
L9691 2004
L9672 1985
L9653 1948
" />
<path d="M2816 5117
L2591 5117
" />
<path d="M2703 5117
L2703 4723
L2666 4780
L2628 4817
L2591 4836
" />
<path d="M3059 4723
L3097 4723
L3134 4742
L3153 4761
L3172 4798
L3191 4873
L3191 4967
L3172 5042
L3153 5079
L3134 5098
L3097 5117
L3059 5117
L3022 5098
L3003 5079
L2984 5042
L2966 4967
L2966 4873
L2984 4798
L3003 4761
L3022 4742
L3059 4723
" />
<path d="M3359 4855
L3359 5248
" />
<path d="M3359 4873
L3397 4855
L3472 4855
L3509 4873
L3528 4892
L3547 4929
L3547 5042
L3528 5079
L3509 5098
L3472 5117
L3397 5117
L3359 5098
" />
</g>
<g style="fill:#848484; fill-opacity:0.0; 
stroke:#848484; stroke-width:47.2441; stroke-opacity:1; 
stroke-linecap:round; stroke-linejoin:round;">
<path d="M2866 5851
L2851 5866
L2806 5881
L2776 5881
L2731 5866
L2701 5836
L2686 5806
L2671 5746
L2671 5701
L2686 5641
L2701 5611
L2731 5581
L2776 5566
L2806 5566
L2851 5581
L2866 5596
" />
<path d="M3166 5881
L2986 5881
" />
<path d="M3076 5881
L3076 5566
L3046 5611
L3016 5641
L2986 5656
" />
<path d="M3466 5881
L3286 5881
" />
<path d="M3376 5881
L3376 5566
L3346 5611
L3316 5641
L3286 5656
" />
</g>
<g style="fill:#848484; fill-opacity:0.0; 
stroke:#848484; stroke-width:59.0551; stroke-opacity:1; 
stroke-linecap:round; stroke-linejoin:round;">
<path d="M24941 3022
L24716 3022
" />
<path d="M24828 3022
L24828 2628
L24791 2685
L24753 2722
L24716 2741
" />
<path d="M25184 2628
L25222 2628
L25259 2647
L25278 2666
L25297 2703
L25316 2778
L25316 2872
L25297 2947
L25278 2985
L25259 3003
L25222 3022
L25184 3022
L25147 3003
L25128 2985
L25109 2947
L25091 2872
L25091 2778
L25109 2703
L25128 2666
L25147 2647
L25184 2628
" />
<path d="M25559 2628
L25597 2628
L25634 2647
L25653 2666
L25672 2703
L25691 2778
L25691 2872
L25672 2947
L25653 2985
L25634 3003
L25597 3022
L25559 3022
L25522 3003
L25503 2985
L25484 2947
L25466 2872
L25466 2778
L25484 2703
L25503 2666
L25522 2647
L25559 2628
" />
<path d="M25934 2628
L25972 2628
L26009 2647
L26028 2666
L26047 2703
L26066 2778
L26066 2872
L26047 2947
L26028 2985
L26009 3003
L25972 3022
L25934 3022
L25897 3003
L25878 2985
L25859 2947
L25841 2872
L25841 2778
L25859 2703
L25878 2666
L25897 2647
L25934 2628
" />
<path d="M26403 2760
L26403 3022
" />
<path d="M26234 2760
L26234 2966
L26253 3003
L26291 3022
L26347 3022
L26384 3003
L26403 2985
" />
<path d="M25316 1429
L25297 1448
L25241 1467
L25203 1467
L25147 1448
L25109 1411
L25091 1373
L25072 1298
L25072 1242
L25091 1167
L25109 1130
L25147 1092
L25203 1073
L25241 1073
L25297 1092
L25316 1111
" />
<path d="M25691 1467
L25466 1467
" />
<path d="M25578 1467
L25578 1073
L25541 1130
L25503 1167
L25466 1186
" />
<path d="M26047 1073
L25859 1073
L25841 1261
L25859 1242
L25897 1223
L25991 1223
L26028 1242
L26047 1261
L26066 1298
L26066 1392
L26047 1429
L26028 1448
L25991 1467
L25897 1467
L25859 1448
L25841 1429
" />
<path d="M24285 4886
L24304 4867
L24342 4848
L24435 4848
L24473 4867
L24492 4886
L24510 4923
L24510 4961
L24492 5017
L24267 5242
L24510 5242
" />
<path d="M24660 4886
L24679 4867
L24717 4848
L24810 4848
L24848 4867
L24867 4886
L24885 4923
L24885 4961
L24867 5017
L24642 5242
L24885 5242
" />
<path d="M25223 4980
L25223 5242
" />
<path d="M25054 4980
L25054 5186
L25073 5223
L25110 5242
L25167 5242
L25204 5223
L25223 5205
" />
</g>
<g style="fill:#848484; fill-opacity:0.0; 
stroke:#848484; stroke-width:51.1811; stroke-opacity:1; 
stroke-linecap:round; stroke-linejoin:round;">
<path d="M24541 4263
L24524 4279
L24475 4296
L24442 4296
L24392 4279
L24359 4246
L24343 4213
L24326 4147
L24326 4098
L24343 4032
L24359 3999
L24392 3966
L24442 3949
L24475 3949
L24524 3966
L24541 3982
" />
<path d="M24871 4296
L24673 4296
" />
<path d="M24772 4296
L24772 3949
L24739 3999
L24706 4032
L24673 4048
" />
<path d="M25168 3949
L25102 3949
L25069 3966
L25052 3982
L25019 4032
L25003 4098
L25003 4230
L25019 4263
L25036 4279
L25069 4296
L25135 4296
L25168 4279
L25184 4263
L25201 4230
L25201 4147
L25184 4114
L25168 4098
L25135 4081
L25069 4081
L25036 4098
L25019 4114
L25003 4147
" />
</g>
<g style="fill:#848484; fill-opacity:0.0; 
stroke:#848484; stroke-width:59.0551; stroke-opacity:1; 
stroke-linecap:round; stroke-linejoin:round;">
<path d="M21747 5629
L21747 5854
" />
<path d="M21747 5742
L21353 5742
L21409 5779
L21447 5817
L21466 5854
" />
<path d="M21353 5386
L21353 5348
L21372 5311
L21391 5292
L21428 5273
L21503 5254
L21597 5254
L21672 5273
L21709 5292
L21728 5311
L21747 5348
L21747 5386
L21728 5423
L21709 5442
L21672 5461
L21597 5479
L21503 5479
L21428 5461
L21391 5442
L21372 5423
L21353 5386
" />
<path d="M21353 5011
L21353 4973
L21372 4936
L21391 4917
L21428 4898
L21503 4880
L21597 4880
L21672 4898
L21709 4917
L21728 4936
L21747 4973
L21747 5011
L21728 5048
L21709 5067
L21672 5086
L21597 5105
L21503 5105
L21428 5086
L21391 5067
L21372 5048
L21353 5011
" />
<path d="M21484 4711
L21747 4711
" />
<path d="M21522 4711
L21503 4692
L21484 4655
L21484 4598
L21503 4561
L21541 4542
L21747 4542
" />
</g>
<g style="fill:#848484; fill-opacity:0.0; 
stroke:#848484; stroke-width:47.2441; stroke-opacity:1; 
stroke-linecap:round; stroke-linejoin:round;">
<path d="M21681 3957
L21696 3972
L21711 4016
L21711 4046
L21696 4091
L21666 4121
L21636 4136
L21576 4151
L21531 4151
L21471 4136
L21441 4121
L21411 4091
L21396 4046
L21396 4016
L21411 3972
L21426 3957
" />
<path d="M21711 3657
L21711 3837
" />
<path d="M21711 3747
L21396 3747
L21441 3777
L21471 3807
L21486 3837
" />
<path d="M21396 3552
L21396 3342
L21711 3477
" />
</g>
<g style="fill:#848484; fill-opacity:0.0; 
stroke:#848484; stroke-width:59.0551; stroke-opacity:1; 
stroke-linecap:round; stroke-linejoin:round;">
<path d="M22163 17442
L22125 17423
L22069 17423
L22013 17442
L21975 17480
L21956 17517
L21938 17592
L21938 17648
L21956 17723
L21975 17761
L22013 17798
L22069 17817
L22106 17817
L22163 17798
L22181 17779
L22181 17648
L22106 17648
" />
<path d="M22575 17817
L22444 17629
" />
<path d="M22350 17817
L22350 17423
L22500 17423
L22538 17442
L22556 17461
L22575 17498
L22575 17555
L22556 17592
L22538 17611
L22500 17629
L22350 17629
" />
<path d="M22744 17611
L22875 17611
" />
<path d="M22931 17817
L22744 17817
L22744 17423
L22931 17423
" />
<path d="M23100 17611
L23231 17611
" />
<path d="M23287 17817
L23100 17817
L23100 17423
L23287 17423
" />
<path d="M23456 17817
L23456 17423
L23681 17817
L23681 17423
" />
</g>
<g style="fill:#848484; fill-opacity:0.0; 
stroke:#848484; stroke-width:47.2441; stroke-opacity:1; 
stroke-linecap:round; stroke-linejoin:round;">
<path d="M22470 16781
L22470 16466
L22545 16466
L22590 16481
L22620 16511
L22635 16541
L22650 16601
L22650 16646
L22635 16706
L22620 16736
L22590 16766
L22545 16781
L22470 16781
" />
<path d="M22920 16466
L22860 16466
L22830 16481
L22815 16496
L22785 16541
L22770 16601
L22770 16721
L22785 16751
L22800 16766
L22830 16781
L22890 16781
L22920 16766
L22935 16751
L22950 16721
L22950 16646
L22935 16616
L22920 16601
L22890 16586
L22830 16586
L22800 16601
L22785 16616
L22770 16646
" />
</g>
<g style="fill:#848484; fill-opacity:0.0; 
stroke:#848484; stroke-width:59.0551; stroke-opacity:1; 
stroke-linecap:round; stroke-linejoin:round;">
<path d="M26303 17561
L26359 17579
L26378 17598
L26397 17636
L26397 17692
L26378 17729
L26359 17748
L26322 17767
L26172 17767
L26172 17373
L26303 17373
L26341 17392
L26359 17411
L26378 17448
L26378 17486
L26359 17523
L26341 17542
L26303 17561
L26172 17561
" />
<path d="M26753 17767
L26566 17767
L26566 17373
" />
<path d="M26884 17373
L26884 17692
L26903 17729
L26922 17748
L26959 17767
L27034 17767
L27072 17748
L27091 17729
L27109 17692
L27109 17373
" />
<path d="M27297 17561
L27428 17561
" />
<path d="M27484 17767
L27297 17767
L27297 17373
L27484 17373
" />
</g>
<g style="fill:#848484; fill-opacity:0.0; 
stroke:#848484; stroke-width:47.2441; stroke-opacity:1; 
stroke-linecap:round; stroke-linejoin:round;">
<path d="M26336 16781
L26336 16466
L26411 16466
L26456 16481
L26486 16511
L26501 16541
L26516 16601
L26516 16646
L26501 16706
L26486 16736
L26456 16766
L26411 16781
L26336 16781
" />
<path d="M26621 16466
L26831 16466
L26696 16781
" />
</g>
<g style="fill:#848484; fill-opacity:0.0; 
stroke:#848484; stroke-width:59.0551; stroke-opacity:1; 
stroke-linecap:round; stroke-linejoin:round;">
<path d="M24316 17817
L24184 17629
" />
<path d="M24091 17817
L24091 17423
L24241 17423
L24278 17442
L24297 17461
L24316 17498
L24316 17555
L24297 17592
L24278 17611
L24241 17629
L24091 17629
" />
<path d="M24484 17611
L24616 17611
" />
<path d="M24672 17817
L24484 17817
L24484 17423
L24672 17423
" />
<path d="M24841 17817
L24841 17423
L24934 17423
L24991 17442
L25028 17480
L25047 17517
L25066 17592
L25066 17648
L25047 17723
L25028 17761
L24991 17798
L24934 17817
L24841 17817
" />
</g>
<g style="fill:#848484; fill-opacity:0.0; 
stroke:#848484; stroke-width:47.2441; stroke-opacity:1; 
stroke-linecap:round; stroke-linejoin:round;">
<path d="M24385 16781
L24385 16466
L24460 16466
L24505 16481
L24535 16511
L24550 16541
L24565 16601
L24565 16646
L24550 16706
L24535 16736
L24505 16766
L24460 16781
L24385 16781
" />
<path d="M24745 16601
L24715 16586
L24700 16571
L24685 16541
L24685 16526
L24700 16496
L24715 16481
L24745 16466
L24805 16466
L24835 16481
L24850 16496
L24865 16526
L24865 16541
L24850 16571
L24835 16586
L24805 16601
L24745 16601
L24715 16616
L24700 16631
L24685 16661
L24685 16721
L24700 16751
L24715 16766
L24745 16781
L24805 16781
L24835 16766
L24850 16751
L24865 16721
L24865 16661
L24850 16631
L24835 16616
L24805 16601
" />
</g>
<g style="fill:#848484; fill-opacity:0.0; 
stroke:#848484; stroke-width:59.0551; stroke-opacity:1; 
stroke-linecap:round; stroke-linejoin:round;">
<path d="M18784 12367
L18784 11973
" />
<path d="M18953 12011
L18972 11992
L19009 11973
L19103 11973
L19141 11992
L19159 12011
L19178 12048
L19178 12086
L19159 12142
L18934 12367
L19178 12367
" />
<path d="M19572 12329
L19553 12348
L19497 12367
L19459 12367
L19403 12348
L19366 12311
L19347 12273
L19328 12198
L19328 12142
L19347 12067
L19366 12030
L19403 11992
L19459 11973
L19497 11973
L19553 11992
L19572 12011
" />
<path d="M18238 12923
L18238 13204
L18219 13261
L18181 13298
L18125 13317
L18088 13317
" />
<path d="M18594 12923
L18519 12923
L18481 12942
L18463 12961
L18425 13017
L18406 13092
L18406 13242
L18425 13279
L18444 13298
L18481 13317
L18556 13317
L18594 13298
L18613 13279
L18631 13242
L18631 13148
L18613 13111
L18594 13092
L18556 13073
L18481 13073
L18444 13092
L18425 13111
L18406 13148
" />
<path d="M22409 14855
L22409 15117
" />
<path d="M22316 14705
L22222 14986
L22466 14986
" />
<path d="M22616 15117
L22616 14723
" />
<path d="M22841 15117
L22672 14892
" />
<path d="M22841 14723
L22616 14948
" />
<path d="M22972 14723
L23234 14723
L23066 15117
" />
</g>
<g style="fill:#848484; fill-opacity:0.0; 
stroke:#848484; stroke-width:47.2441; stroke-opacity:1; 
stroke-linecap:round; stroke-linejoin:round;">
<path d="M22466 15631
L22361 15481
" />
<path d="M22286 15631
L22286 15316
L22406 15316
L22436 15331
L22451 15346
L22466 15376
L22466 15421
L22451 15451
L22436 15466
L22406 15481
L22286 15481
" />
<path d="M22586 15346
L22601 15331
L22631 15316
L22706 15316
L22736 15331
L22751 15346
L22766 15376
L22766 15406
L22751 15451
L22571 15631
L22766 15631
" />
<path d="M22916 15631
L22976 15631
L23006 15616
L23021 15601
L23051 15556
L23066 15496
L23066 15376
L23051 15346
L23036 15331
L23006 15316
L22946 15316
L22916 15331
L22901 15346
L22886 15376
L22886 15451
L22901 15481
L22916 15496
L22946 15511
L23006 15511
L23036 15496
L23051 15481
L23066 15451
" />
</g>
<g style="fill:#848484; fill-opacity:0.0; 
stroke:#848484; stroke-width:59.0551; stroke-opacity:1; 
stroke-linecap:round; stroke-linejoin:round;">
<path d="M24309 14805
L24309 15067
" />
<path d="M24216 14655
L24122 14936
L24366 14936
" />
<path d="M24516 15067
L24516 14673
" />
<path d="M24741 15067
L24572 14842
" />
<path d="M24741 14673
L24516 14898
" />
<path d="M24872 14673
L25134 14673
L24966 15067
" />
</g>
<g style="fill:#848484; fill-opacity:0.0; 
stroke:#848484; stroke-width:47.2441; stroke-opacity:1; 
stroke-linecap:round; stroke-linejoin:round;">
<path d="M24416 15631
L24311 15481
" />
<path d="M24236 15631
L24236 15316
L24356 15316
L24386 15331
L24401 15346
L24416 15376
L24416 15421
L24401 15451
L24386 15466
L24356 15481
L24236 15481
" />
<path d="M24521 15316
L24716 15316
L24611 15436
L24656 15436
L24686 15451
L24701 15466
L24716 15496
L24716 15571
L24701 15601
L24686 15616
L24656 15631
L24566 15631
L24536 15616
L24521 15601
" />
<path d="M24911 15316
L24941 15316
L24971 15331
L24986 15346
L25001 15376
L25016 15436
L25016 15511
L25001 15571
L24986 15601
L24971 15616
L24941 15631
L24911 15631
L24881 15616
L24866 15601
L24851 15571
L24836 15511
L24836 15436
L24851 15376
L24866 15346
L24881 15331
L24911 15316
" />
</g>
<g style="fill:#848484; fill-opacity:0.0; 
stroke:#848484; stroke-width:59.0551; stroke-opacity:1; 
stroke-linecap:round; stroke-linejoin:round;">
<path d="M19561 17629
L19561 17817
" />
<path d="M19430 17423
L19561 17629
L19692 17423
" />
<path d="M19823 17611
L19954 17611
" />
<path d="M20011 17817
L19823 17817
L19823 17423
L20011 17423
" />
<path d="M20367 17817
L20179 17817
L20179 17423
" />
<path d="M20686 17817
L20498 17817
L20498 17423
" />
<path d="M20892 17423
L20967 17423
L21004 17442
L21042 17480
L21061 17555
L21061 17686
L21042 17761
L21004 17798
L20967 17817
L20892 17817
L20854 17798
L20817 17761
L20798 17686
L20798 17555
L20817 17480
L20854 17442
L20892 17423
" />
<path d="M21192 17423
L21286 17817
L21361 17536
L21436 17817
L21529 17423
" />
</g>
<g style="fill:#848484; fill-opacity:0.0; 
stroke:#848484; stroke-width:47.2441; stroke-opacity:1; 
stroke-linecap:round; stroke-linejoin:round;">
<path d="M20536 16781
L20536 16466
L20611 16466
L20656 16481
L20686 16511
L20701 16541
L20716 16601
L20716 16646
L20701 16706
L20686 16736
L20656 16766
L20611 16781
L20536 16781
" />
<path d="M20866 16781
L20926 16781
L20956 16766
L20971 16751
L21001 16706
L21016 16646
L21016 16526
L21001 16496
L20986 16481
L20956 16466
L20896 16466
L20866 16481
L20851 16496
L20836 16526
L20836 16601
L20851 16631
L20866 16646
L20896 16661
L20956 16661
L20986 16646
L21001 16631
L21016 16601
" />
</g>
<g style="fill:#848484; fill-opacity:0.0; 
stroke:#848484; stroke-width:59.0551; stroke-opacity:1; 
stroke-linecap:round; stroke-linejoin:round;">
<path d="M9641 11929
L9659 11873
L9678 11854
L9716 11836
L9772 11836
L9809 11854
L9828 11873
L9847 11911
L9847 12061
L9453 12061
L9453 11929
L9472 11892
L9491 11873
L9528 11854
L9566 11854
L9603 11873
L9622 11892
L9641 11929
L9641 12061
" />
<path d="M9734 11686
L9734 11498
" />
<path d="M9847 11723
L9453 11592
L9847 11461
" />
<path d="M9453 11386
L9453 11161
" />
<path d="M9847 11273
L9453 11273
" />
<path d="M10403 11620
L10684 11620
L10741 11639
L10778 11676
L10797 11733
L10797 11770
" />
<path d="M10441 11451
L10422 11433
L10403 11395
L10403 11301
L10422 11264
L10441 11245
L10478 11226
L10516 11226
L10572 11245
L10797 11470
L10797 11226
" />
<path d="M15663 16061
L15719 16079
L15738 16098
L15756 16136
L15756 16192
L15738 16229
L15719 16248
L15681 16267
L15531 16267
L15531 15873
L15663 15873
L15700 15892
L15719 15911
L15738 15948
L15738 15986
L15719 16023
L15700 16042
L15663 16061
L15531 16061
" />
<path d="M15925 16267
L15925 15873
L16075 15873
L16113 15892
L16131 15911
L16150 15948
L16150 16005
L16131 16042
L16113 16061
L16075 16079
L15925 16079
" />
<path d="M16525 16267
L16300 16267
" />
<path d="M16412 16267
L16412 15873
L16375 15930
L16338 15967
L16300 15986
" />
<path d="M14444 16948
L14500 16967
L14594 16967
L14631 16948
L14650 16929
L14669 16892
L14669 16854
L14650 16817
L14631 16798
L14594 16779
L14519 16761
L14481 16742
L14463 16723
L14444 16686
L14444 16648
L14463 16611
L14481 16592
L14519 16573
L14613 16573
L14669 16592
" />
<path d="M14800 16573
L14894 16967
L14969 16686
L15044 16967
L15138 16573
" />
<path d="M15250 16573
L15494 16573
L15362 16723
L15419 16723
L15456 16742
L15475 16761
L15494 16798
L15494 16892
L15475 16929
L15456 16948
L15419 16967
L15306 16967
L15269 16948
L15250 16929
" />
</g>
<g style="fill:#000000; fill-opacity:0.0; 
stroke:#000000; stroke-width:59.0551; stroke-opacity:1; 
stroke-linecap:round; stroke-linejoin:round;">
</g>
<g style="fill:#C2C200; fill-opacity:0.0; 
stroke:#C2C200; stroke-width:59.0551; stroke-opacity:1; 
stroke-linecap:round; stroke-linejoin:round;">
<path d="M369 889
L369 16589
" />
<path d="M26919 89
L1119 89
" />
<path d="M27669 5089
L27669 839
" />
<path d="M27669 16589
L27669 12389
" />
<path d="M13969 17339
L26919 17339
" />
<path d="M13619 15689
L13619 16989
" />
<path d="M8419 16989
L8419 15689
" />
<path d="M1119 17339
L8069 17339
" />
<path d="M13619.3 16989.4 A350 350 0.0 0 0 13969.3 17339.4 " />
<path d="M8069.29 17339.4 A350 350 0.0 0 0 8419.29 16989.4 " />
<path d="M1119.29 89.3705 A750 750 0.0 0 0 370.953 889.26 " />
<path d="M369.292 16589.4 A750 750 0.0 0 0 1119.29 17339.4 " />
<path d="M26919.3 17339.4 A750 750 0.0 0 0 27669.3 16589.4 " />
<path d="M27669.3 839.37 A750 750 0.0 0 0 26919.3 89.3705 " />
<path d="M8419 15689
L13619 15689
" />
<path d="M25419 5089
L27669 5089
" />
<path d="M25419 12389
L25419 5089
" />
<path d="M27669 12389
L25419 12389
" />
</g> 
</svg>
